<svg width="2048" height="2048" viewBox="0 0 2048 2048" fill="none" xmlns="http://www.w3.org/2000/svg">
<rect width="2048" height="2048" fill="url(#paint0_linear_227_5212)"/>
<path d="M1357.33 1989.01L1278.55 1748.8C1277.44 1745.41 1274.27 1743.12 1270.71 1743.12H853.391C848.245 1743.12 844.355 1738.46 845.272 1733.4L897.976 1442.65C898.687 1438.73 902.105 1435.88 906.095 1435.88H1185.2C1190.71 1435.88 1194.67 1430.58 1193.11 1425.29L1015.23 823.125C1014.89 821.981 1014.81 820.777 1014.98 819.597L1055.05 545.376C1134.63 536.584 1204.46 495.466 1251.12 435.449L1841.73 1983.5C1843.79 1988.9 1839.8 1994.69 1834.02 1994.69H1365.17C1361.61 1994.69 1358.44 1992.4 1357.33 1989.01Z" fill="white"/>
<path fill-rule="evenodd" clip-rule="evenodd" d="M793.016 433.111C834.526 487.641 895.002 526.96 964.612 541.24L693.254 1986.11C692.141 1992.04 685.255 1994.81 680.349 1991.3L492.854 1857.42C490.319 1855.61 486.98 1855.38 484.222 1856.83L219.785 1995.66C213.256 1999.09 205.934 1992.64 208.175 1985.61C472.714 1156.46 692.543 648.807 793.016 433.111Z" fill="white"/>
<ellipse cx="1022.97" cy="258.452" rx="202.148" ry="202.08" fill="white"/>
<defs>
<linearGradient id="paint0_linear_227_5212" x1="0" y1="2048" x2="2048" y2="0" gradientUnits="userSpaceOnUse">
<stop stop-color="#9B51E0"/>
<stop offset="1" stop-color="#FF00A8"/>
</linearGradient>
</defs>
</svg>
