<svg width="600" height="332" viewBox="0 0 600 332" fill="none" xmlns="http://www.w3.org/2000/svg">
<path opacity="0.6" d="M259.184 164.813V163.352H259.218L259.253 163.354L259.184 164.813ZM201.8 164.813L210.234 156.379L218.669 164.813L210.234 173.247L201.8 164.813ZM451.567 298.966C451.567 294.663 455.056 291.175 459.358 291.175C463.661 291.175 467.15 294.663 467.15 298.966C467.15 303.269 463.661 306.757 459.358 306.757C455.056 306.757 451.567 303.269 451.567 298.966ZM259.253 163.354C305.557 165.549 324.395 199.914 340.585 232.858C348.731 249.437 356.183 265.607 366.084 277.683C375.914 289.672 388.065 297.505 405.634 297.505V300.427C386.988 300.427 374.068 292.028 363.825 279.536C353.654 267.131 346.033 250.569 337.962 234.147C321.718 201.091 303.546 168.379 259.114 166.272L259.253 163.354ZM259.184 166.274H210.234V163.352H259.184V166.274ZM405.634 297.505H459.358V300.427H405.634V297.505Z" fill="white"/>
<path opacity="0.8" d="M259.184 165.062V166.522H259.193L259.202 166.522L259.184 165.062ZM201.8 165.062L210.234 173.496L218.669 165.062L210.234 156.627L201.8 165.062ZM451.567 129.084C451.567 133.387 455.056 136.875 459.358 136.875C463.661 136.875 467.15 133.387 467.15 129.084C467.15 124.781 463.661 121.293 459.358 121.293C455.056 121.293 451.567 124.781 451.567 129.084ZM259.202 166.522C281.98 166.233 298.078 163.829 310.551 160.361C323.036 156.889 331.831 152.366 339.973 147.922C348.12 143.476 355.527 139.164 365.409 135.932C375.27 132.706 387.648 130.545 405.634 130.545V127.623C387.404 127.623 374.711 129.815 364.5 133.155C354.309 136.488 346.644 140.954 338.574 145.358C330.499 149.764 321.933 154.163 309.769 157.546C297.594 160.931 281.755 163.314 259.165 163.601L259.202 166.522ZM259.184 163.601H210.234V166.522H259.184V163.601ZM405.634 130.545H459.358V127.623H405.634V130.545Z" fill="white"/>
<path opacity="0.8" d="M259.184 165.061V166.522H259.217L259.25 166.52L259.184 165.061ZM201.8 165.061L210.234 173.495L218.669 165.061L210.234 156.627L201.8 165.061ZM451.567 37.2461C451.567 41.5491 455.056 45.0373 459.358 45.0373C463.661 45.0373 467.15 41.5491 467.15 37.2461C467.15 32.9431 463.661 29.4549 459.358 29.4549C455.056 29.4549 451.567 32.9431 451.567 37.2461ZM259.25 166.52C305.522 164.43 324.369 131.701 340.572 100.286C348.72 84.4877 356.167 69.0923 366.062 57.5937C375.881 46.1836 388.036 38.7069 405.634 38.7069V35.7852C387.016 35.7852 374.1 43.7731 363.847 55.6879C353.67 67.5141 346.044 83.3039 337.975 98.9468C321.745 130.415 303.58 161.593 259.118 163.602L259.25 166.52ZM259.184 163.6H210.234V166.522H259.184V163.6ZM405.634 38.7069H459.358V35.7852H405.634V38.7069Z" fill="white"/>
<path d="M517.784 290.814C509.687 272.054 533.356 257.045 547.059 273.304C557.647 264.549 567.613 268.927 572.596 277.056C603.116 266.426 611.213 315.831 575.71 313.954C571.35 323.336 560.761 321.46 557.647 319.582C550.796 334.453 531.487 330.841 528.373 318.332C508.441 323.336 504.704 295.819 517.784 290.814Z" fill="white"/>
<path d="M568.646 296.713C568.646 297.54 568.493 298.275 568.185 298.918C567.887 299.551 567.449 300.046 566.871 300.404C566.303 300.761 565.632 300.94 564.859 300.94C564.085 300.94 563.414 300.761 562.846 300.404C562.277 300.036 561.84 299.536 561.532 298.903C561.234 298.26 561.085 297.529 561.085 296.713C561.085 295.875 561.234 295.145 561.532 294.522C561.83 293.9 562.259 293.415 562.818 293.068C563.386 292.72 564.066 292.547 564.859 292.547C565.651 292.547 566.331 292.72 566.899 293.068C567.468 293.415 567.901 293.9 568.199 294.522C568.497 295.145 568.646 295.875 568.646 296.713ZM562.902 296.713C562.902 297.529 563.056 298.188 563.363 298.688C563.68 299.178 564.183 299.424 564.872 299.424C565.562 299.424 566.065 299.178 566.382 298.688C566.699 298.188 566.857 297.529 566.857 296.713C566.857 295.906 566.699 295.268 566.382 294.798C566.065 294.318 565.557 294.078 564.859 294.078C564.169 294.078 563.67 294.318 563.363 294.798C563.056 295.268 562.902 295.906 562.902 296.713Z" fill="#1694CB"/>
<path d="M570.364 294.584C570.364 294.196 570.322 293.588 570.238 292.761H571.915C571.98 293.19 572.018 293.558 572.027 293.864H572.055C572.484 292.986 573.201 292.547 574.207 292.547C574.375 292.547 574.524 292.567 574.655 292.608L574.585 294.262C574.445 294.231 574.268 294.216 574.054 294.216C573.439 294.216 572.959 294.436 572.614 294.875C572.279 295.314 572.111 295.87 572.111 296.544V300.725H570.364V294.584Z" fill="#1694CB"/>
<path d="M578.889 292.547C579.802 292.547 580.612 292.833 581.321 293.404L580.664 294.737C580.105 294.339 579.518 294.14 578.903 294.14C578.241 294.14 577.747 294.369 577.421 294.829C577.095 295.288 576.932 295.921 576.932 296.728C576.932 297.514 577.095 298.147 577.421 298.627C577.747 299.097 578.232 299.332 578.875 299.332C579.443 299.332 580.044 299.127 580.678 298.719L581.307 300.082C580.943 300.358 580.543 300.572 580.105 300.725C579.667 300.868 579.21 300.94 578.735 300.94C577.85 300.94 577.142 300.725 576.61 300.297C576.079 299.868 575.707 299.337 575.492 298.704C575.278 298.071 575.171 297.412 575.171 296.728C575.171 295.88 575.32 295.145 575.618 294.522C575.916 293.889 576.345 293.404 576.904 293.068C577.463 292.72 578.125 292.547 578.889 292.547Z" fill="#1694CB"/>
<path d="M588.966 297.448H583.907C583.981 298.081 584.186 298.571 584.522 298.918C584.866 299.255 585.337 299.424 585.933 299.424C586.343 299.424 586.702 299.367 587.01 299.255C587.326 299.133 587.662 298.949 588.016 298.704L588.771 299.929C588.351 300.266 587.899 300.521 587.415 300.695C586.94 300.858 586.409 300.94 585.822 300.94C585.057 300.94 584.401 300.766 583.851 300.419C583.301 300.072 582.877 299.582 582.579 298.949C582.29 298.316 582.146 297.581 582.146 296.743C582.146 295.477 582.448 294.461 583.054 293.695C583.669 292.93 584.536 292.547 585.654 292.547C586.753 292.547 587.587 292.925 588.156 293.68C588.724 294.436 589.008 295.452 589.008 296.728C589.008 296.973 588.994 297.213 588.966 297.448ZM587.289 296.008C587.27 295.416 587.121 294.931 586.842 294.553C586.572 294.175 586.171 293.986 585.64 293.986C585.099 293.986 584.68 294.18 584.382 294.568C584.093 294.946 583.93 295.426 583.893 296.008H587.289Z" fill="#1694CB"/>
<path d="M528.617 293.389L527.918 294.599C527.349 294.211 526.776 294.017 526.199 294.017C525.826 294.017 525.537 294.089 525.332 294.231C525.127 294.364 525.024 294.558 525.024 294.813C525.024 295.028 525.071 295.201 525.164 295.334C525.257 295.457 525.406 295.564 525.611 295.656C525.826 295.748 526.152 295.85 526.59 295.962C527.298 296.156 527.829 296.447 528.183 296.835C528.547 297.213 528.728 297.713 528.728 298.336C528.728 299.173 528.439 299.817 527.862 300.266C527.284 300.715 526.576 300.94 525.737 300.94C524.666 300.94 523.771 300.639 523.054 300.036L523.808 298.842C524.107 299.046 524.4 299.199 524.689 299.301C524.987 299.403 525.309 299.454 525.653 299.454C526.054 299.454 526.362 299.372 526.576 299.209C526.8 299.046 526.911 298.801 526.911 298.474C526.911 298.26 526.865 298.091 526.772 297.969C526.678 297.846 526.529 297.739 526.324 297.647C526.119 297.555 525.802 297.453 525.374 297.341C524.656 297.147 524.125 296.861 523.781 296.483C523.445 296.105 523.277 295.589 523.277 294.936C523.277 294.191 523.538 293.609 524.06 293.19C524.582 292.761 525.271 292.547 526.129 292.547C527.098 292.547 527.927 292.828 528.617 293.389Z" fill="#1694CB"/>
<path d="M529.706 298.489C529.706 297.448 530.041 296.723 530.712 296.314C531.392 295.906 532.366 295.702 533.633 295.702C533.941 295.702 534.174 295.707 534.332 295.717V295.319C534.332 294.461 533.834 294.032 532.837 294.032C532.119 294.032 531.416 294.237 530.726 294.645L530.139 293.374C530.53 293.119 530.973 292.919 531.467 292.777C531.961 292.623 532.45 292.547 532.934 292.547C534.043 292.547 534.845 292.822 535.339 293.374C535.832 293.915 536.079 294.747 536.079 295.87V298.903C536.079 299.291 536.121 299.898 536.205 300.725H534.598C534.533 300.307 534.491 300.006 534.472 299.822H534.43C534.169 300.2 533.857 300.48 533.494 300.664C533.13 300.848 532.65 300.94 532.054 300.94C531.383 300.94 530.824 300.73 530.377 300.312C529.929 299.883 529.706 299.275 529.706 298.489ZM534.346 297.647V297.004L533.815 296.988C532.995 296.988 532.408 297.096 532.054 297.31C531.7 297.514 531.523 297.861 531.523 298.351C531.523 298.699 531.616 298.969 531.802 299.163C531.989 299.347 532.24 299.439 532.557 299.439C532.902 299.439 533.209 299.357 533.48 299.194C533.75 299.02 533.959 298.801 534.109 298.535C534.267 298.26 534.346 297.963 534.346 297.647Z" fill="#1694CB"/>
<path d="M539.97 289.882V300.725H538.222V289.882H539.97Z" fill="#1694CB"/>
<path d="M548.513 297.448H543.453C543.527 298.081 543.732 298.571 544.068 298.918C544.413 299.255 544.883 299.424 545.48 299.424C545.89 299.424 546.248 299.367 546.556 299.255C546.873 299.133 547.208 298.949 547.562 298.704L548.317 299.929C547.898 300.266 547.446 300.521 546.961 300.695C546.486 300.858 545.955 300.94 545.368 300.94C544.604 300.94 543.947 300.766 543.397 300.419C542.847 300.072 542.423 299.582 542.125 298.949C541.836 298.316 541.692 297.581 541.692 296.743C541.692 295.477 541.995 294.461 542.6 293.695C543.215 292.93 544.082 292.547 545.2 292.547C546.3 292.547 547.134 292.925 547.702 293.68C548.27 294.436 548.555 295.452 548.555 296.728C548.555 296.973 548.541 297.213 548.513 297.448ZM546.835 296.008C546.817 295.416 546.668 294.931 546.388 294.553C546.118 294.175 545.717 293.986 545.186 293.986C544.646 293.986 544.226 294.18 543.928 294.568C543.639 294.946 543.476 295.426 543.439 296.008H546.835Z" fill="#1694CB"/>
<path d="M555.055 293.389L554.356 294.599C553.788 294.211 553.215 294.017 552.637 294.017C552.264 294.017 551.976 294.089 551.771 294.231C551.566 294.364 551.463 294.558 551.463 294.813C551.463 295.028 551.51 295.201 551.603 295.334C551.696 295.457 551.845 295.564 552.05 295.656C552.264 295.748 552.591 295.85 553.029 295.962C553.737 296.156 554.268 296.447 554.622 296.835C554.985 297.213 555.167 297.713 555.167 298.336C555.167 299.173 554.878 299.817 554.3 300.266C553.723 300.715 553.015 300.94 552.176 300.94C551.104 300.94 550.21 300.639 549.492 300.036L550.247 298.842C550.545 299.046 550.839 299.199 551.128 299.301C551.426 299.403 551.747 299.454 552.092 299.454C552.493 299.454 552.8 299.372 553.015 299.209C553.238 299.046 553.35 298.801 553.35 298.474C553.35 298.26 553.303 298.091 553.21 297.969C553.117 297.846 552.968 297.739 552.763 297.647C552.558 297.555 552.241 297.453 551.813 297.341C551.095 297.147 550.564 296.861 550.219 296.483C549.884 296.105 549.716 295.589 549.716 294.936C549.716 294.191 549.977 293.609 550.499 293.19C551.021 292.761 551.71 292.547 552.567 292.547C553.536 292.547 554.366 292.828 555.055 293.389Z" fill="#1694CB"/>
<path d="M554.809 302.136C555.322 301.942 555.699 301.666 555.941 301.309C556.193 300.962 556.37 300.441 556.472 299.747L557.437 294.1H556.263L556.472 292.706H557.632L557.688 292.262C557.819 291.384 558.108 290.71 558.555 290.241C559.012 289.771 559.664 289.536 560.512 289.536C561.117 289.536 561.648 289.633 562.105 289.827L561.602 291.129C561.322 291.037 561.052 290.991 560.791 290.991C559.953 290.991 559.477 291.44 559.366 292.339L559.31 292.706H561.001L560.791 294.1H559.128L558.164 299.731C558.052 300.487 557.879 301.105 557.646 301.584C557.423 302.075 557.12 302.473 556.738 302.779C556.356 303.085 555.857 303.341 555.242 303.545C554.627 303.749 554.032 303.545 554.032 303.545V302.136C554.032 302.136 554.297 302.33 554.809 302.136Z" fill="#1694CB"/>
<rect x="520.405" y="1.85254" width="66.9039" height="66.9039" rx="12.8661" fill="white"/>
<path d="M557.878 12.3521C561.948 14.7249 563.342 19.98 560.993 24.0897L543.367 54.9181C541.018 59.0278 535.814 60.4359 531.744 58.0631C527.674 55.6904 526.28 50.4353 528.63 46.3255L546.255 15.4972C548.605 11.3875 553.808 9.97937 557.878 12.3521Z" fill="#FBBC04"/>
<path d="M549.37 12.3518C553.439 9.97908 558.643 11.3872 560.993 15.4969L578.618 46.3253C580.968 50.435 579.574 55.6901 575.504 58.0628C571.434 60.4356 566.23 59.0275 563.881 54.9178L546.255 24.0894C543.906 19.9797 545.3 14.7246 549.37 12.3518Z" fill="#4285F4"/>
<path d="M531.746 58.0625C527.643 55.6703 526.221 50.3994 528.571 46.2896C530.921 42.1799 536.152 40.7876 540.255 43.1798C544.358 45.5721 545.779 50.843 543.43 54.9527C541.08 59.0624 535.849 60.4547 531.746 58.0625Z" fill="#34A853"/>
<g clip-path="url(#clip0_372_3920)">
<rect x="521.557" y="96.7344" width="64.9552" height="65.0407" rx="12.8661" fill="url(#paint0_linear_372_3920)"/>
<path d="M555.875 161.781H565.51V136.957H574.062L575.47 126.984H565.51C565.51 116.361 565.51 116.361 575.47 116.361V107.038C555.875 104.974 555.875 112.671 555.875 126.984H547.322V136.957H555.875V161.781Z" fill="white"/>
</g>
<circle cx="554.202" cy="196.193" r="5.14645" fill="white"/>
<circle cx="554.202" cy="214.206" r="5.14645" fill="white"/>
<circle cx="554.202" cy="231.36" r="5.14645" fill="white"/>
<g clip-path="url(#clip1_372_3920)">
<path d="M11.3515 172.1H5.78364L5.01752 174.711H0.0215807L5.96707 158.892H11.2975L17.243 174.711H12.1284L11.3515 172.1ZM10.3264 168.679L8.57834 162.993L6.84109 168.679H10.3264ZM18.8508 158.892H23.4151L29.3714 167.643V158.892H33.9789V174.711H29.3714L23.4475 166.025V174.711H18.8508V158.892ZM45.1793 168.981V165.69H52.7325V172.434C51.2866 173.42 50.0061 174.092 48.8911 174.452C47.7833 174.804 46.4669 174.981 44.9419 174.981C43.0643 174.981 41.5321 174.661 40.3452 174.02C39.1654 173.38 38.2482 172.427 37.5936 171.161C36.9462 169.895 36.6225 168.442 36.6225 166.802C36.6225 165.075 36.9786 163.575 37.6907 162.302C38.4029 161.022 39.446 160.05 40.8199 159.389C41.8918 158.878 43.3341 158.623 45.1469 158.623C46.8949 158.623 48.2006 158.781 49.0638 159.097C49.9342 159.414 50.6536 159.907 51.2219 160.576C51.7973 161.237 52.229 162.079 52.5167 163.101L47.8013 163.942C47.6071 163.345 47.2762 162.888 46.8086 162.572C46.3482 162.255 45.7583 162.097 45.039 162.097C43.9671 162.097 43.1111 162.471 42.4709 163.219C41.8378 163.96 41.5213 165.136 41.5213 166.748C41.5213 168.46 41.8414 169.683 42.4817 170.416C43.1291 171.15 44.0283 171.517 45.1793 171.517C45.726 171.517 46.2475 171.438 46.7439 171.28C47.2402 171.121 47.8085 170.852 48.4487 170.47V168.981H45.1793ZM55.6243 158.892H68.7238V162.27H60.5232V164.784H68.1304V168.01H60.5232V171.129H68.9612V174.711H55.6243V158.892ZM71.6049 158.892H76.4929V170.816H84.1217V174.711H71.6049V158.892ZM84.7475 158.892H90.1751L93.369 164.233L96.563 158.892H101.958L95.8076 168.086V174.711H90.9088V168.086L84.7475 158.892ZM102.433 158.892H117.291V162.798H112.306V174.711H107.418V162.798H102.433V158.892ZM119.708 158.892H124.607V174.711H119.708V158.892ZM138.656 168.248L142.94 169.542C142.652 170.744 142.199 171.747 141.58 172.553C140.962 173.359 140.192 173.966 139.271 174.376C138.358 174.786 137.192 174.991 135.775 174.991C134.056 174.991 132.65 174.743 131.556 174.247C130.47 173.743 129.531 172.862 128.74 171.603C127.949 170.344 127.553 168.733 127.553 166.769C127.553 164.151 128.247 162.14 129.635 160.737C131.031 159.327 133.002 158.623 135.549 158.623C137.541 158.623 139.106 159.025 140.242 159.831C141.386 160.637 142.235 161.874 142.789 163.543L138.473 164.503C138.322 164.021 138.163 163.669 137.998 163.446C137.725 163.072 137.39 162.784 136.994 162.583C136.599 162.381 136.156 162.28 135.667 162.28C134.559 162.28 133.711 162.726 133.121 163.618C132.675 164.28 132.452 165.32 132.452 166.737C132.452 168.492 132.718 169.697 133.25 170.352C133.783 170.999 134.531 171.323 135.495 171.323C136.43 171.323 137.135 171.06 137.61 170.535C138.091 170.01 138.44 169.247 138.656 168.248ZM144.472 169.478L149.123 169.186C149.224 169.942 149.429 170.517 149.738 170.913C150.241 171.553 150.961 171.873 151.896 171.873C152.594 171.873 153.13 171.711 153.504 171.388C153.885 171.057 154.076 170.675 154.076 170.244C154.076 169.834 153.896 169.467 153.536 169.143C153.176 168.819 152.342 168.514 151.033 168.226C148.889 167.744 147.36 167.104 146.447 166.305C145.526 165.507 145.066 164.489 145.066 163.252C145.066 162.439 145.299 161.673 145.767 160.953C146.242 160.227 146.95 159.658 147.893 159.248C148.842 158.831 150.141 158.623 151.788 158.623C153.809 158.623 155.349 159 156.406 159.755C157.471 160.504 158.104 161.698 158.305 163.338L153.698 163.608C153.576 162.895 153.317 162.378 152.921 162.054C152.533 161.73 151.993 161.568 151.302 161.568C150.734 161.568 150.306 161.691 150.018 161.935C149.731 162.173 149.587 162.464 149.587 162.809C149.587 163.061 149.706 163.288 149.943 163.489C150.173 163.698 150.72 163.892 151.583 164.072C153.72 164.532 155.248 165 156.169 165.474C157.097 165.942 157.77 166.525 158.187 167.222C158.611 167.92 158.823 168.701 158.823 169.564C158.823 170.578 158.543 171.513 157.982 172.369C157.421 173.225 156.637 173.876 155.629 174.322C154.622 174.761 153.353 174.981 151.82 174.981C149.13 174.981 147.267 174.463 146.231 173.427C145.195 172.391 144.609 171.075 144.472 169.478Z" fill="white"/>
<ellipse cx="122.692" cy="154.029" rx="2.51454" ry="2.51455" fill="white"/>
<path d="M65.5521 126.542C24.6257 127.547 14.8276 159.231 14.8276 159.231L12.92 155.59H7.19727C7.19727 155.59 23.325 122.64 65.5521 121.687C107.779 120.733 121.826 149.087 121.826 149.087C121.826 149.087 120.381 148.913 119.225 149.78C118.068 150.647 117.837 151.688 117.837 151.688C117.837 151.688 106.478 125.537 65.5521 126.542Z" fill="white"/>
</g>
<defs>
<linearGradient id="paint0_linear_372_3920" x1="554.034" y1="96.7344" x2="554.034" y2="161.775" gradientUnits="userSpaceOnUse">
<stop stop-color="#4E78BA"/>
<stop offset="1" stop-color="#395185"/>
</linearGradient>
<clipPath id="clip0_372_3920">
<rect x="521.557" y="96.7344" width="64.9552" height="65.0407" rx="12.8661" fill="white"/>
</clipPath>
<clipPath id="clip1_372_3920">
<rect width="159.544" height="53.7593" fill="white" transform="translate(0 121.687)"/>
</clipPath>
</defs>
</svg>
