<svg width="661" height="331" viewBox="0 0 661 331" fill="none" xmlns="http://www.w3.org/2000/svg">
<g filter="url(#filter0_d_264_3350)">
<rect x="38.5518" y="30.4004" width="583.732" height="269.886" rx="19.2571" fill="#F2F2F2"/>
<path d="M54.8992 59.651H57.1136V51.6961L54.462 52.9725V51.6044L57.0995 50.3491H58.524V59.651H60.7102V60.8428H54.8992V59.651ZM86.3104 54.0656L80.3161 56.3223L86.3104 58.5579V59.8484L78.8563 56.9006V55.7299L86.3104 52.7821V54.0656ZM94.061 55.9486V60.8428H92.7564V55.9486C92.7564 55.2386 92.6318 54.7168 92.3826 54.383C92.1335 54.0492 91.7432 53.8823 91.212 53.8823C90.6055 53.8823 90.1377 54.0985 89.8086 54.5311C89.4842 54.9589 89.322 55.5748 89.322 56.3787V60.8428H88.0244V49.8696H89.322V54.1291C89.5524 53.6778 89.865 53.3369 90.2599 53.1065C90.6548 52.8715 91.1226 52.7539 91.6633 52.7539C92.4673 52.7539 93.0667 53.0196 93.4616 53.5508C93.8612 54.0774 94.061 54.8766 94.061 55.9486ZM99.3928 50.7017V52.9443H102.341V53.9528H99.3928V58.2405C99.3928 58.8235 99.5033 59.2302 99.7242 59.4605C99.9452 59.6909 100.331 59.8061 100.881 59.8061H102.341V60.8428H100.754C99.7806 60.8428 99.0942 60.6477 98.6946 60.2574C98.295 59.8672 98.0952 59.1949 98.0952 58.2405V53.9528H95.9866V52.9443H98.0952V50.7017H99.3928ZM108.244 53.7483C108.403 53.4098 108.606 53.1606 108.85 53.0008C109.099 52.8362 109.398 52.7539 109.746 52.7539C110.38 52.7539 110.827 53.0008 111.086 53.4944C111.349 53.9834 111.48 54.9072 111.48 56.2659V60.8428H110.296V56.3223C110.296 55.2081 110.232 54.517 110.105 54.249C109.983 53.9763 109.757 53.84 109.428 53.84C109.052 53.84 108.794 53.9857 108.653 54.2772C108.516 54.564 108.448 55.2457 108.448 56.3223V60.8428H107.263V56.3223C107.263 55.194 107.195 54.4982 107.059 54.2349C106.927 53.9716 106.687 53.84 106.339 53.84C105.996 53.84 105.756 53.9857 105.62 54.2772C105.488 54.564 105.423 55.2457 105.423 56.3223V60.8428H104.245V52.9443H105.423V53.6213C105.578 53.3393 105.771 53.1253 106.001 52.9796C106.236 52.8292 106.502 52.7539 106.798 52.7539C107.155 52.7539 107.451 52.8362 107.686 53.0008C107.926 53.1653 108.112 53.4145 108.244 53.7483ZM116.96 57.9866C116.96 58.5696 117.066 59.0092 117.278 59.3054C117.494 59.6016 117.811 59.7497 118.23 59.7497H119.746V60.8428H118.103C117.327 60.8428 116.725 60.5959 116.297 60.1023C115.874 59.6039 115.663 58.8987 115.663 57.9866V50.8428H113.582V49.8273H116.96V57.9866ZM120.924 54.0656V52.7821L128.378 55.7299V56.9006L120.924 59.8484V58.5579L126.918 56.3223L120.924 54.0656ZM55.6256 82.6439H60.4634V83.8428H54.067V82.6439C54.9462 81.7177 55.7149 80.8997 56.3731 80.1897C57.0313 79.4798 57.485 78.9791 57.7342 78.6876C58.2043 78.1141 58.5217 77.651 58.6862 77.2984C58.8508 76.941 58.933 76.5767 58.933 76.2053C58.933 75.6176 58.7591 75.1568 58.4112 74.823C58.068 74.4892 57.5955 74.3223 56.9937 74.3223C56.5659 74.3223 56.1169 74.3999 55.6467 74.5551C55.1766 74.7102 54.6782 74.9453 54.1517 75.2603V73.8216C54.6359 73.5913 55.1108 73.4173 55.5762 73.2998C56.0464 73.1822 56.5095 73.1235 56.9655 73.1235C57.9951 73.1235 58.8226 73.3985 59.4479 73.9486C60.0778 74.4939 60.3928 75.2109 60.3928 76.0995C60.3928 76.5508 60.2871 77.0022 60.0755 77.4535C59.8686 77.9048 59.5301 78.4032 59.06 78.9486C58.7967 79.2542 58.4135 79.6773 57.9105 80.218C57.4121 80.7586 56.6505 81.5673 55.6256 82.6439ZM103.137 77.0656L97.1431 79.3223L103.137 81.5579V82.8484L95.6833 79.9006V78.7299L103.137 75.7821V77.0656ZM110.888 78.9486V83.8428H109.583V78.9486C109.583 78.2386 109.459 77.7168 109.21 77.383C108.961 77.0492 108.57 76.8823 108.039 76.8823C107.433 76.8823 106.965 77.0985 106.636 77.5311C106.311 77.9589 106.149 78.5748 106.149 79.3787V83.8428H104.851V72.8696H106.149V77.1291C106.379 76.6778 106.692 76.3369 107.087 76.1065C107.482 75.8715 107.95 75.7539 108.49 75.7539C109.294 75.7539 109.894 76.0196 110.289 76.5508C110.688 77.0774 110.888 77.8766 110.888 78.9486ZM119.788 79.2448V79.8795H114.168V79.9218C114.13 80.9984 114.335 81.7718 114.781 82.2419C115.233 82.7121 115.867 82.9471 116.685 82.9471C117.099 82.9471 117.532 82.8813 117.983 82.7497C118.434 82.618 118.916 82.4182 119.429 82.1503V83.4408C118.935 83.643 118.458 83.7934 117.997 83.8921C117.541 83.9956 117.099 84.0473 116.671 84.0473C115.444 84.0473 114.485 83.6806 113.794 82.9471C113.103 82.209 112.757 81.1935 112.757 79.9006C112.757 78.6406 113.096 77.6345 113.773 76.8823C114.45 76.13 115.352 75.7539 116.481 75.7539C117.487 75.7539 118.279 76.0948 118.857 76.7765C119.44 77.4582 119.751 78.281 119.788 79.2448ZM118.491 78.8639C118.434 78.3186 118.234 77.8484 117.891 77.4535C117.553 77.0539 117.064 76.8541 116.424 76.8541C115.799 76.8541 115.284 77.0609 114.88 77.4747C114.476 77.8884 114.255 78.3538 114.217 78.871L118.491 78.8639ZM125.254 79.8724H124.824C124.067 79.8724 123.496 80.0064 123.11 80.2744C122.729 80.5377 122.539 80.9326 122.539 81.4591C122.539 81.934 122.682 82.303 122.969 82.5663C123.256 82.8296 123.653 82.9613 124.161 82.9613C124.875 82.9613 125.437 82.7144 125.846 82.2208C126.255 81.7224 126.462 81.036 126.467 80.1615V79.8724H125.254ZM127.772 79.3364V83.8428H126.467V82.6721C126.19 83.1423 125.839 83.4902 125.416 83.7158C124.998 83.9368 124.488 84.0473 123.886 84.0473C123.082 84.0473 122.44 83.8216 121.961 83.3703C121.481 82.9142 121.241 82.3054 121.241 81.5438C121.241 80.6646 121.535 79.997 122.123 79.5409C122.715 79.0849 123.583 78.8569 124.725 78.8569H126.467V78.6524C126.462 78.0224 126.302 77.5663 125.987 77.2843C125.672 76.9975 125.169 76.8541 124.478 76.8541C124.036 76.8541 123.59 76.9175 123.138 77.0445C122.687 77.1714 122.247 77.3571 121.82 77.6016V76.304C122.299 76.1206 122.757 75.9843 123.195 75.895C123.637 75.8009 124.064 75.7539 124.478 75.7539C125.132 75.7539 125.689 75.8503 126.15 76.0431C126.615 76.2358 126.991 76.525 127.278 76.9105C127.457 77.1456 127.583 77.437 127.659 77.785C127.734 78.1282 127.772 78.6453 127.772 79.3364ZM134.768 76.9528V72.8696H136.065V83.8428H134.768V82.8484C134.551 83.2386 134.262 83.5372 133.9 83.744C133.543 83.9462 133.129 84.0473 132.659 84.0473C131.705 84.0473 130.952 83.6782 130.402 82.9401C129.857 82.1973 129.584 81.1747 129.584 79.8724C129.584 78.5889 129.859 77.5828 130.409 76.8541C130.959 76.1206 131.709 75.7539 132.659 75.7539C133.134 75.7539 133.552 75.8574 133.914 76.0642C134.276 76.2664 134.561 76.5626 134.768 76.9528ZM130.952 79.9006C130.952 80.9067 131.112 81.666 131.432 82.1785C131.752 82.6909 132.224 82.9471 132.849 82.9471C133.475 82.9471 133.95 82.6886 134.274 82.1714C134.603 81.6542 134.768 80.8973 134.768 79.9006C134.768 78.8992 134.603 78.1423 134.274 77.6298C133.95 77.1126 133.475 76.8541 132.849 76.8541C132.224 76.8541 131.752 77.1103 131.432 77.6228C131.112 78.1352 130.952 78.8945 130.952 79.9006ZM137.751 77.0656V75.7821L145.205 78.7299V79.9006L137.751 82.8484V81.5579L143.745 79.3223L137.751 77.0656ZM58.1785 154.611L54.8569 160.176H58.1785V154.611ZM57.9457 153.314H59.596V160.176H60.9993V161.332H59.596V163.843H58.1785V161.332H53.7144V159.985L57.9457 153.314ZM119.965 157.066L113.97 159.322L119.965 161.558V162.848L112.51 159.901V158.73L119.965 155.782V157.066ZM124.154 153.314H125.585V157.933L125.437 160.098H124.302L124.154 157.933V153.314ZM123.942 162.052H125.797V163.843H123.942V162.052ZM129.436 158.737H136.911V159.929H129.436V158.737ZM137.85 158.737H145.325V159.929H137.85V158.737ZM156.771 154.485V158.441H158.421C159.08 158.441 159.592 158.267 159.959 157.919C160.33 157.571 160.516 157.084 160.516 156.459C160.516 155.834 160.333 155.35 159.966 155.006C159.599 154.658 159.084 154.485 158.421 154.485H156.771ZM155.347 153.314H158.421C159.597 153.314 160.488 153.582 161.094 154.118C161.701 154.649 162.004 155.43 162.004 156.459C162.004 157.498 161.701 158.283 161.094 158.815C160.492 159.346 159.601 159.611 158.421 159.611H156.771V163.843H155.347V153.314ZM164.599 155.973H167.921V162.834H170.495V163.843H164.049V162.834H166.623V156.981H164.599V155.973ZM166.623 152.905H167.921V154.541H166.623V152.905ZM178.669 155.944L175.841 159.724L178.944 163.843H177.442L175.129 160.676L172.823 163.843H171.32L174.423 159.724L171.595 155.944H173.034L175.129 158.8L177.209 155.944H178.669ZM187.096 159.245V159.879H181.476V159.922C181.438 160.998 181.643 161.772 182.089 162.242C182.541 162.712 183.175 162.947 183.993 162.947C184.407 162.947 184.84 162.881 185.291 162.75C185.742 162.618 186.224 162.418 186.737 162.15V163.441C186.243 163.643 185.766 163.793 185.305 163.892C184.849 163.996 184.407 164.047 183.979 164.047C182.752 164.047 181.793 163.681 181.102 162.947C180.411 162.209 180.065 161.194 180.065 159.901C180.065 158.641 180.404 157.635 181.081 156.882C181.758 156.13 182.661 155.754 183.789 155.754C184.795 155.754 185.587 156.095 186.166 156.776C186.749 157.458 187.059 158.281 187.096 159.245ZM185.799 158.864C185.742 158.319 185.543 157.848 185.199 157.454C184.861 157.054 184.372 156.854 183.733 156.854C183.107 156.854 182.592 157.061 182.188 157.475C181.784 157.888 181.563 158.354 181.525 158.871L185.799 158.864ZM192.682 160.987C192.682 161.57 192.788 162.009 192.999 162.305C193.216 162.602 193.533 162.75 193.951 162.75H195.468V163.843H193.824C193.049 163.843 192.447 163.596 192.019 163.102C191.596 162.604 191.384 161.899 191.384 160.987V153.843H189.304V152.827H192.682V160.987ZM210.708 153.314H212.048L206.505 165.183H205.158L210.708 153.314ZM229.051 162.975C228.67 163.328 228.24 163.596 227.761 163.779C227.286 163.958 226.771 164.047 226.216 164.047C224.881 164.047 223.842 163.57 223.099 162.616C222.356 161.657 221.985 160.314 221.985 158.589C221.985 156.868 222.361 155.528 223.113 154.569C223.865 153.605 224.912 153.123 226.251 153.123C226.693 153.123 227.117 153.187 227.521 153.314C227.925 153.436 228.315 153.624 228.692 153.878V155.338C228.311 154.976 227.92 154.71 227.521 154.541C227.121 154.367 226.698 154.28 226.251 154.28C225.325 154.28 224.629 154.64 224.164 155.359C223.703 156.074 223.473 157.15 223.473 158.589C223.473 160.051 223.696 161.135 224.143 161.84C224.594 162.54 225.285 162.891 226.216 162.891C226.531 162.891 226.806 162.855 227.041 162.785C227.281 162.71 227.497 162.595 227.69 162.439V159.611H226.16V158.441H229.051V162.975ZM234.023 156.854C233.365 156.854 232.867 157.11 232.528 157.623C232.19 158.135 232.02 158.894 232.02 159.901C232.02 160.902 232.19 161.661 232.528 162.178C232.867 162.691 233.365 162.947 234.023 162.947C234.686 162.947 235.187 162.691 235.525 162.178C235.864 161.661 236.033 160.902 236.033 159.901C236.033 158.894 235.864 158.135 235.525 157.623C235.187 157.11 234.686 156.854 234.023 156.854ZM234.023 155.754C235.119 155.754 235.956 156.109 236.534 156.819C237.117 157.529 237.408 158.556 237.408 159.901C237.408 161.25 237.119 162.28 236.541 162.989C235.963 163.695 235.123 164.047 234.023 164.047C232.928 164.047 232.091 163.695 231.513 162.989C230.934 162.28 230.645 161.25 230.645 159.901C230.645 158.556 230.934 157.529 231.513 156.819C232.091 156.109 232.928 155.754 234.023 155.754ZM242.437 156.854C241.779 156.854 241.28 157.11 240.942 157.623C240.603 158.135 240.434 158.894 240.434 159.901C240.434 160.902 240.603 161.661 240.942 162.178C241.28 162.691 241.779 162.947 242.437 162.947C243.1 162.947 243.6 162.691 243.939 162.178C244.277 161.661 244.447 160.902 244.447 159.901C244.447 158.894 244.277 158.135 243.939 157.623C243.6 157.11 243.1 156.854 242.437 156.854ZM242.437 155.754C243.532 155.754 244.369 156.109 244.947 156.819C245.53 157.529 245.822 158.556 245.822 159.901C245.822 161.25 245.533 162.28 244.954 162.989C244.376 163.695 243.537 164.047 242.437 164.047C241.341 164.047 240.504 163.695 239.926 162.989C239.348 162.28 239.059 161.25 239.059 159.901C239.059 158.556 239.348 157.529 239.926 156.819C240.504 156.109 241.341 155.754 242.437 155.754ZM252.557 159.83C252.557 158.857 252.397 158.119 252.077 157.616C251.762 157.108 251.302 156.854 250.695 156.854C250.06 156.854 249.576 157.108 249.242 157.616C248.909 158.119 248.742 158.857 248.742 159.83C248.742 160.803 248.909 161.546 249.242 162.059C249.581 162.566 250.07 162.82 250.709 162.82C251.306 162.82 251.762 162.564 252.077 162.052C252.397 161.539 252.557 160.799 252.557 159.83ZM253.855 163.335C253.855 164.52 253.575 165.418 253.015 166.029C252.456 166.64 251.633 166.946 250.547 166.946C250.19 166.946 249.816 166.913 249.426 166.847C249.036 166.781 248.645 166.685 248.255 166.558V165.274C248.716 165.491 249.134 165.65 249.51 165.754C249.887 165.857 250.232 165.909 250.547 165.909C251.248 165.909 251.758 165.719 252.077 165.338C252.397 164.957 252.557 164.353 252.557 163.525V163.469V162.587C252.35 163.029 252.068 163.359 251.711 163.575C251.353 163.791 250.918 163.899 250.406 163.899C249.485 163.899 248.749 163.53 248.199 162.792C247.649 162.054 247.374 161.067 247.374 159.83C247.374 158.589 247.649 157.599 248.199 156.861C248.749 156.123 249.485 155.754 250.406 155.754C250.914 155.754 251.344 155.855 251.697 156.057C252.049 156.259 252.336 156.572 252.557 156.995V155.973H253.855V163.335ZM259.99 160.987C259.99 161.57 260.096 162.009 260.308 162.305C260.524 162.602 260.841 162.75 261.26 162.75H262.776V163.843H261.133C260.357 163.843 259.755 163.596 259.327 163.102C258.904 162.604 258.693 161.899 258.693 160.987V153.843H256.612V152.827H259.99V160.987ZM271.232 159.245V159.879H265.611V159.922C265.573 160.998 265.778 161.772 266.225 162.242C266.676 162.712 267.311 162.947 268.129 162.947C268.542 162.947 268.975 162.881 269.426 162.75C269.878 162.618 270.36 162.418 270.872 162.15V163.441C270.378 163.643 269.901 163.793 269.44 163.892C268.984 163.996 268.542 164.047 268.115 164.047C266.888 164.047 265.928 163.681 265.237 162.947C264.546 162.209 264.201 161.194 264.201 159.901C264.201 158.641 264.539 157.635 265.216 156.882C265.893 156.13 266.796 155.754 267.924 155.754C268.93 155.754 269.722 156.095 270.301 156.776C270.884 157.458 271.194 158.281 271.232 159.245ZM269.934 158.864C269.878 158.319 269.678 157.848 269.335 157.454C268.996 157.054 268.507 156.854 267.868 156.854C267.242 156.854 266.728 157.061 266.323 157.475C265.919 157.888 265.698 158.354 265.66 158.871L269.934 158.864ZM284.504 154.569L283.002 159.957H286.007L284.504 154.569ZM283.644 153.314H285.372L288.595 163.843H287.121L286.345 161.099H282.657L281.895 163.843H280.421L283.644 153.314ZM295.986 158.949V163.843H294.681V158.949C294.681 158.239 294.556 157.717 294.307 157.383C294.058 157.049 293.668 156.882 293.137 156.882C292.53 156.882 292.062 157.099 291.733 157.531C291.409 157.959 291.247 158.575 291.247 159.379V163.843H289.949V155.944H291.247V157.129C291.477 156.678 291.79 156.337 292.185 156.107C292.579 155.871 293.047 155.754 293.588 155.754C294.392 155.754 294.991 156.02 295.386 156.551C295.786 157.077 295.986 157.877 295.986 158.949ZM301.938 159.872H301.508C300.751 159.872 300.18 160.006 299.794 160.274C299.413 160.538 299.223 160.933 299.223 161.459C299.223 161.934 299.366 162.303 299.653 162.566C299.94 162.83 300.337 162.961 300.845 162.961C301.559 162.961 302.121 162.714 302.53 162.221C302.939 161.722 303.146 161.036 303.151 160.162V159.872H301.938ZM304.456 159.336V163.843H303.151V162.672C302.874 163.142 302.523 163.49 302.1 163.716C301.682 163.937 301.172 164.047 300.57 164.047C299.766 164.047 299.124 163.822 298.645 163.37C298.165 162.914 297.925 162.305 297.925 161.544C297.925 160.665 298.219 159.997 298.807 159.541C299.399 159.085 300.267 158.857 301.409 158.857H303.151V158.652C303.146 158.022 302.986 157.566 302.671 157.284C302.356 156.997 301.853 156.854 301.162 156.854C300.72 156.854 300.274 156.918 299.822 157.044C299.371 157.171 298.931 157.357 298.504 157.602V156.304C298.983 156.121 299.441 155.984 299.879 155.895C300.321 155.801 300.748 155.754 301.162 155.754C301.816 155.754 302.373 155.85 302.834 156.043C303.299 156.236 303.675 156.525 303.962 156.91C304.141 157.146 304.268 157.437 304.343 157.785C304.418 158.128 304.456 158.645 304.456 159.336ZM310.471 160.987C310.471 161.57 310.577 162.009 310.789 162.305C311.005 162.602 311.322 162.75 311.741 162.75H313.257V163.843H311.614C310.838 163.843 310.236 163.596 309.808 163.102C309.385 162.604 309.174 161.899 309.174 160.987V153.843H307.093V152.827H310.471V160.987ZM319.865 161.304C319.649 161.854 319.374 162.578 319.04 163.476C318.575 164.717 318.262 165.474 318.102 165.747C317.886 166.114 317.615 166.389 317.291 166.572C316.967 166.755 316.588 166.847 316.156 166.847H315.112V165.761H315.881C316.261 165.761 316.56 165.65 316.776 165.43C316.993 165.209 317.268 164.637 317.601 163.716L314.548 155.944H315.923L318.264 162.122L320.57 155.944H321.946L319.865 161.304ZM326.558 153.702V155.944H329.506V156.953H326.558V161.241C326.558 161.824 326.668 162.23 326.889 162.461C327.11 162.691 327.496 162.806 328.046 162.806H329.506V163.843H327.919C326.946 163.843 326.259 163.648 325.86 163.257C325.46 162.867 325.26 162.195 325.26 161.241V156.953H323.152V155.944H325.26V153.702H326.558ZM332.87 155.973H336.191V162.834H338.766V163.843H332.32V162.834H334.894V156.981H332.87V155.973ZM334.894 152.905H336.191V154.541H334.894V152.905ZM346.537 163.441C346.189 163.643 345.83 163.793 345.458 163.892C345.092 163.996 344.715 164.047 344.33 164.047C343.108 164.047 342.151 163.681 341.46 162.947C340.773 162.214 340.43 161.198 340.43 159.901C340.43 158.603 340.773 157.587 341.46 156.854C342.151 156.121 343.108 155.754 344.33 155.754C344.711 155.754 345.082 155.803 345.444 155.902C345.806 156.001 346.171 156.154 346.537 156.36V157.721C346.194 157.416 345.849 157.195 345.501 157.059C345.157 156.922 344.767 156.854 344.33 156.854C343.517 156.854 342.891 157.117 342.454 157.644C342.017 158.17 341.798 158.923 341.798 159.901C341.798 160.874 342.017 161.626 342.454 162.157C342.896 162.684 343.521 162.947 344.33 162.947C344.781 162.947 345.186 162.879 345.543 162.743C345.9 162.602 346.232 162.385 346.537 162.094V163.441ZM354.33 156.219V157.489C353.959 157.272 353.585 157.11 353.209 157.002C352.833 156.894 352.45 156.84 352.059 156.84C351.472 156.84 351.032 156.936 350.741 157.129C350.454 157.317 350.311 157.606 350.311 157.997C350.311 158.349 350.419 158.612 350.635 158.786C350.851 158.96 351.389 159.13 352.25 159.294L352.772 159.393C353.416 159.515 353.902 159.76 354.232 160.126C354.565 160.493 354.732 160.97 354.732 161.558C354.732 162.338 354.455 162.949 353.9 163.391C353.345 163.829 352.574 164.047 351.587 164.047C351.197 164.047 350.788 164.005 350.36 163.92C349.932 163.84 349.469 163.718 348.971 163.554V162.214C349.455 162.463 349.918 162.651 350.36 162.778C350.802 162.9 351.22 162.961 351.615 162.961C352.189 162.961 352.633 162.846 352.948 162.616C353.263 162.381 353.421 162.054 353.421 161.635C353.421 161.034 352.845 160.618 351.693 160.387L351.636 160.373L351.15 160.274C350.402 160.129 349.857 159.884 349.514 159.541C349.17 159.193 348.999 158.721 348.999 158.123C348.999 157.367 349.255 156.784 349.767 156.375C350.28 155.961 351.011 155.754 351.961 155.754C352.384 155.754 352.791 155.794 353.181 155.874C353.571 155.949 353.954 156.064 354.33 156.219ZM371.862 163.469C371.5 163.662 371.129 163.805 370.748 163.899C370.367 163.998 369.963 164.047 369.535 164.047C368.186 164.047 367.138 163.57 366.39 162.616C365.647 161.661 365.276 160.319 365.276 158.589C365.276 156.868 365.65 155.528 366.397 154.569C367.149 153.605 368.195 153.123 369.535 153.123C369.963 153.123 370.367 153.173 370.748 153.272C371.129 153.366 371.5 153.509 371.862 153.702V155.162C371.515 154.875 371.141 154.656 370.741 154.506C370.342 154.355 369.94 154.28 369.535 154.28C368.609 154.28 367.916 154.637 367.455 155.352C366.994 156.067 366.764 157.146 366.764 158.589C366.764 160.028 366.994 161.104 367.455 161.819C367.916 162.533 368.609 162.891 369.535 162.891C369.949 162.891 370.353 162.816 370.748 162.665C371.148 162.515 371.519 162.296 371.862 162.009V163.469ZM377.053 156.854C376.395 156.854 375.897 157.11 375.558 157.623C375.22 158.135 375.05 158.894 375.05 159.901C375.05 160.902 375.22 161.661 375.558 162.178C375.897 162.691 376.395 162.947 377.053 162.947C377.716 162.947 378.217 162.691 378.555 162.178C378.894 161.661 379.063 160.902 379.063 159.901C379.063 158.894 378.894 158.135 378.555 157.623C378.217 157.11 377.716 156.854 377.053 156.854ZM377.053 155.754C378.149 155.754 378.985 156.109 379.564 156.819C380.147 157.529 380.438 158.556 380.438 159.901C380.438 161.25 380.149 162.28 379.571 162.989C378.993 163.695 378.153 164.047 377.053 164.047C375.958 164.047 375.121 163.695 374.543 162.989C373.964 162.28 373.675 161.25 373.675 159.901C373.675 158.556 373.964 157.529 374.543 156.819C375.121 156.109 375.958 155.754 377.053 155.754ZM387.173 156.953V152.87H388.471V163.843H387.173V162.848C386.957 163.239 386.668 163.537 386.306 163.744C385.949 163.946 385.535 164.047 385.065 164.047C384.11 164.047 383.358 163.678 382.808 162.94C382.263 162.197 381.99 161.175 381.99 159.872C381.99 158.589 382.265 157.583 382.815 156.854C383.365 156.121 384.115 155.754 385.065 155.754C385.54 155.754 385.958 155.857 386.32 156.064C386.682 156.266 386.966 156.563 387.173 156.953ZM383.358 159.901C383.358 160.907 383.518 161.666 383.838 162.178C384.157 162.691 384.63 162.947 385.255 162.947C385.88 162.947 386.355 162.689 386.68 162.171C387.009 161.654 387.173 160.897 387.173 159.901C387.173 158.899 387.009 158.142 386.68 157.63C386.355 157.113 385.88 156.854 385.255 156.854C384.63 156.854 384.157 157.11 383.838 157.623C383.518 158.135 383.358 158.894 383.358 159.901ZM397.435 159.245V159.879H391.814V159.922C391.776 160.998 391.981 161.772 392.427 162.242C392.879 162.712 393.513 162.947 394.332 162.947C394.745 162.947 395.178 162.881 395.629 162.75C396.08 162.618 396.562 162.418 397.075 162.15V163.441C396.581 163.643 396.104 163.793 395.643 163.892C395.187 163.996 394.745 164.047 394.317 164.047C393.09 164.047 392.131 163.681 391.44 162.947C390.749 162.209 390.403 161.194 390.403 159.901C390.403 158.641 390.742 157.635 391.419 156.882C392.096 156.13 392.999 155.754 394.127 155.754C395.133 155.754 395.925 156.095 396.504 156.776C397.087 157.458 397.397 158.281 397.435 159.245ZM396.137 158.864C396.08 158.319 395.881 157.848 395.537 157.454C395.199 157.054 394.71 156.854 394.071 156.854C393.445 156.854 392.931 157.061 392.526 157.475C392.122 157.888 391.901 158.354 391.863 158.871L396.137 158.864ZM407.082 158.737H414.558V159.929H407.082V158.737ZM415.496 158.737H422.971V159.929H415.496V158.737ZM432.224 157.066V155.782L439.678 158.73V159.901L432.224 162.848V161.558L438.219 159.322L432.224 157.066ZM54.4549 177.314H59.7864V178.513H55.7525V181.101C55.9547 181.026 56.1568 180.972 56.359 180.939C56.5659 180.901 56.7727 180.882 56.9796 180.882C58.0703 180.882 58.9354 181.204 59.5748 181.848C60.2142 182.493 60.5339 183.365 60.5339 184.465C60.5339 185.574 60.1977 186.449 59.5254 187.088C58.8578 187.728 57.9434 188.047 56.7821 188.047C56.2227 188.047 55.7102 188.01 55.2448 187.934C54.784 187.859 54.3703 187.746 54.0036 187.596V186.15C54.4361 186.385 54.871 186.562 55.3082 186.679C55.7455 186.792 56.1921 186.848 56.6481 186.848C57.4333 186.848 58.0374 186.642 58.4606 186.228C58.8884 185.814 59.1023 185.226 59.1023 184.465C59.1023 183.713 58.8813 183.127 58.4394 182.709C58.0022 182.29 57.391 182.081 56.6058 182.081C56.225 182.081 55.8536 182.126 55.4916 182.215C55.1296 182.3 54.784 182.429 54.4549 182.603V177.314ZM119.965 181.066L113.97 183.322L119.965 185.558V186.848L112.51 183.901V182.73L119.965 179.782V181.066ZM127.165 180.219V181.489C126.794 181.272 126.42 181.11 126.044 181.002C125.668 180.894 125.284 180.84 124.894 180.84C124.307 180.84 123.867 180.936 123.576 181.129C123.289 181.317 123.145 181.606 123.145 181.997C123.145 182.349 123.253 182.612 123.47 182.786C123.686 182.96 124.224 183.13 125.085 183.294L125.607 183.393C126.251 183.515 126.737 183.76 127.066 184.126C127.4 184.493 127.567 184.97 127.567 185.558C127.567 186.338 127.29 186.949 126.735 187.391C126.18 187.829 125.409 188.047 124.422 188.047C124.032 188.047 123.623 188.005 123.195 187.92C122.767 187.84 122.304 187.718 121.805 187.554V186.214C122.29 186.463 122.753 186.651 123.195 186.778C123.637 186.9 124.055 186.961 124.45 186.961C125.024 186.961 125.468 186.846 125.783 186.616C126.098 186.381 126.255 186.054 126.255 185.635C126.255 185.034 125.679 184.618 124.528 184.387L124.471 184.373L123.985 184.274C123.237 184.129 122.692 183.884 122.348 183.541C122.005 183.193 121.834 182.721 121.834 182.123C121.834 181.367 122.09 180.784 122.602 180.375C123.115 179.961 123.846 179.754 124.796 179.754C125.219 179.754 125.625 179.794 126.016 179.874C126.406 179.949 126.789 180.064 127.165 180.219ZM136.199 187.441C135.851 187.643 135.492 187.793 135.12 187.892C134.753 187.996 134.377 188.047 133.992 188.047C132.769 188.047 131.813 187.681 131.122 186.947C130.435 186.214 130.092 185.198 130.092 183.901C130.092 182.603 130.435 181.587 131.122 180.854C131.813 180.121 132.769 179.754 133.992 179.754C134.373 179.754 134.744 179.803 135.106 179.902C135.468 180.001 135.832 180.154 136.199 180.36V181.721C135.856 181.416 135.51 181.195 135.163 181.059C134.819 180.922 134.429 180.854 133.992 180.854C133.179 180.854 132.553 181.117 132.116 181.644C131.679 182.17 131.46 182.923 131.46 183.901C131.46 184.874 131.679 185.626 132.116 186.157C132.558 186.684 133.183 186.947 133.992 186.947C134.443 186.947 134.848 186.879 135.205 186.743C135.562 186.602 135.894 186.385 136.199 186.094V187.441ZM145.276 181.573C144.998 181.357 144.716 181.2 144.429 181.101C144.143 181.002 143.828 180.953 143.484 180.953C142.676 180.953 142.057 181.207 141.63 181.714C141.202 182.222 140.988 182.956 140.988 183.915V187.843H139.683V179.944H140.988V181.489C141.204 180.929 141.536 180.501 141.982 180.205C142.434 179.904 142.967 179.754 143.583 179.754C143.903 179.754 144.201 179.794 144.479 179.874C144.756 179.954 145.022 180.078 145.276 180.248V181.573ZM147.772 179.973H151.094V186.834H153.668V187.843H147.222V186.834H149.796V180.981H147.772V179.973ZM149.796 176.905H151.094V178.541H149.796V176.905ZM156.602 186.848V190.847H155.297V179.944H156.602V180.953C156.818 180.563 157.105 180.266 157.462 180.064C157.824 179.857 158.24 179.754 158.711 179.754C159.665 179.754 160.412 180.123 160.953 180.861C161.499 181.599 161.771 182.622 161.771 183.929C161.771 185.212 161.499 186.221 160.953 186.954C160.408 187.683 159.66 188.047 158.711 188.047C158.231 188.047 157.81 187.946 157.448 187.744C157.091 187.537 156.809 187.239 156.602 186.848ZM160.41 183.901C160.41 182.894 160.25 182.135 159.931 181.623C159.616 181.11 159.145 180.854 158.52 180.854C157.89 180.854 157.413 181.113 157.089 181.63C156.764 182.142 156.602 182.899 156.602 183.901C156.602 184.897 156.764 185.654 157.089 186.171C157.413 186.689 157.89 186.947 158.52 186.947C159.145 186.947 159.616 186.691 159.931 186.178C160.25 185.666 160.41 184.907 160.41 183.901ZM166.701 177.702V179.944H169.649V180.953H166.701V185.241C166.701 185.824 166.811 186.23 167.032 186.461C167.253 186.691 167.639 186.806 168.189 186.806H169.649V187.843H168.062C167.089 187.843 166.402 187.648 166.003 187.257C165.603 186.867 165.403 186.195 165.403 185.241V180.953H163.295V179.944H165.403V177.702H166.701ZM171.405 181.066V179.782L178.859 182.73V183.901L171.405 186.848V185.558L177.399 183.322L171.405 181.066ZM131.46 207.994H133.942V210.843H131.46V207.994ZM139.874 207.994H142.356V210.843H139.874V207.994ZM148.287 207.994H150.77V210.843H148.287V207.994ZM54.8992 232.651H57.1136V224.696L54.462 225.973V224.604L57.0995 223.349H58.524V232.651H60.7102V233.843H54.8992V232.651ZM65.7528 223.159C66.8764 223.159 67.725 223.617 68.2986 224.534C68.8769 225.451 69.166 226.807 69.166 228.603C69.166 230.399 68.8769 231.755 68.2986 232.672C67.725 233.589 66.8764 234.047 65.7528 234.047C64.6291 234.047 63.7805 233.589 63.2069 232.672C62.6334 231.755 62.3466 230.399 62.3466 228.603C62.3466 226.807 62.6334 225.451 63.2069 224.534C63.7805 223.617 64.6291 223.159 65.7528 223.159ZM65.7528 232.919C66.4204 232.919 66.9164 232.564 67.2408 231.854C67.5699 231.144 67.7344 230.06 67.7344 228.603C67.7344 227.827 67.6874 227.127 67.5934 226.501L64.2366 231.755C64.5892 232.531 65.0946 232.919 65.7528 232.919ZM65.7528 224.287C65.0899 224.287 64.5939 224.642 64.2648 225.352C63.9404 226.062 63.7782 227.146 63.7782 228.603C63.7782 229.266 63.8228 229.887 63.9122 230.465L67.1985 225.225C66.8412 224.6 66.3593 224.287 65.7528 224.287ZM119.965 227.066L113.97 229.322L119.965 231.558V232.848L112.51 229.901V228.73L119.965 225.782V227.066ZM126.573 223.314H127.913L122.37 235.183H121.023L126.573 223.314ZM135.579 226.219V227.489C135.207 227.272 134.833 227.11 134.457 227.002C134.081 226.894 133.698 226.84 133.308 226.84C132.72 226.84 132.281 226.936 131.989 227.129C131.702 227.317 131.559 227.606 131.559 227.997C131.559 228.349 131.667 228.612 131.883 228.786C132.1 228.96 132.638 229.13 133.498 229.294L134.02 229.393C134.664 229.515 135.151 229.76 135.48 230.126C135.814 230.493 135.981 230.97 135.981 231.558C135.981 232.338 135.703 232.949 135.148 233.391C134.594 233.829 133.823 234.047 132.835 234.047C132.445 234.047 132.036 234.005 131.608 233.92C131.18 233.84 130.717 233.718 130.219 233.554V232.214C130.703 232.463 131.166 232.651 131.608 232.778C132.05 232.9 132.469 232.961 132.864 232.961C133.437 232.961 133.881 232.846 134.196 232.616C134.511 232.381 134.669 232.054 134.669 231.635C134.669 231.034 134.093 230.618 132.941 230.387L132.885 230.373L132.398 230.274C131.651 230.129 131.105 229.884 130.762 229.541C130.419 229.193 130.247 228.721 130.247 228.123C130.247 227.367 130.503 226.784 131.016 226.375C131.528 225.961 132.259 225.754 133.209 225.754C133.632 225.754 134.039 225.794 134.429 225.874C134.819 225.949 135.202 226.064 135.579 226.219ZM144.613 233.441C144.265 233.643 143.905 233.793 143.534 233.892C143.167 233.996 142.791 234.047 142.405 234.047C141.183 234.047 140.226 233.681 139.535 232.947C138.849 232.214 138.506 231.198 138.506 229.901C138.506 228.603 138.849 227.587 139.535 226.854C140.226 226.121 141.183 225.754 142.405 225.754C142.786 225.754 143.158 225.803 143.52 225.902C143.882 226.001 144.246 226.154 144.613 226.36V227.721C144.27 227.416 143.924 227.195 143.576 227.059C143.233 226.922 142.843 226.854 142.405 226.854C141.592 226.854 140.967 227.117 140.53 227.644C140.092 228.17 139.874 228.923 139.874 229.901C139.874 230.874 140.092 231.626 140.53 232.157C140.971 232.684 141.597 232.947 142.405 232.947C142.857 232.947 143.261 232.879 143.618 232.743C143.976 232.602 144.307 232.385 144.613 232.094V233.441ZM153.689 227.573C153.412 227.357 153.13 227.2 152.843 227.101C152.556 227.002 152.241 226.953 151.898 226.953C151.089 226.953 150.471 227.207 150.043 227.714C149.615 228.222 149.401 228.956 149.401 229.915V233.843H148.097V225.944H149.401V227.489C149.618 226.929 149.949 226.501 150.396 226.205C150.847 225.904 151.381 225.754 151.997 225.754C152.316 225.754 152.615 225.794 152.892 225.874C153.17 225.954 153.435 226.078 153.689 226.248V227.573ZM156.186 225.973H159.507V232.834H162.082V233.843H155.636V232.834H158.21V226.981H156.186V225.973ZM158.21 222.905H159.507V224.541H158.21V222.905ZM165.015 232.848V236.847H163.711V225.944H165.015V226.953C165.232 226.563 165.519 226.266 165.876 226.064C166.238 225.857 166.654 225.754 167.124 225.754C168.078 225.754 168.826 226.123 169.367 226.861C169.912 227.599 170.185 228.622 170.185 229.929C170.185 231.212 169.912 232.221 169.367 232.954C168.821 233.683 168.074 234.047 167.124 234.047C166.645 234.047 166.224 233.946 165.862 233.744C165.504 233.537 165.222 233.239 165.015 232.848ZM168.824 229.901C168.824 228.894 168.664 228.135 168.344 227.623C168.029 227.11 167.559 226.854 166.934 226.854C166.304 226.854 165.826 227.113 165.502 227.63C165.178 228.142 165.015 228.899 165.015 229.901C165.015 230.897 165.178 231.654 165.502 232.171C165.826 232.689 166.304 232.947 166.934 232.947C167.559 232.947 168.029 232.691 168.344 232.178C168.664 231.666 168.824 230.907 168.824 229.901ZM175.114 223.702V225.944H178.062V226.953H175.114V231.241C175.114 231.824 175.225 232.23 175.446 232.461C175.667 232.691 176.052 232.806 176.602 232.806H178.062V233.843H176.476C175.502 233.843 174.816 233.648 174.416 233.257C174.017 232.867 173.817 232.195 173.817 231.241V226.953H171.708V225.944H173.817V223.702H175.114ZM179.819 227.066V225.782L187.273 228.73V229.901L179.819 232.848V231.558L185.813 229.322L179.819 227.066ZM54.8992 255.651H57.1136V247.696L54.462 248.973V247.604L57.0995 246.349H58.524V255.651H60.7102V256.843H54.8992V255.651ZM63.3127 255.651H65.5271V247.696L62.8755 248.973V247.604L65.513 246.349H66.9375V255.651H69.1237V256.843H63.3127V255.651ZM119.965 250.066L113.97 252.322L119.965 254.558V255.848L112.51 252.901V251.73L119.965 248.782V250.066ZM124.154 246.314H125.585V250.933L125.437 253.098H124.302L124.154 250.933V246.314ZM123.942 255.052H125.797V256.843H123.942V255.052ZM129.436 251.737H136.911V252.929H129.436V251.737ZM137.85 251.737H145.325V252.929H137.85V251.737ZM155.347 246.314H161.595V247.513H156.771V250.348H161.383V251.547H156.771V255.644H161.729V256.843H155.347V246.314ZM169.783 251.949V256.843H168.478V251.949C168.478 251.239 168.354 250.717 168.104 250.383C167.855 250.049 167.465 249.882 166.934 249.882C166.327 249.882 165.859 250.099 165.53 250.531C165.206 250.959 165.044 251.575 165.044 252.379V256.843H163.746V248.944H165.044V250.129C165.274 249.678 165.587 249.337 165.982 249.107C166.377 248.871 166.844 248.754 167.385 248.754C168.189 248.754 168.788 249.02 169.183 249.551C169.583 250.077 169.783 250.877 169.783 251.949ZM176.835 249.953V245.87H178.133V256.843H176.835V255.848C176.619 256.239 176.33 256.537 175.968 256.744C175.61 256.946 175.197 257.047 174.727 257.047C173.772 257.047 173.02 256.678 172.47 255.94C171.925 255.197 171.652 254.175 171.652 252.872C171.652 251.589 171.927 250.583 172.477 249.854C173.027 249.121 173.777 248.754 174.727 248.754C175.201 248.754 175.62 248.857 175.982 249.064C176.344 249.266 176.628 249.563 176.835 249.953ZM173.02 252.901C173.02 253.907 173.18 254.666 173.5 255.178C173.819 255.691 174.292 255.947 174.917 255.947C175.542 255.947 176.017 255.689 176.342 255.171C176.671 254.654 176.835 253.897 176.835 252.901C176.835 251.899 176.671 251.142 176.342 250.63C176.017 250.113 175.542 249.854 174.917 249.854C174.292 249.854 173.819 250.11 173.5 250.623C173.18 251.135 173.02 251.894 173.02 252.901ZM190.425 247.485V251.441H192.076C192.734 251.441 193.246 251.267 193.613 250.919C193.984 250.571 194.17 250.084 194.17 249.459C194.17 248.834 193.987 248.35 193.62 248.006C193.253 247.658 192.738 247.485 192.076 247.485H190.425ZM189.001 246.314H192.076C193.251 246.314 194.142 246.582 194.748 247.118C195.355 247.649 195.658 248.43 195.658 249.459C195.658 250.498 195.355 251.283 194.748 251.815C194.147 252.346 193.256 252.611 192.076 252.611H190.425V256.843H189.001V246.314ZM198.254 248.973H201.575V255.834H204.149V256.843H197.703V255.834H200.277V249.981H198.254V248.973ZM200.277 245.905H201.575V247.541H200.277V245.905ZM212.323 248.944L209.495 252.724L212.598 256.843H211.096L208.783 253.676L206.477 256.843H204.975L208.077 252.724L205.25 248.944H206.688L208.783 251.8L210.863 248.944H212.323ZM220.751 252.245V252.879H215.13V252.922C215.092 253.998 215.297 254.772 215.743 255.242C216.195 255.712 216.83 255.947 217.648 255.947C218.061 255.947 218.494 255.881 218.945 255.75C219.396 255.618 219.878 255.418 220.391 255.15V256.441C219.897 256.643 219.42 256.793 218.959 256.892C218.503 256.996 218.061 257.047 217.633 257.047C216.406 257.047 215.447 256.681 214.756 255.947C214.065 255.209 213.719 254.194 213.719 252.901C213.719 251.641 214.058 250.635 214.735 249.882C215.412 249.13 216.315 248.754 217.443 248.754C218.449 248.754 219.241 249.095 219.82 249.776C220.403 250.458 220.713 251.281 220.751 252.245ZM219.453 251.864C219.396 251.319 219.197 250.848 218.853 250.454C218.515 250.054 218.026 249.854 217.387 249.854C216.761 249.854 216.247 250.061 215.842 250.475C215.438 250.888 215.217 251.354 215.179 251.871L219.453 251.864ZM226.336 253.987C226.336 254.57 226.442 255.009 226.653 255.305C226.87 255.602 227.187 255.75 227.605 255.75H229.122V256.843H227.479C226.703 256.843 226.101 256.596 225.673 256.102C225.25 255.604 225.039 254.899 225.039 253.987V246.843H222.958V245.827H226.336V253.987ZM244.362 246.314H245.702L240.159 258.183H238.812L244.362 246.314ZM262.705 255.975C262.324 256.328 261.894 256.596 261.415 256.779C260.94 256.958 260.425 257.047 259.87 257.047C258.535 257.047 257.496 256.57 256.753 255.616C256.01 254.657 255.639 253.314 255.639 251.589C255.639 249.868 256.015 248.528 256.767 247.569C257.52 246.605 258.566 246.123 259.906 246.123C260.348 246.123 260.771 246.187 261.175 246.314C261.579 246.436 261.97 246.624 262.346 246.878V248.338C261.965 247.976 261.575 247.71 261.175 247.541C260.775 247.367 260.352 247.28 259.906 247.28C258.979 247.28 258.284 247.64 257.818 248.359C257.357 249.074 257.127 250.15 257.127 251.589C257.127 253.051 257.35 254.135 257.797 254.84C258.248 255.54 258.939 255.891 259.87 255.891C260.185 255.891 260.46 255.855 260.695 255.785C260.935 255.71 261.151 255.595 261.344 255.439V252.611H259.814V251.441H262.705V255.975ZM267.677 249.854C267.019 249.854 266.521 250.11 266.182 250.623C265.844 251.135 265.675 251.894 265.675 252.901C265.675 253.902 265.844 254.661 266.182 255.178C266.521 255.691 267.019 255.947 267.677 255.947C268.34 255.947 268.841 255.691 269.179 255.178C269.518 254.661 269.687 253.902 269.687 252.901C269.687 251.894 269.518 251.135 269.179 250.623C268.841 250.11 268.34 249.854 267.677 249.854ZM267.677 248.754C268.773 248.754 269.61 249.109 270.188 249.819C270.771 250.529 271.062 251.556 271.062 252.901C271.062 254.25 270.773 255.28 270.195 255.989C269.617 256.695 268.777 257.047 267.677 257.047C266.582 257.047 265.745 256.695 265.167 255.989C264.589 255.28 264.299 254.25 264.299 252.901C264.299 251.556 264.589 250.529 265.167 249.819C265.745 249.109 266.582 248.754 267.677 248.754ZM276.091 249.854C275.433 249.854 274.934 250.11 274.596 250.623C274.257 251.135 274.088 251.894 274.088 252.901C274.088 253.902 274.257 254.661 274.596 255.178C274.934 255.691 275.433 255.947 276.091 255.947C276.754 255.947 277.254 255.691 277.593 255.178C277.932 254.661 278.101 253.902 278.101 252.901C278.101 251.894 277.932 251.135 277.593 250.623C277.254 250.11 276.754 249.854 276.091 249.854ZM276.091 248.754C277.186 248.754 278.023 249.109 278.601 249.819C279.184 250.529 279.476 251.556 279.476 252.901C279.476 254.25 279.187 255.28 278.609 255.989C278.03 256.695 277.191 257.047 276.091 257.047C274.995 257.047 274.159 256.695 273.58 255.989C273.002 255.28 272.713 254.25 272.713 252.901C272.713 251.556 273.002 250.529 273.58 249.819C274.159 249.109 274.995 248.754 276.091 248.754ZM286.211 252.83C286.211 251.857 286.051 251.119 285.731 250.616C285.416 250.108 284.956 249.854 284.349 249.854C283.715 249.854 283.23 250.108 282.897 250.616C282.563 251.119 282.396 251.857 282.396 252.83C282.396 253.803 282.563 254.546 282.897 255.059C283.235 255.566 283.724 255.82 284.363 255.82C284.96 255.82 285.416 255.564 285.731 255.052C286.051 254.539 286.211 253.799 286.211 252.83ZM287.509 256.335C287.509 257.52 287.229 258.418 286.669 259.029C286.11 259.64 285.287 259.946 284.201 259.946C283.844 259.946 283.47 259.913 283.08 259.847C282.69 259.781 282.299 259.685 281.909 259.558V258.274C282.37 258.491 282.788 258.65 283.164 258.754C283.541 258.857 283.886 258.909 284.201 258.909C284.902 258.909 285.412 258.719 285.731 258.338C286.051 257.957 286.211 257.353 286.211 256.525V256.469V255.587C286.004 256.029 285.722 256.359 285.365 256.575C285.007 256.791 284.573 256.899 284.06 256.899C283.139 256.899 282.403 256.53 281.853 255.792C281.303 255.054 281.028 254.067 281.028 252.83C281.028 251.589 281.303 250.599 281.853 249.861C282.403 249.123 283.139 248.754 284.06 248.754C284.568 248.754 284.998 248.855 285.351 249.057C285.703 249.259 285.99 249.572 286.211 249.995V248.973H287.509V256.335ZM293.644 253.987C293.644 254.57 293.75 255.009 293.962 255.305C294.178 255.602 294.495 255.75 294.914 255.75H296.43V256.843H294.787C294.011 256.843 293.409 256.596 292.981 256.102C292.558 255.604 292.347 254.899 292.347 253.987V246.843H290.266V245.827H293.644V253.987ZM304.886 252.245V252.879H299.265V252.922C299.228 253.998 299.432 254.772 299.879 255.242C300.33 255.712 300.965 255.947 301.783 255.947C302.197 255.947 302.629 255.881 303.08 255.75C303.532 255.618 304.014 255.418 304.526 255.15V256.441C304.032 256.643 303.555 256.793 303.095 256.892C302.638 256.996 302.197 257.047 301.769 257.047C300.542 257.047 299.583 256.681 298.891 255.947C298.2 255.209 297.855 254.194 297.855 252.901C297.855 251.641 298.193 250.635 298.87 249.882C299.547 249.13 300.45 248.754 301.578 248.754C302.584 248.754 303.377 249.095 303.955 249.776C304.538 250.458 304.848 251.281 304.886 252.245ZM303.588 251.864C303.532 251.319 303.332 250.848 302.989 250.454C302.65 250.054 302.161 249.854 301.522 249.854C300.897 249.854 300.382 250.061 299.977 250.475C299.573 250.888 299.352 251.354 299.315 251.871L303.588 251.864ZM318.159 247.569L316.656 252.957H319.661L318.159 247.569ZM317.298 246.314H319.026L322.249 256.843H320.775L319.999 254.099H316.311L315.549 256.843H314.075L317.298 246.314ZM329.64 251.949V256.843H328.335V251.949C328.335 251.239 328.21 250.717 327.961 250.383C327.712 250.049 327.322 249.882 326.791 249.882C326.184 249.882 325.716 250.099 325.387 250.531C325.063 250.959 324.901 251.575 324.901 252.379V256.843H323.603V248.944H324.901V250.129C325.131 249.678 325.444 249.337 325.839 249.107C326.234 248.871 326.701 248.754 327.242 248.754C328.046 248.754 328.645 249.02 329.04 249.551C329.44 250.077 329.64 250.877 329.64 251.949ZM335.592 252.872H335.162C334.405 252.872 333.834 253.006 333.448 253.274C333.067 253.538 332.877 253.933 332.877 254.459C332.877 254.934 333.02 255.303 333.307 255.566C333.594 255.83 333.991 255.961 334.499 255.961C335.214 255.961 335.775 255.714 336.184 255.221C336.593 254.722 336.8 254.036 336.805 253.162V252.872H335.592ZM338.11 252.336V256.843H336.805V255.672C336.528 256.142 336.177 256.49 335.754 256.716C335.336 256.937 334.826 257.047 334.224 257.047C333.42 257.047 332.778 256.822 332.299 256.37C331.819 255.914 331.579 255.305 331.579 254.544C331.579 253.665 331.873 252.997 332.461 252.541C333.053 252.085 333.921 251.857 335.063 251.857H336.805V251.652C336.8 251.022 336.64 250.566 336.325 250.284C336.01 249.997 335.507 249.854 334.816 249.854C334.374 249.854 333.928 249.918 333.476 250.044C333.025 250.171 332.585 250.357 332.158 250.602V249.304C332.637 249.121 333.096 248.984 333.533 248.895C333.975 248.801 334.403 248.754 334.816 248.754C335.47 248.754 336.027 248.85 336.488 249.043C336.953 249.236 337.329 249.525 337.616 249.91C337.795 250.146 337.922 250.437 337.997 250.785C338.072 251.128 338.11 251.645 338.11 252.336ZM344.125 253.987C344.125 254.57 344.231 255.009 344.443 255.305C344.659 255.602 344.976 255.75 345.395 255.75H346.911V256.843H345.268C344.492 256.843 343.89 256.596 343.463 256.102C343.039 255.604 342.828 254.899 342.828 253.987V246.843H340.747V245.827H344.125V253.987ZM353.519 254.304C353.303 254.854 353.028 255.578 352.694 256.476C352.229 257.717 351.916 258.474 351.756 258.747C351.54 259.114 351.27 259.389 350.945 259.572C350.621 259.755 350.242 259.847 349.81 259.847H348.766V258.761H349.535C349.916 258.761 350.214 258.65 350.43 258.43C350.647 258.209 350.922 257.637 351.255 256.716L348.202 248.944H349.577L351.918 255.122L354.224 248.944H355.6L353.519 254.304ZM360.212 246.702V248.944H363.16V249.953H360.212V254.241C360.212 254.824 360.323 255.23 360.543 255.461C360.764 255.691 361.15 255.806 361.7 255.806H363.16V256.843H361.573C360.6 256.843 359.913 256.648 359.514 256.257C359.114 255.867 358.914 255.195 358.914 254.241V249.953H356.806V248.944H358.914V246.702H360.212ZM366.524 248.973H369.846V255.834H372.42V256.843H365.974V255.834H368.548V249.981H366.524V248.973ZM368.548 245.905H369.846V247.541H368.548V245.905ZM380.191 256.441C379.843 256.643 379.484 256.793 379.112 256.892C378.746 256.996 378.37 257.047 377.984 257.047C376.762 257.047 375.805 256.681 375.114 255.947C374.427 255.214 374.084 254.198 374.084 252.901C374.084 251.603 374.427 250.587 375.114 249.854C375.805 249.121 376.762 248.754 377.984 248.754C378.365 248.754 378.736 248.803 379.098 248.902C379.46 249.001 379.825 249.154 380.191 249.36V250.721C379.848 250.416 379.503 250.195 379.155 250.059C378.812 249.922 378.421 249.854 377.984 249.854C377.171 249.854 376.545 250.117 376.108 250.644C375.671 251.17 375.452 251.923 375.452 252.901C375.452 253.874 375.671 254.626 376.108 255.157C376.55 255.684 377.175 255.947 377.984 255.947C378.435 255.947 378.84 255.879 379.197 255.743C379.554 255.602 379.886 255.385 380.191 255.094V256.441ZM387.984 249.219V250.489C387.613 250.272 387.239 250.11 386.863 250.002C386.487 249.894 386.104 249.84 385.714 249.84C385.126 249.84 384.686 249.936 384.395 250.129C384.108 250.317 383.965 250.606 383.965 250.997C383.965 251.349 384.073 251.612 384.289 251.786C384.505 251.96 385.044 252.13 385.904 252.294L386.426 252.393C387.07 252.515 387.556 252.76 387.886 253.126C388.219 253.493 388.386 253.97 388.386 254.558C388.386 255.338 388.109 255.949 387.554 256.391C386.999 256.829 386.228 257.047 385.241 257.047C384.851 257.047 384.442 257.005 384.014 256.92C383.586 256.84 383.123 256.718 382.625 256.554V255.214C383.109 255.463 383.572 255.651 384.014 255.778C384.456 255.9 384.874 255.961 385.269 255.961C385.843 255.961 386.287 255.846 386.602 255.616C386.917 255.381 387.075 255.054 387.075 254.635C387.075 254.034 386.499 253.618 385.347 253.387L385.29 253.373L384.804 253.274C384.056 253.129 383.511 252.884 383.168 252.541C382.824 252.193 382.653 251.721 382.653 251.123C382.653 250.367 382.909 249.784 383.422 249.375C383.934 248.961 384.665 248.754 385.615 248.754C386.038 248.754 386.445 248.794 386.835 248.874C387.225 248.949 387.608 249.064 387.984 249.219ZM413.93 256.469C413.568 256.662 413.197 256.805 412.816 256.899C412.435 256.998 412.031 257.047 411.603 257.047C410.254 257.047 409.205 256.57 408.458 255.616C407.715 254.661 407.343 253.319 407.343 251.589C407.343 249.868 407.717 248.528 408.465 247.569C409.217 246.605 410.263 246.123 411.603 246.123C412.031 246.123 412.435 246.173 412.816 246.272C413.197 246.366 413.568 246.509 413.93 246.702V248.162C413.582 247.875 413.208 247.656 412.809 247.506C412.409 247.355 412.007 247.28 411.603 247.28C410.677 247.28 409.983 247.637 409.523 248.352C409.062 249.067 408.831 250.146 408.831 251.589C408.831 253.028 409.062 254.104 409.523 254.819C409.983 255.533 410.677 255.891 411.603 255.891C412.017 255.891 412.421 255.816 412.816 255.665C413.215 255.515 413.587 255.296 413.93 255.009V256.469ZM419.121 249.854C418.463 249.854 417.964 250.11 417.626 250.623C417.287 251.135 417.118 251.894 417.118 252.901C417.118 253.902 417.287 254.661 417.626 255.178C417.964 255.691 418.463 255.947 419.121 255.947C419.784 255.947 420.284 255.691 420.623 255.178C420.961 254.661 421.131 253.902 421.131 252.901C421.131 251.894 420.961 251.135 420.623 250.623C420.284 250.11 419.784 249.854 419.121 249.854ZM419.121 248.754C420.216 248.754 421.053 249.109 421.631 249.819C422.214 250.529 422.506 251.556 422.506 252.901C422.506 254.25 422.217 255.28 421.638 255.989C421.06 256.695 420.221 257.047 419.121 257.047C418.025 257.047 417.188 256.695 416.61 255.989C416.032 255.28 415.743 254.25 415.743 252.901C415.743 251.556 416.032 250.529 416.61 249.819C417.188 249.109 418.025 248.754 419.121 248.754ZM429.241 249.953V245.87H430.539V256.843H429.241V255.848C429.025 256.239 428.736 256.537 428.374 256.744C428.016 256.946 427.602 257.047 427.132 257.047C426.178 257.047 425.426 256.678 424.876 255.94C424.33 255.197 424.058 254.175 424.058 252.872C424.058 251.589 424.333 250.583 424.883 249.854C425.433 249.121 426.183 248.754 427.132 248.754C427.607 248.754 428.026 248.857 428.388 249.064C428.75 249.266 429.034 249.563 429.241 249.953ZM425.426 252.901C425.426 253.907 425.586 254.666 425.905 255.178C426.225 255.691 426.697 255.947 427.323 255.947C427.948 255.947 428.423 255.689 428.747 255.171C429.076 254.654 429.241 253.897 429.241 252.901C429.241 251.899 429.076 251.142 428.747 250.63C428.423 250.113 427.948 249.854 427.323 249.854C426.697 249.854 426.225 250.11 425.905 250.623C425.586 251.135 425.426 251.894 425.426 252.901ZM439.502 252.245V252.879H433.882V252.922C433.844 253.998 434.048 254.772 434.495 255.242C434.946 255.712 435.581 255.947 436.399 255.947C436.813 255.947 437.245 255.881 437.697 255.75C438.148 255.618 438.63 255.418 439.142 255.15V256.441C438.649 256.643 438.172 256.793 437.711 256.892C437.255 256.996 436.813 257.047 436.385 257.047C435.158 257.047 434.199 256.681 433.508 255.947C432.817 255.209 432.471 254.194 432.471 252.901C432.471 251.641 432.81 250.635 433.487 249.882C434.164 249.13 435.066 248.754 436.195 248.754C437.201 248.754 437.993 249.095 438.571 249.776C439.154 250.458 439.465 251.281 439.502 252.245ZM438.205 251.864C438.148 251.319 437.948 250.848 437.605 250.454C437.267 250.054 436.778 249.854 436.138 249.854C435.513 249.854 434.998 250.061 434.594 250.475C434.189 250.888 433.969 251.354 433.931 251.871L438.205 251.864ZM449.15 251.737H456.625V252.929H449.15V251.737ZM457.564 251.737H465.039V252.929H457.564V251.737ZM474.292 250.066V248.782L481.746 251.73V252.901L474.292 255.848V254.558L480.286 252.322L474.292 250.066ZM54.8992 278.651H57.1136V270.696L54.462 271.973V270.604L57.0995 269.349H58.524V278.651H60.7102V279.843H54.8992V278.651ZM64.0391 278.644H68.8769V279.843H62.4806V278.644C63.3597 277.718 64.1284 276.9 64.7866 276.19C65.4448 275.48 65.8985 274.979 66.1477 274.688C66.6178 274.114 66.9352 273.651 67.0997 273.298C67.2643 272.941 67.3466 272.577 67.3466 272.205C67.3466 271.618 67.1726 271.157 66.8247 270.823C66.4815 270.489 66.009 270.322 65.4072 270.322C64.9794 270.322 64.5304 270.4 64.0603 270.555C63.5901 270.71 63.0918 270.945 62.5652 271.26V269.822C63.0494 269.591 63.5243 269.417 63.9897 269.3C64.4599 269.182 64.923 269.123 65.379 269.123C66.4086 269.123 67.2361 269.399 67.8614 269.949C68.4914 270.494 68.8064 271.211 68.8064 272.099C68.8064 272.551 68.7006 273.002 68.489 273.454C68.2822 273.905 67.9437 274.403 67.4735 274.949C67.2102 275.254 66.8271 275.677 66.324 276.218C65.8257 276.759 65.064 277.567 64.0391 278.644ZM114.633 276.994H117.115V279.843H114.633V276.994ZM123.047 276.994H125.529V279.843H123.047V276.994ZM131.46 276.994H133.942V279.843H131.46V276.994Z" fill="#828282"/>
<g filter="url(#filter1_d_264_3350)">
<rect x="30.127" y="97.1982" width="600.582" height="42.2571" rx="9.62857" fill="#1B57A8" shape-rendering="crispEdges"/>
<path d="M57.2808 118.116H56.1666V116.283H57.2808C57.798 116.283 58.1976 116.182 58.4797 115.979C58.7665 115.773 58.9099 115.483 58.9099 115.112C58.9099 114.722 58.7665 114.419 58.4797 114.202C58.1976 113.981 57.798 113.871 57.2808 113.871C56.8859 113.871 56.4628 113.92 56.0114 114.019C55.5601 114.118 55.0923 114.261 54.608 114.449V112.559C55.0923 112.413 55.5695 112.303 56.0396 112.228C56.5098 112.148 56.9611 112.108 57.3937 112.108C58.5032 112.108 59.3683 112.35 59.9889 112.834C60.6094 113.318 60.9197 113.986 60.9197 114.837C60.9197 115.462 60.7411 115.975 60.3838 116.374C60.0265 116.769 59.5164 117.028 58.8535 117.15C59.6057 117.282 60.1793 117.583 60.5742 118.053C60.9691 118.518 61.1666 119.132 61.1666 119.893C61.1666 120.914 60.8398 121.692 60.1863 122.228C59.5328 122.764 58.5831 123.032 57.3372 123.032C56.806 123.032 56.2818 122.987 55.7646 122.898C55.2521 122.808 54.7608 122.679 54.2907 122.51V120.578C54.7326 120.798 55.2098 120.968 55.7223 121.085C56.2348 121.198 56.7731 121.255 57.3372 121.255C57.9014 121.255 58.3481 121.125 58.6772 120.867C59.0063 120.603 59.1708 120.251 59.1708 119.809C59.1708 119.268 59.0063 118.852 58.6772 118.561C58.3481 118.264 57.8826 118.116 57.2808 118.116ZM120.379 116.297L114.772 118.307L120.379 120.302V122.058L112.924 119.132V117.467L120.379 114.534V116.297ZM127.706 115.176V116.981C127.325 116.736 126.928 116.553 126.514 116.431C126.105 116.304 125.694 116.24 125.28 116.24C124.819 116.24 124.471 116.309 124.236 116.445C124.001 116.577 123.884 116.774 123.884 117.037C123.884 117.413 124.387 117.719 125.393 117.954L125.471 117.975L126.063 118.116C126.815 118.295 127.365 118.584 127.713 118.984C128.066 119.379 128.242 119.915 128.242 120.592C128.242 121.405 127.974 122.016 127.438 122.425C126.907 122.829 126.105 123.032 125.033 123.032C124.558 123.032 124.072 122.989 123.573 122.905C123.075 122.825 122.57 122.703 122.057 122.538V120.733C122.513 120.991 122.976 121.189 123.447 121.325C123.921 121.461 124.38 121.53 124.822 121.53C125.306 121.53 125.673 121.459 125.922 121.318C126.171 121.177 126.296 120.972 126.296 120.704C126.296 120.441 126.206 120.239 126.028 120.098C125.854 119.957 125.435 119.806 124.772 119.647L124.201 119.52C123.411 119.341 122.835 119.061 122.473 118.68C122.111 118.3 121.93 117.79 121.93 117.15C121.93 116.389 122.205 115.796 122.755 115.373C123.306 114.95 124.079 114.738 125.076 114.738C125.522 114.738 125.967 114.776 126.408 114.851C126.855 114.922 127.288 115.03 127.706 115.176ZM136.613 122.425C136.265 122.627 135.892 122.778 135.492 122.877C135.092 122.98 134.662 123.032 134.201 123.032C132.984 123.032 132.032 122.665 131.345 121.932C130.659 121.198 130.316 120.183 130.316 118.885C130.316 117.583 130.661 116.565 131.352 115.831C132.043 115.093 132.998 114.724 134.216 114.724C134.639 114.724 135.045 114.774 135.436 114.872C135.83 114.971 136.223 115.124 136.613 115.331V117.221C136.312 116.962 135.981 116.765 135.619 116.628C135.262 116.487 134.89 116.417 134.505 116.417C133.832 116.417 133.315 116.631 132.953 117.058C132.591 117.486 132.41 118.095 132.41 118.885C132.41 119.675 132.591 120.281 132.953 120.704C133.315 121.128 133.832 121.339 134.505 121.339C134.904 121.339 135.278 121.273 135.626 121.142C135.974 121.005 136.303 120.801 136.613 120.528V122.425ZM145.661 117.108C145.436 116.901 145.17 116.746 144.865 116.642C144.564 116.539 144.232 116.487 143.87 116.487C143.433 116.487 143.05 116.565 142.721 116.72C142.396 116.87 142.145 117.091 141.966 117.383C141.853 117.562 141.773 117.778 141.726 118.032C141.684 118.286 141.663 118.671 141.663 119.188V122.827H139.597V114.929H141.663V116.156C141.865 115.704 142.175 115.357 142.594 115.112C143.012 114.863 143.501 114.738 144.061 114.738C144.343 114.738 144.618 114.774 144.886 114.844C145.158 114.91 145.417 115.009 145.661 115.14V117.108ZM147.516 114.929H151.607V121.24H154.174V122.827H146.966V121.24H149.54V116.515H147.516V114.929ZM149.54 111.085H151.607V113.497H149.54V111.085ZM157.489 121.713V125.831H155.429V114.929H157.489V116.113C157.705 115.657 157.989 115.314 158.342 115.084C158.694 114.853 159.108 114.738 159.583 114.738C160.486 114.738 161.186 115.1 161.685 115.824C162.183 116.548 162.432 117.569 162.432 118.885C162.432 120.22 162.178 121.245 161.67 121.96C161.167 122.674 160.448 123.032 159.513 123.032C159.089 123.032 158.709 122.924 158.37 122.707C158.036 122.486 157.742 122.155 157.489 121.713ZM160.366 118.871C160.366 118.109 160.239 117.512 159.985 117.08C159.731 116.647 159.381 116.431 158.934 116.431C158.488 116.431 158.135 116.647 157.876 117.08C157.618 117.512 157.489 118.109 157.489 118.871C157.489 119.633 157.618 120.23 157.876 120.662C158.135 121.095 158.488 121.311 158.934 121.311C159.381 121.311 159.731 121.095 159.985 120.662C160.239 120.23 160.366 119.633 160.366 118.871ZM167.651 112.686V114.929H170.352V116.515H167.651V120.253C167.651 120.606 167.736 120.86 167.905 121.015C168.079 121.165 168.366 121.24 168.765 121.24H170.352V122.827H168.617C167.432 122.827 166.631 122.639 166.212 122.263C165.794 121.882 165.585 121.179 165.585 120.154V116.515H163.568V114.929H165.585V112.686H167.651ZM186.601 115.176V116.981C186.22 116.736 185.823 116.553 185.409 116.431C185 116.304 184.589 116.24 184.175 116.24C183.714 116.24 183.366 116.309 183.131 116.445C182.896 116.577 182.778 116.774 182.778 117.037C182.778 117.413 183.282 117.719 184.288 117.954L184.365 117.975L184.958 118.116C185.71 118.295 186.26 118.584 186.608 118.984C186.96 119.379 187.137 119.915 187.137 120.592C187.137 121.405 186.869 122.016 186.333 122.425C185.802 122.829 185 123.032 183.928 123.032C183.453 123.032 182.967 122.989 182.468 122.905C181.97 122.825 181.464 122.703 180.952 122.538V120.733C181.408 120.991 181.871 121.189 182.341 121.325C182.816 121.461 183.274 121.53 183.716 121.53C184.201 121.53 184.567 121.459 184.817 121.318C185.066 121.177 185.19 120.972 185.19 120.704C185.19 120.441 185.101 120.239 184.922 120.098C184.748 119.957 184.33 119.806 183.667 119.647L183.096 119.52C182.306 119.341 181.73 119.061 181.368 118.68C181.006 118.3 180.825 117.79 180.825 117.15C180.825 116.389 181.1 115.796 181.65 115.373C182.2 114.95 182.974 114.738 183.97 114.738C184.417 114.738 184.861 114.776 185.303 114.851C185.75 114.922 186.182 115.03 186.601 115.176ZM196.143 117.108C195.917 116.901 195.651 116.746 195.346 116.642C195.045 116.539 194.713 116.487 194.351 116.487C193.914 116.487 193.531 116.565 193.202 116.72C192.877 116.87 192.626 117.091 192.447 117.383C192.334 117.562 192.255 117.778 192.207 118.032C192.165 118.286 192.144 118.671 192.144 119.188V122.827H190.078V114.929H192.144V116.156C192.346 115.704 192.656 115.357 193.075 115.112C193.493 114.863 193.982 114.738 194.542 114.738C194.824 114.738 195.099 114.774 195.367 114.844C195.64 114.91 195.898 115.009 196.143 115.14V117.108ZM203.921 122.425C203.574 122.627 203.2 122.778 202.8 122.877C202.401 122.98 201.97 123.032 201.51 123.032C200.292 123.032 199.34 122.665 198.653 121.932C197.967 121.198 197.624 120.183 197.624 118.885C197.624 117.583 197.969 116.565 198.661 115.831C199.352 115.093 200.306 114.724 201.524 114.724C201.947 114.724 202.354 114.774 202.744 114.872C203.139 114.971 203.531 115.124 203.921 115.331V117.221C203.621 116.962 203.289 116.765 202.927 116.628C202.57 116.487 202.198 116.417 201.813 116.417C201.141 116.417 200.623 116.631 200.261 117.058C199.899 117.486 199.718 118.095 199.718 118.885C199.718 119.675 199.899 120.281 200.261 120.704C200.623 121.128 201.141 121.339 201.813 121.339C202.212 121.339 202.586 121.273 202.934 121.142C203.282 121.005 203.611 120.801 203.921 120.528V122.425ZM205.473 119.075H212.927V120.747H205.473V119.075ZM205.473 115.867H212.927V117.524H205.473V115.867ZM218.682 111.854H220.89V113.758L219.507 116.459H217.991L218.682 113.758V111.854ZM215.015 111.854H217.222V113.758L215.84 116.459H214.324L215.015 113.758V111.854ZM229.233 117.7V122.827H227.18V118.018C227.18 117.449 227.098 117.042 226.934 116.798C226.774 116.553 226.51 116.431 226.144 116.431C225.768 116.431 225.474 116.598 225.262 116.932C225.051 117.261 224.945 117.719 224.945 118.307V122.827H222.893V111.854H224.945V116.113C225.091 115.676 225.34 115.338 225.692 115.098C226.045 114.858 226.47 114.738 226.969 114.738C227.716 114.738 228.28 114.987 228.661 115.486C229.042 115.979 229.233 116.718 229.233 117.7ZM234.959 112.686V114.929H237.66V116.515H234.959V120.253C234.959 120.606 235.044 120.86 235.213 121.015C235.387 121.165 235.674 121.24 236.073 121.24H237.66V122.827H235.925C234.741 122.827 233.939 122.639 233.521 122.263C233.102 121.882 232.893 121.179 232.893 120.154V116.515H230.876V114.929H232.893V112.686H234.959ZM243.373 112.686V114.929H246.074V116.515H243.373V120.253C243.373 120.606 243.457 120.86 243.627 121.015C243.801 121.165 244.087 121.24 244.487 121.24H246.074V122.827H244.339C243.154 122.827 242.352 122.639 241.934 122.263C241.516 121.882 241.306 121.179 241.306 120.154V116.515H239.29V114.929H241.306V112.686H243.373ZM250.037 121.713V125.831H247.978V114.929H250.037V116.113C250.254 115.657 250.538 115.314 250.891 115.084C251.243 114.853 251.657 114.738 252.132 114.738C253.034 114.738 253.735 115.1 254.233 115.824C254.732 116.548 254.981 117.569 254.981 118.885C254.981 120.22 254.727 121.245 254.219 121.96C253.716 122.674 252.997 123.032 252.061 123.032C251.638 123.032 251.257 122.924 250.919 122.707C250.585 122.486 250.291 122.155 250.037 121.713ZM252.915 118.871C252.915 118.109 252.788 117.512 252.534 117.08C252.28 116.647 251.93 116.431 251.483 116.431C251.036 116.431 250.684 116.647 250.425 117.08C250.167 117.512 250.037 118.109 250.037 118.871C250.037 119.633 250.167 120.23 250.425 120.662C250.684 121.095 251.036 121.311 251.483 121.311C251.93 121.311 252.28 121.095 252.534 120.662C252.788 120.23 252.915 119.633 252.915 118.871ZM262.322 115.176V116.981C261.942 116.736 261.544 116.553 261.131 116.431C260.722 116.304 260.31 116.24 259.897 116.24C259.436 116.24 259.088 116.309 258.853 116.445C258.618 116.577 258.5 116.774 258.5 117.037C258.5 117.413 259.003 117.719 260.009 117.954L260.087 117.975L260.679 118.116C261.432 118.295 261.982 118.584 262.33 118.984C262.682 119.379 262.858 119.915 262.858 120.592C262.858 121.405 262.59 122.016 262.054 122.425C261.523 122.829 260.722 123.032 259.65 123.032C259.175 123.032 258.688 122.989 258.19 122.905C257.692 122.825 257.186 122.703 256.674 122.538V120.733C257.13 120.991 257.593 121.189 258.063 121.325C258.538 121.461 258.996 121.53 259.438 121.53C259.922 121.53 260.289 121.459 260.538 121.318C260.787 121.177 260.912 120.972 260.912 120.704C260.912 120.441 260.823 120.239 260.644 120.098C260.47 119.957 260.052 119.806 259.389 119.647L258.818 119.52C258.028 119.341 257.452 119.061 257.09 118.68C256.728 118.3 256.547 117.79 256.547 117.15C256.547 116.389 256.822 115.796 257.372 115.373C257.922 114.95 258.695 114.738 259.692 114.738C260.139 114.738 260.583 114.776 261.025 114.851C261.471 114.922 261.904 115.03 262.322 115.176ZM266.914 115.331H269.262V117.905H266.914V115.331ZM266.914 120.239H269.262V122.827H266.914V120.239ZM278.501 112.298H280.059L274.516 124.167H272.958L278.501 112.298ZM286.914 112.298H288.473L282.93 124.167H281.371L286.914 112.298ZM293.924 119.118C293.153 119.118 292.615 119.216 292.309 119.414C292.004 119.611 291.851 119.95 291.851 120.429C291.851 120.787 291.957 121.071 292.168 121.283C292.38 121.494 292.667 121.6 293.029 121.6C293.574 121.6 293.997 121.396 294.298 120.987C294.599 120.573 294.749 119.997 294.749 119.259V119.118H293.924ZM296.802 118.321V122.827H294.749V121.946C294.5 122.294 294.181 122.562 293.79 122.75C293.4 122.938 292.97 123.032 292.5 123.032C291.602 123.032 290.901 122.794 290.398 122.319C289.9 121.845 289.651 121.182 289.651 120.331C289.651 119.409 289.949 118.73 290.546 118.293C291.143 117.851 292.067 117.63 293.318 117.63H294.749V117.284C294.749 116.95 294.627 116.699 294.383 116.53C294.143 116.356 293.788 116.269 293.318 116.269C292.824 116.269 292.345 116.332 291.879 116.459C291.419 116.581 290.937 116.779 290.434 117.051V115.288C290.89 115.1 291.353 114.962 291.823 114.872C292.293 114.783 292.791 114.738 293.318 114.738C294.601 114.738 295.502 114.999 296.019 115.521C296.541 116.043 296.802 116.976 296.802 118.321ZM304.954 117.7V122.827H302.902V118.018C302.902 117.444 302.82 117.035 302.655 116.79C302.495 116.541 302.232 116.417 301.865 116.417C301.494 116.417 301.2 116.584 300.984 116.917C300.772 117.251 300.667 117.714 300.667 118.307V122.827H298.614V114.929H300.667V116.113C300.812 115.676 301.061 115.338 301.414 115.098C301.767 114.858 302.192 114.738 302.691 114.738C303.438 114.738 304.002 114.987 304.383 115.486C304.764 115.979 304.954 116.718 304.954 117.7ZM311.478 118.751C311.478 118.046 311.344 117.482 311.076 117.058C310.808 116.631 310.455 116.417 310.018 116.417C309.585 116.417 309.235 116.628 308.967 117.051C308.704 117.475 308.572 118.041 308.572 118.751C308.572 119.466 308.704 120.034 308.967 120.458C309.235 120.881 309.585 121.092 310.018 121.092C310.455 121.092 310.808 120.881 311.076 120.458C311.344 120.03 311.478 119.461 311.478 118.751ZM313.544 122.235C313.544 123.499 313.257 124.412 312.684 124.971C312.115 125.535 311.189 125.817 309.905 125.817C309.473 125.817 309.045 125.784 308.622 125.719C308.199 125.657 307.768 125.561 307.331 125.429V123.532C307.721 123.749 308.119 123.908 308.523 124.012C308.927 124.115 309.343 124.167 309.771 124.167C310.354 124.167 310.784 124.028 311.062 123.751C311.339 123.478 311.478 123.05 311.478 122.467V121.614C311.276 121.99 311.008 122.27 310.674 122.453C310.34 122.637 309.933 122.728 309.454 122.728C308.551 122.728 307.834 122.376 307.303 121.671C306.772 120.965 306.506 120.009 306.506 118.8C306.506 117.55 306.772 116.558 307.303 115.824C307.834 115.091 308.546 114.724 309.44 114.724C309.891 114.724 310.293 114.83 310.646 115.042C310.998 115.253 311.276 115.552 311.478 115.937V114.929H313.544V122.235ZM322 122.439C321.52 122.637 321.031 122.785 320.533 122.884C320.035 122.982 319.508 123.032 318.953 123.032C317.632 123.032 316.621 122.679 315.921 121.974C315.225 121.264 314.877 120.244 314.877 118.913C314.877 117.625 315.213 116.607 315.886 115.86C316.558 115.112 317.475 114.738 318.636 114.738C319.807 114.738 320.714 115.086 321.358 115.782C322.007 116.473 322.331 117.449 322.331 118.709V119.548H316.979C316.983 120.168 317.167 120.632 317.529 120.937C317.891 121.243 318.432 121.396 319.151 121.396C319.626 121.396 320.093 121.327 320.554 121.191C321.015 121.055 321.497 120.838 322 120.542V122.439ZM320.251 117.996C320.242 117.451 320.101 117.04 319.828 116.762C319.56 116.48 319.163 116.339 318.636 116.339C318.161 116.339 317.783 116.485 317.501 116.776C317.219 117.063 317.052 117.472 317 118.003L320.251 117.996ZM325.371 119.534V113.441H323.277V111.854H327.437V119.534C327.437 120.154 327.534 120.594 327.727 120.853C327.919 121.111 328.246 121.24 328.707 121.24H330.357V122.827H328.129C327.146 122.827 326.441 122.573 326.013 122.066C325.585 121.558 325.371 120.714 325.371 119.534ZM336.07 123.68C335.792 124.423 335.458 124.964 335.068 125.302C334.683 125.646 334.213 125.817 333.658 125.817H331.951V124.245H332.79C333.213 124.245 333.524 124.172 333.721 124.026C333.919 123.885 334.118 123.554 334.321 123.032L334.476 122.609L331.472 114.929H333.644L335.449 120.056L337.177 114.929H339.349L336.07 123.68ZM344.335 112.686V114.929H347.036V116.515H344.335V120.253C344.335 120.606 344.42 120.86 344.589 121.015C344.763 121.165 345.05 121.24 345.449 121.24H347.036V122.827H345.301C344.116 122.827 343.315 122.639 342.896 122.263C342.478 121.882 342.269 121.179 342.269 120.154V116.515H340.252V114.929H342.269V112.686H344.335ZM349.441 114.929H353.531V121.24H356.098V122.827H348.891V121.24H351.465V116.515H349.441V114.929ZM351.465 111.085H353.531V113.497H351.465V111.085ZM363.778 122.425C363.43 122.627 363.057 122.778 362.657 122.877C362.257 122.98 361.827 123.032 361.367 123.032C360.149 123.032 359.197 122.665 358.51 121.932C357.824 121.198 357.481 120.183 357.481 118.885C357.481 117.583 357.826 116.565 358.517 115.831C359.209 115.093 360.163 114.724 361.381 114.724C361.804 114.724 362.21 114.774 362.601 114.872C362.996 114.971 363.388 115.124 363.778 115.331V117.221C363.478 116.962 363.146 116.765 362.784 116.628C362.427 116.487 362.055 116.417 361.67 116.417C360.997 116.417 360.48 116.631 360.118 117.058C359.756 117.486 359.575 118.095 359.575 118.885C359.575 119.675 359.756 120.281 360.118 120.704C360.48 121.128 360.997 121.339 361.67 121.339C362.069 121.339 362.443 121.273 362.791 121.142C363.139 121.005 363.468 120.801 363.778 120.528V122.425ZM371.698 115.176V116.981C371.317 116.736 370.92 116.553 370.506 116.431C370.097 116.304 369.686 116.24 369.272 116.24C368.812 116.24 368.464 116.309 368.229 116.445C367.994 116.577 367.876 116.774 367.876 117.037C367.876 117.413 368.379 117.719 369.385 117.954L369.463 117.975L370.055 118.116C370.807 118.295 371.357 118.584 371.705 118.984C372.058 119.379 372.234 119.915 372.234 120.592C372.234 121.405 371.966 122.016 371.43 122.425C370.899 122.829 370.097 123.032 369.025 123.032C368.551 123.032 368.064 122.989 367.566 122.905C367.067 122.825 366.562 122.703 366.049 122.538V120.733C366.506 120.991 366.969 121.189 367.439 121.325C367.914 121.461 368.372 121.53 368.814 121.53C369.298 121.53 369.665 121.459 369.914 121.318C370.163 121.177 370.288 120.972 370.288 120.704C370.288 120.441 370.199 120.239 370.02 120.098C369.846 119.957 369.427 119.806 368.765 119.647L368.193 119.52C367.403 119.341 366.828 119.061 366.466 118.68C366.104 118.3 365.923 117.79 365.923 117.15C365.923 116.389 366.198 115.796 366.748 115.373C367.298 114.95 368.071 114.738 369.068 114.738C369.514 114.738 369.959 114.776 370.401 114.851C370.847 114.922 371.28 115.03 371.698 115.176ZM376.29 120.239H378.638V122.827H376.29V120.239ZM386.473 119.118C385.702 119.118 385.164 119.216 384.858 119.414C384.553 119.611 384.4 119.95 384.4 120.429C384.4 120.787 384.506 121.071 384.717 121.283C384.929 121.494 385.216 121.6 385.578 121.6C386.123 121.6 386.546 121.396 386.847 120.987C387.148 120.573 387.298 119.997 387.298 119.259V119.118H386.473ZM389.35 118.321V122.827H387.298V121.946C387.049 122.294 386.729 122.562 386.339 122.75C385.949 122.938 385.519 123.032 385.049 123.032C384.151 123.032 383.45 122.794 382.947 122.319C382.449 121.845 382.2 121.182 382.2 120.331C382.2 119.409 382.498 118.73 383.095 118.293C383.692 117.851 384.616 117.63 385.867 117.63H387.298V117.284C387.298 116.95 387.176 116.699 386.932 116.53C386.692 116.356 386.337 116.269 385.867 116.269C385.373 116.269 384.893 116.332 384.428 116.459C383.967 116.581 383.485 116.779 382.982 117.051V115.288C383.438 115.1 383.901 114.962 384.372 114.872C384.842 114.783 385.34 114.738 385.867 114.738C387.15 114.738 388.05 114.999 388.568 115.521C389.089 116.043 389.35 116.976 389.35 118.321ZM391.509 114.929H395.599V121.24H398.166V122.827H390.959V121.24H393.533V116.515H391.509V114.929ZM393.533 111.085H395.599V113.497H393.533V111.085ZM404.704 112.298H406.262L400.719 124.167H399.161L404.704 112.298ZM409.894 121.713V125.831H407.835V114.929H409.894V116.113C410.111 115.657 410.395 115.314 410.748 115.084C411.1 114.853 411.514 114.738 411.989 114.738C412.891 114.738 413.592 115.1 414.09 115.824C414.589 116.548 414.838 117.569 414.838 118.885C414.838 120.22 414.584 121.245 414.076 121.96C413.573 122.674 412.854 123.032 411.918 123.032C411.495 123.032 411.114 122.924 410.776 122.707C410.442 122.486 410.148 122.155 409.894 121.713ZM412.772 118.871C412.772 118.109 412.645 117.512 412.391 117.08C412.137 116.647 411.787 116.431 411.34 116.431C410.893 116.431 410.541 116.647 410.282 117.08C410.024 117.512 409.894 118.109 409.894 118.871C409.894 119.633 410.024 120.23 410.282 120.662C410.541 121.095 410.893 121.311 411.34 121.311C411.787 121.311 412.137 121.095 412.391 120.662C412.645 120.23 412.772 119.633 412.772 118.871ZM420.127 119.118C419.356 119.118 418.818 119.216 418.512 119.414C418.207 119.611 418.054 119.95 418.054 120.429C418.054 120.787 418.16 121.071 418.371 121.283C418.583 121.494 418.87 121.6 419.232 121.6C419.777 121.6 420.2 121.396 420.501 120.987C420.802 120.573 420.952 119.997 420.952 119.259V119.118H420.127ZM423.005 118.321V122.827H420.952V121.946C420.703 122.294 420.383 122.562 419.993 122.75C419.603 122.938 419.173 123.032 418.703 123.032C417.805 123.032 417.104 122.794 416.601 122.319C416.103 121.845 415.854 121.182 415.854 120.331C415.854 119.409 416.152 118.73 416.749 118.293C417.346 117.851 418.27 117.63 419.521 117.63H420.952V117.284C420.952 116.95 420.83 116.699 420.586 116.53C420.346 116.356 419.991 116.269 419.521 116.269C419.027 116.269 418.548 116.332 418.082 116.459C417.621 116.581 417.139 116.779 416.636 117.051V115.288C417.092 115.1 417.556 114.962 418.026 114.872C418.496 114.783 418.994 114.738 419.521 114.738C420.804 114.738 421.705 114.999 422.222 115.521C422.744 116.043 423.005 116.976 423.005 118.321ZM428.47 112.686V114.929H431.171V116.515H428.47V120.253C428.47 120.606 428.555 120.86 428.724 121.015C428.898 121.165 429.185 121.24 429.584 121.24H431.171V122.827H429.436C428.252 122.827 427.45 122.639 427.032 122.263C426.613 121.882 426.404 121.179 426.404 120.154V116.515H424.387V114.929H426.404V112.686H428.47ZM439.5 122.425C439.152 122.627 438.778 122.778 438.379 122.877C437.979 122.98 437.549 123.032 437.088 123.032C435.871 123.032 434.919 122.665 434.232 121.932C433.546 121.198 433.203 120.183 433.203 118.885C433.203 117.583 433.548 116.565 434.239 115.831C434.93 115.093 435.885 114.724 437.102 114.724C437.526 114.724 437.932 114.774 438.322 114.872C438.717 114.971 439.11 115.124 439.5 115.331V117.221C439.199 116.962 438.868 116.765 438.506 116.628C438.148 116.487 437.777 116.417 437.392 116.417C436.719 116.417 436.202 116.631 435.84 117.058C435.478 117.486 435.297 118.095 435.297 118.885C435.297 119.675 435.478 120.281 435.84 120.704C436.202 121.128 436.719 121.339 437.392 121.339C437.791 121.339 438.165 121.273 438.513 121.142C438.861 121.005 439.19 120.801 439.5 120.528V122.425ZM447.984 117.7V122.827H445.932V118.018C445.932 117.449 445.85 117.042 445.685 116.798C445.525 116.553 445.262 116.431 444.895 116.431C444.519 116.431 444.225 116.598 444.014 116.932C443.802 117.261 443.696 117.719 443.696 118.307V122.827H441.644V111.854H443.696V116.113C443.842 115.676 444.091 115.338 444.444 115.098C444.797 114.858 445.222 114.738 445.72 114.738C446.468 114.738 447.032 114.987 447.413 115.486C447.794 115.979 447.984 116.718 447.984 117.7ZM452.011 120.239H454.36V122.827H452.011V120.239ZM463.253 122.524C463.253 123.709 463.039 124.553 462.611 125.056C462.188 125.563 461.483 125.817 460.495 125.817H458.267V124.231H459.917C460.378 124.231 460.704 124.101 460.897 123.843C461.09 123.584 461.186 123.144 461.186 122.524V116.515H459.092V114.929H463.253V122.524ZM463.253 113.497H461.186V111.085H463.253V113.497ZM472.661 115.176V116.981C472.28 116.736 471.882 116.553 471.469 116.431C471.06 116.304 470.648 116.24 470.235 116.24C469.774 116.24 469.426 116.309 469.191 116.445C468.956 116.577 468.838 116.774 468.838 117.037C468.838 117.413 469.341 117.719 470.347 117.954L470.425 117.975L471.017 118.116C471.77 118.295 472.32 118.584 472.668 118.984C473.02 119.379 473.197 119.915 473.197 120.592C473.197 121.405 472.929 122.016 472.393 122.425C471.861 122.829 471.06 123.032 469.988 123.032C469.513 123.032 469.026 122.989 468.528 122.905C468.03 122.825 467.524 122.703 467.012 122.538V120.733C467.468 120.991 467.931 121.189 468.401 121.325C468.876 121.461 469.334 121.53 469.776 121.53C470.26 121.53 470.627 121.459 470.876 121.318C471.126 121.177 471.25 120.972 471.25 120.704C471.25 120.441 471.161 120.239 470.982 120.098C470.808 119.957 470.39 119.806 469.727 119.647L469.156 119.52C468.366 119.341 467.79 119.061 467.428 118.68C467.066 118.3 466.885 117.79 466.885 117.15C466.885 116.389 467.16 115.796 467.71 115.373C468.26 114.95 469.033 114.738 470.03 114.738C470.477 114.738 470.921 114.776 471.363 114.851C471.81 114.922 472.242 115.03 472.661 115.176ZM479.501 111.854H481.709V113.758L480.327 116.459H478.81L479.501 113.758V111.854ZM475.834 111.854H478.042V113.758L476.659 116.459H475.143L475.834 113.758V111.854ZM494.079 120.239H496.427V122.827H494.079V120.239ZM502.492 120.239H504.841V122.827H502.492V120.239ZM510.906 120.239H513.254V122.827H510.906V120.239ZM516.774 116.297V114.534L524.228 117.467V119.132L516.774 122.058V120.302L522.38 118.307L516.774 116.297ZM532.641 116.297L527.035 118.307L532.641 120.302V122.058L525.187 119.132V117.467L532.641 114.534V116.297ZM539.32 112.298H540.878L535.335 124.167H533.777L539.32 112.298ZM548.382 115.176V116.981C548.001 116.736 547.604 116.553 547.19 116.431C546.781 116.304 546.37 116.24 545.956 116.24C545.496 116.24 545.148 116.309 544.913 116.445C544.678 116.577 544.56 116.774 544.56 117.037C544.56 117.413 545.063 117.719 546.069 117.954L546.147 117.975L546.739 118.116C547.491 118.295 548.041 118.584 548.389 118.984C548.742 119.379 548.918 119.915 548.918 120.592C548.918 121.405 548.65 122.016 548.114 122.425C547.583 122.829 546.781 123.032 545.71 123.032C545.235 123.032 544.748 122.989 544.25 122.905C543.751 122.825 543.246 122.703 542.733 122.538V120.733C543.19 120.991 543.653 121.189 544.123 121.325C544.598 121.461 545.056 121.53 545.498 121.53C545.982 121.53 546.349 121.459 546.598 121.318C546.847 121.177 546.972 120.972 546.972 120.704C546.972 120.441 546.883 120.239 546.704 120.098C546.53 119.957 546.111 119.806 545.449 119.647L544.877 119.52C544.088 119.341 543.512 119.061 543.15 118.68C542.788 118.3 542.607 117.79 542.607 117.15C542.607 116.389 542.882 115.796 543.432 115.373C543.982 114.95 544.755 114.738 545.752 114.738C546.198 114.738 546.643 114.776 547.085 114.851C547.531 114.922 547.964 115.03 548.382 115.176ZM557.289 122.425C556.942 122.627 556.568 122.778 556.168 122.877C555.769 122.98 555.338 123.032 554.878 123.032C553.66 123.032 552.708 122.665 552.021 121.932C551.335 121.198 550.992 120.183 550.992 118.885C550.992 117.583 551.337 116.565 552.029 115.831C552.72 115.093 553.674 114.724 554.892 114.724C555.315 114.724 555.722 114.774 556.112 114.872C556.507 114.971 556.899 115.124 557.289 115.331V117.221C556.989 116.962 556.657 116.765 556.295 116.628C555.938 116.487 555.566 116.417 555.181 116.417C554.509 116.417 553.991 116.631 553.629 117.058C553.267 117.486 553.086 118.095 553.086 118.885C553.086 119.675 553.267 120.281 553.629 120.704C553.991 121.128 554.509 121.339 555.181 121.339C555.58 121.339 555.954 121.273 556.302 121.142C556.65 121.005 556.979 120.801 557.289 120.528V122.425ZM566.338 117.108C566.112 116.901 565.846 116.746 565.541 116.642C565.24 116.539 564.908 116.487 564.546 116.487C564.109 116.487 563.726 116.565 563.397 116.72C563.073 116.87 562.821 117.091 562.642 117.383C562.53 117.562 562.45 117.778 562.403 118.032C562.36 118.286 562.339 118.671 562.339 119.188V122.827H560.273V114.929H562.339V116.156C562.541 115.704 562.852 115.357 563.27 115.112C563.688 114.863 564.177 114.738 564.737 114.738C565.019 114.738 565.294 114.774 565.562 114.844C565.835 114.91 566.093 115.009 566.338 115.14V117.108ZM568.193 114.929H572.283V121.24H574.85V122.827H567.643V121.24H570.217V116.515H568.193V114.929ZM570.217 111.085H572.283V113.497H570.217V111.085ZM578.165 121.713V125.831H576.105V114.929H578.165V116.113C578.381 115.657 578.665 115.314 579.018 115.084C579.371 114.853 579.784 114.738 580.259 114.738C581.162 114.738 581.862 115.1 582.361 115.824C582.859 116.548 583.108 117.569 583.108 118.885C583.108 120.22 582.854 121.245 582.347 121.96C581.844 122.674 581.124 123.032 580.189 123.032C579.766 123.032 579.385 122.924 579.046 122.707C578.712 122.486 578.419 122.155 578.165 121.713ZM581.042 118.871C581.042 118.109 580.915 117.512 580.661 117.08C580.407 116.647 580.057 116.431 579.61 116.431C579.164 116.431 578.811 116.647 578.553 117.08C578.294 117.512 578.165 118.109 578.165 118.871C578.165 119.633 578.294 120.23 578.553 120.662C578.811 121.095 579.164 121.311 579.61 121.311C580.057 121.311 580.407 121.095 580.661 120.662C580.915 120.23 581.042 119.633 581.042 118.871ZM588.327 112.686V114.929H591.028V116.515H588.327V120.253C588.327 120.606 588.412 120.86 588.581 121.015C588.755 121.165 589.042 121.24 589.441 121.24H591.028V122.827H589.293C588.109 122.827 587.307 122.639 586.889 122.263C586.47 121.882 586.261 121.179 586.261 120.154V116.515H584.244V114.929H586.261V112.686H588.327ZM592.495 116.297V114.534L599.949 117.467V119.132L592.495 122.058V120.302L598.102 118.307L592.495 116.297Z" fill="#F2F2F2"/>
</g>
</g>
<defs>
<filter id="filter0_d_264_3350" x="0.126955" y="0.400393" width="660.873" height="329.886" filterUnits="userSpaceOnUse" color-interpolation-filters="sRGB">
<feFlood flood-opacity="0" result="BackgroundImageFix"/>
<feColorMatrix in="SourceAlpha" type="matrix" values="0 0 0 0 0 0 0 0 0 0 0 0 0 0 0 0 0 0 127 0" result="hardAlpha"/>
<feOffset/>
<feGaussianBlur stdDeviation="15"/>
<feComposite in2="hardAlpha" operator="out"/>
<feColorMatrix type="matrix" values="0 0 0 0 0 0 0 0 0 0 0 0 0 0 0 0 0 0 0.15 0"/>
<feBlend mode="normal" in2="BackgroundImageFix" result="effect1_dropShadow_264_3350"/>
<feBlend mode="normal" in="SourceGraphic" in2="effect1_dropShadow_264_3350" result="shape"/>
</filter>
<filter id="filter1_d_264_3350" x="12.0734" y="81.5518" width="636.689" height="78.364" filterUnits="userSpaceOnUse" color-interpolation-filters="sRGB">
<feFlood flood-opacity="0" result="BackgroundImageFix"/>
<feColorMatrix in="SourceAlpha" type="matrix" values="0 0 0 0 0 0 0 0 0 0 0 0 0 0 0 0 0 0 127 0" result="hardAlpha"/>
<feOffset dy="2.40714"/>
<feGaussianBlur stdDeviation="9.02678"/>
<feComposite in2="hardAlpha" operator="out"/>
<feColorMatrix type="matrix" values="0 0 0 0 0 0 0 0 0 0 0 0 0 0 0 0 0 0 0.25 0"/>
<feBlend mode="normal" in2="BackgroundImageFix" result="effect1_dropShadow_264_3350"/>
<feBlend mode="normal" in="SourceGraphic" in2="effect1_dropShadow_264_3350" result="shape"/>
</filter>
</defs>
</svg>
