<svg width="1030" height="508" viewBox="0 0 1030 508" fill="none" xmlns="http://www.w3.org/2000/svg">
<g filter="url(#filter0_d_204_652)">
<rect x="30" y="26" width="970" height="448" rx="32" fill="#F2F2F2"/>
<path d="M57.1641 75.0195H60.8438V61.8008L56.4375 63.9219V61.6484L60.8203 59.5625H63.1875V75.0195H66.8203V77H57.1641V75.0195ZM109.361 65.7383L99.3998 69.4883L109.361 73.2031V75.3477L96.9741 70.4492V68.5039L109.361 63.6055V65.7383ZM122.24 68.8672V77H120.072V68.8672C120.072 67.6875 119.865 66.8203 119.451 66.2656C119.037 65.7109 118.389 65.4336 117.506 65.4336C116.498 65.4336 115.721 65.793 115.174 66.5117C114.635 67.2227 114.365 68.2461 114.365 69.582V77H112.209V58.7656H114.365V65.8438C114.748 65.0938 115.268 64.5273 115.924 64.1445C116.58 63.7539 117.357 63.5586 118.256 63.5586C119.592 63.5586 120.588 64 121.244 64.8828C121.908 65.7578 122.24 67.0859 122.24 68.8672ZM131.1 60.1484V63.875H135.998V65.5508H131.1V72.6758C131.1 73.6445 131.284 74.3203 131.651 74.7031C132.018 75.0859 132.659 75.2773 133.573 75.2773H135.998V77H133.362C131.745 77 130.604 76.6758 129.94 76.0273C129.276 75.3789 128.944 74.2617 128.944 72.6758V65.5508H125.44V63.875H128.944V60.1484H131.1ZM145.808 65.2109C146.073 64.6484 146.409 64.2344 146.815 63.9688C147.229 63.6953 147.725 63.5586 148.304 63.5586C149.358 63.5586 150.1 63.9688 150.53 64.7891C150.968 65.6016 151.186 67.1367 151.186 69.3945V77H149.218V69.4883C149.218 67.6367 149.112 66.4883 148.901 66.043C148.698 65.5898 148.323 65.3633 147.776 65.3633C147.151 65.3633 146.722 65.6055 146.487 66.0898C146.261 66.5664 146.147 67.6992 146.147 69.4883V77H144.179V69.4883C144.179 67.6133 144.065 66.457 143.839 66.0195C143.62 65.582 143.222 65.3633 142.643 65.3633C142.073 65.3633 141.675 65.6055 141.448 66.0898C141.229 66.5664 141.12 67.6992 141.12 69.4883V77H139.163V63.875H141.12V65C141.378 64.5312 141.698 64.1758 142.081 63.9336C142.472 63.6836 142.913 63.5586 143.405 63.5586C143.999 63.5586 144.491 63.6953 144.882 63.9688C145.28 64.2422 145.589 64.6562 145.808 65.2109ZM160.292 72.2539C160.292 73.2227 160.468 73.9531 160.82 74.4453C161.179 74.9375 161.706 75.1836 162.402 75.1836H164.921V77H162.191C160.902 77 159.902 76.5898 159.191 75.7695C158.488 74.9414 158.136 73.7695 158.136 72.2539V60.3828H154.679V58.6953H160.292V72.2539ZM166.879 65.7383V63.6055L179.265 68.5039V70.4492L166.879 75.3477V73.2031L176.84 69.4883L166.879 65.7383ZM58.3711 113.008H66.4102V115H55.7812V113.008C57.2422 111.469 58.5195 110.109 59.6133 108.93C60.707 107.75 61.4609 106.918 61.875 106.434C62.6562 105.48 63.1836 104.711 63.457 104.125C63.7305 103.531 63.8672 102.926 63.8672 102.309C63.8672 101.332 63.5781 100.566 63 100.012C62.4297 99.457 61.6445 99.1797 60.6445 99.1797C59.9336 99.1797 59.1875 99.3086 58.4062 99.5664C57.625 99.8242 56.7969 100.215 55.9219 100.738V98.3477C56.7266 97.9648 57.5156 97.6758 58.2891 97.4805C59.0703 97.2852 59.8398 97.1875 60.5977 97.1875C62.3086 97.1875 63.6836 97.6445 64.7227 98.5586C65.7695 99.4648 66.293 100.656 66.293 102.133C66.293 102.883 66.1172 103.633 65.7656 104.383C65.4219 105.133 64.8594 105.961 64.0781 106.867C63.6406 107.375 63.0039 108.078 62.168 108.977C61.3398 109.875 60.0742 111.219 58.3711 113.008ZM137.323 103.738L127.362 107.488L137.323 111.203V113.348L124.936 108.449V106.504L137.323 101.605V103.738ZM150.202 106.867V115H148.034V106.867C148.034 105.688 147.827 104.82 147.413 104.266C146.999 103.711 146.35 103.434 145.468 103.434C144.46 103.434 143.683 103.793 143.136 104.512C142.597 105.223 142.327 106.246 142.327 107.582V115H140.171V96.7656H142.327V103.844C142.71 103.094 143.229 102.527 143.886 102.145C144.542 101.754 145.319 101.559 146.218 101.559C147.554 101.559 148.55 102 149.206 102.883C149.87 103.758 150.202 105.086 150.202 106.867ZM164.992 107.359V108.414H155.652V108.484C155.589 110.273 155.929 111.559 156.671 112.34C157.421 113.121 158.476 113.512 159.835 113.512C160.523 113.512 161.242 113.402 161.992 113.184C162.742 112.965 163.542 112.633 164.394 112.188V114.332C163.574 114.668 162.781 114.918 162.015 115.082C161.257 115.254 160.523 115.34 159.812 115.34C157.773 115.34 156.179 114.73 155.031 113.512C153.882 112.285 153.308 110.598 153.308 108.449C153.308 106.355 153.87 104.684 154.995 103.434C156.12 102.184 157.62 101.559 159.495 101.559C161.167 101.559 162.484 102.125 163.445 103.258C164.413 104.391 164.929 105.758 164.992 107.359ZM162.835 106.727C162.742 105.82 162.41 105.039 161.839 104.383C161.277 103.719 160.464 103.387 159.402 103.387C158.363 103.387 157.507 103.73 156.835 104.418C156.163 105.105 155.796 105.879 155.734 106.738L162.835 106.727ZM174.074 108.402H173.359C172.101 108.402 171.152 108.625 170.512 109.07C169.879 109.508 169.562 110.164 169.562 111.039C169.562 111.828 169.801 112.441 170.277 112.879C170.754 113.316 171.414 113.535 172.258 113.535C173.445 113.535 174.379 113.125 175.058 112.305C175.738 111.477 176.082 110.336 176.09 108.883V108.402H174.074ZM178.258 107.512V115H176.09V113.055C175.629 113.836 175.047 114.414 174.344 114.789C173.648 115.156 172.801 115.34 171.801 115.34C170.465 115.34 169.398 114.965 168.601 114.215C167.805 113.457 167.406 112.445 167.406 111.18C167.406 109.719 167.894 108.609 168.871 107.852C169.855 107.094 171.297 106.715 173.195 106.715H176.09V106.375C176.082 105.328 175.816 104.57 175.293 104.102C174.769 103.625 173.933 103.387 172.785 103.387C172.051 103.387 171.308 103.492 170.558 103.703C169.808 103.914 169.078 104.223 168.367 104.629V102.473C169.164 102.168 169.926 101.941 170.652 101.793C171.387 101.637 172.098 101.559 172.785 101.559C173.871 101.559 174.797 101.719 175.562 102.039C176.336 102.359 176.961 102.84 177.437 103.48C177.734 103.871 177.945 104.355 178.07 104.934C178.195 105.504 178.258 106.363 178.258 107.512ZM189.883 103.551V96.7656H192.039V115H189.883V113.348C189.524 113.996 189.043 114.492 188.442 114.836C187.848 115.172 187.16 115.34 186.379 115.34C184.793 115.34 183.543 114.727 182.629 113.5C181.723 112.266 181.27 110.566 181.27 108.402C181.27 106.27 181.727 104.598 182.641 103.387C183.555 102.168 184.801 101.559 186.379 101.559C187.168 101.559 187.864 101.73 188.465 102.074C189.067 102.41 189.539 102.902 189.883 103.551ZM183.543 108.449C183.543 110.121 183.809 111.383 184.34 112.234C184.871 113.086 185.657 113.512 186.696 113.512C187.735 113.512 188.524 113.082 189.063 112.223C189.61 111.363 189.883 110.105 189.883 108.449C189.883 106.785 189.61 105.527 189.063 104.676C188.524 103.816 187.735 103.387 186.696 103.387C185.657 103.387 184.871 103.812 184.34 104.664C183.809 105.516 183.543 106.777 183.543 108.449ZM194.841 103.738V101.605L207.227 106.504V108.449L194.841 113.348V111.203L204.802 107.488L194.841 103.738ZM62.6133 233.66L57.0938 242.906H62.6133V233.66ZM62.2266 231.504H64.9688V242.906H67.3008V244.828H64.9688V249H62.6133V244.828H55.1953V242.59L62.2266 231.504ZM165.285 237.738L155.324 241.488L165.285 245.203V247.348L152.898 242.449V240.504L165.285 235.605V237.738ZM172.246 231.504H174.625V239.18L174.379 242.777H172.492L172.246 239.18V231.504ZM171.894 246.023H174.976V249H171.894V246.023ZM181.024 240.516H193.446V242.496H181.024V240.516ZM195.005 240.516H207.427V242.496H195.005V240.516ZM226.447 233.449V240.023H229.189C230.283 240.023 231.135 239.734 231.744 239.156C232.361 238.578 232.67 237.77 232.67 236.73C232.67 235.691 232.365 234.887 231.756 234.316C231.146 233.738 230.291 233.449 229.189 233.449H226.447ZM224.08 231.504H229.189C231.142 231.504 232.623 231.949 233.631 232.84C234.638 233.723 235.142 235.02 235.142 236.73C235.142 238.457 234.638 239.762 233.631 240.645C232.631 241.527 231.15 241.969 229.189 241.969H226.447V249H224.08V231.504ZM239.455 235.922H244.975V247.324H249.252V249H238.541V247.324H242.819V237.598H239.455V235.922ZM242.819 230.824H244.975V233.543H242.819V230.824ZM262.835 235.875L258.135 242.156L263.292 249H260.796L256.952 243.738L253.12 249H250.624L255.78 242.156L251.081 235.875H253.471L256.952 240.621L260.409 235.875H262.835ZM276.839 241.359V242.414H267.499V242.484C267.437 244.273 267.777 245.559 268.519 246.34C269.269 247.121 270.323 247.512 271.683 247.512C272.37 247.512 273.089 247.402 273.839 247.184C274.589 246.965 275.39 246.633 276.241 246.188V248.332C275.421 248.668 274.628 248.918 273.863 249.082C273.105 249.254 272.37 249.34 271.659 249.34C269.62 249.34 268.027 248.73 266.878 247.512C265.73 246.285 265.155 244.598 265.155 242.449C265.155 240.355 265.718 238.684 266.843 237.434C267.968 236.184 269.468 235.559 271.343 235.559C273.015 235.559 274.331 236.125 275.292 237.258C276.261 238.391 276.777 239.758 276.839 241.359ZM274.683 240.727C274.589 239.82 274.257 239.039 273.687 238.383C273.124 237.719 272.312 237.387 271.249 237.387C270.21 237.387 269.355 237.73 268.683 238.418C268.011 239.105 267.644 239.879 267.581 240.738L274.683 240.727ZM286.121 244.254C286.121 245.223 286.297 245.953 286.648 246.445C287.008 246.938 287.535 247.184 288.23 247.184H290.75V249H288.019C286.73 249 285.73 248.59 285.019 247.77C284.316 246.941 283.965 245.77 283.965 244.254V232.383H280.508V230.695H286.121V244.254ZM316.075 231.504H318.301L309.09 251.227H306.852L316.075 231.504ZM346.556 247.559C345.923 248.145 345.209 248.59 344.412 248.895C343.623 249.191 342.767 249.34 341.845 249.34C339.627 249.34 337.9 248.547 336.666 246.961C335.431 245.367 334.814 243.137 334.814 240.27C334.814 237.41 335.439 235.184 336.689 233.59C337.939 231.988 339.677 231.188 341.904 231.188C342.638 231.188 343.341 231.293 344.013 231.504C344.685 231.707 345.334 232.02 345.959 232.441V234.867C345.326 234.266 344.677 233.824 344.013 233.543C343.349 233.254 342.646 233.109 341.904 233.109C340.365 233.109 339.209 233.707 338.435 234.902C337.67 236.09 337.287 237.879 337.287 240.27C337.287 242.699 337.658 244.5 338.4 245.672C339.15 246.836 340.298 247.418 341.845 247.418C342.369 247.418 342.826 247.359 343.216 247.242C343.615 247.117 343.974 246.926 344.295 246.668V241.969H341.752V240.023H346.556V247.559ZM354.818 237.387C353.725 237.387 352.897 237.812 352.334 238.664C351.772 239.516 351.49 240.777 351.49 242.449C351.49 244.113 351.772 245.375 352.334 246.234C352.897 247.086 353.725 247.512 354.818 247.512C355.92 247.512 356.752 247.086 357.315 246.234C357.877 245.375 358.158 244.113 358.158 242.449C358.158 240.777 357.877 239.516 357.315 238.664C356.752 237.812 355.92 237.387 354.818 237.387ZM354.818 235.559C356.639 235.559 358.029 236.148 358.99 237.328C359.959 238.508 360.443 240.215 360.443 242.449C360.443 244.691 359.963 246.402 359.002 247.582C358.041 248.754 356.647 249.34 354.818 249.34C352.998 249.34 351.608 248.754 350.647 247.582C349.686 246.402 349.205 244.691 349.205 242.449C349.205 240.215 349.686 238.508 350.647 237.328C351.608 236.148 352.998 235.559 354.818 235.559ZM368.799 237.387C367.706 237.387 366.878 237.812 366.315 238.664C365.753 239.516 365.471 240.777 365.471 242.449C365.471 244.113 365.753 245.375 366.315 246.234C366.878 247.086 367.706 247.512 368.799 247.512C369.901 247.512 370.733 247.086 371.295 246.234C371.858 245.375 372.139 244.113 372.139 242.449C372.139 240.777 371.858 239.516 371.295 238.664C370.733 237.812 369.901 237.387 368.799 237.387ZM368.799 235.559C370.62 235.559 372.01 236.148 372.971 237.328C373.94 238.508 374.424 240.215 374.424 242.449C374.424 244.691 373.944 246.402 372.983 247.582C372.022 248.754 370.628 249.34 368.799 249.34C366.979 249.34 365.588 248.754 364.628 247.582C363.667 246.402 363.186 244.691 363.186 242.449C363.186 240.215 363.667 238.508 364.628 237.328C365.588 236.148 366.979 235.559 368.799 235.559ZM385.616 242.332C385.616 240.715 385.351 239.488 384.819 238.652C384.296 237.809 383.53 237.387 382.522 237.387C381.468 237.387 380.663 237.809 380.108 238.652C379.554 239.488 379.276 240.715 379.276 242.332C379.276 243.949 379.554 245.184 380.108 246.035C380.671 246.879 381.483 247.301 382.546 247.301C383.538 247.301 384.296 246.875 384.819 246.023C385.351 245.172 385.616 243.941 385.616 242.332ZM387.772 248.156C387.772 250.125 387.308 251.617 386.378 252.633C385.448 253.648 384.081 254.156 382.276 254.156C381.683 254.156 381.062 254.102 380.413 253.992C379.765 253.883 379.116 253.723 378.468 253.512V251.379C379.233 251.738 379.929 252.004 380.554 252.176C381.179 252.348 381.753 252.434 382.276 252.434C383.44 252.434 384.288 252.117 384.819 251.484C385.351 250.852 385.616 249.848 385.616 248.473V248.379V246.914C385.272 247.648 384.804 248.195 384.21 248.555C383.616 248.914 382.894 249.094 382.042 249.094C380.511 249.094 379.288 248.48 378.374 247.254C377.46 246.027 377.003 244.387 377.003 242.332C377.003 240.27 377.46 238.625 378.374 237.398C379.288 236.172 380.511 235.559 382.042 235.559C382.886 235.559 383.601 235.727 384.187 236.062C384.772 236.398 385.249 236.918 385.616 237.621V235.922H387.772V248.156ZM397.968 244.254C397.968 245.223 398.144 245.953 398.496 246.445C398.855 246.938 399.382 247.184 400.078 247.184H402.597V249H399.867C398.578 249 397.578 248.59 396.867 247.77C396.164 246.941 395.812 245.77 395.812 244.254V232.383H392.355V230.695H397.968V244.254ZM416.648 241.359V242.414H407.309V242.484C407.246 244.273 407.586 245.559 408.328 246.34C409.078 247.121 410.133 247.512 411.492 247.512C412.18 247.512 412.898 247.402 413.648 247.184C414.398 246.965 415.199 246.633 416.051 246.188V248.332C415.23 248.668 414.438 248.918 413.672 249.082C412.914 249.254 412.18 249.34 411.469 249.34C409.43 249.34 407.836 248.73 406.688 247.512C405.539 246.285 404.965 244.598 404.965 242.449C404.965 240.355 405.527 238.684 406.652 237.434C407.777 236.184 409.277 235.559 411.152 235.559C412.824 235.559 414.141 236.125 415.102 237.258C416.07 238.391 416.586 239.758 416.648 241.359ZM414.492 240.727C414.398 239.82 414.066 239.039 413.496 238.383C412.934 237.719 412.121 237.387 411.059 237.387C410.02 237.387 409.164 237.73 408.492 238.418C407.82 239.105 407.453 239.879 407.391 240.738L414.492 240.727ZM438.704 233.59L436.208 242.543H441.2L438.704 233.59ZM437.274 231.504H440.145L445.501 249H443.052L441.763 244.441H435.634L434.368 249H431.919L437.274 231.504ZM457.783 240.867V249H455.615V240.867C455.615 239.688 455.408 238.82 454.994 238.266C454.58 237.711 453.931 237.434 453.048 237.434C452.04 237.434 451.263 237.793 450.716 238.512C450.177 239.223 449.908 240.246 449.908 241.582V249H447.751V235.875H449.908V237.844C450.29 237.094 450.81 236.527 451.466 236.145C452.122 235.754 452.9 235.559 453.798 235.559C455.134 235.559 456.13 236 456.787 236.883C457.451 237.758 457.783 239.086 457.783 240.867ZM467.674 242.402H466.959C465.701 242.402 464.752 242.625 464.111 243.07C463.478 243.508 463.162 244.164 463.162 245.039C463.162 245.828 463.4 246.441 463.877 246.879C464.353 247.316 465.014 247.535 465.857 247.535C467.045 247.535 467.978 247.125 468.658 246.305C469.338 245.477 469.682 244.336 469.689 242.883V242.402H467.674ZM471.857 241.512V249H469.689V247.055C469.228 247.836 468.646 248.414 467.943 248.789C467.248 249.156 466.4 249.34 465.4 249.34C464.064 249.34 462.998 248.965 462.201 248.215C461.404 247.457 461.006 246.445 461.006 245.18C461.006 243.719 461.494 242.609 462.471 241.852C463.455 241.094 464.896 240.715 466.795 240.715H469.689V240.375C469.682 239.328 469.416 238.57 468.892 238.102C468.369 237.625 467.533 237.387 466.385 237.387C465.65 237.387 464.908 237.492 464.158 237.703C463.408 237.914 462.678 238.223 461.967 238.629V236.473C462.764 236.168 463.525 235.941 464.252 235.793C464.986 235.637 465.697 235.559 466.385 235.559C467.471 235.559 468.396 235.719 469.162 236.039C469.935 236.359 470.56 236.84 471.037 237.48C471.334 237.871 471.545 238.355 471.67 238.934C471.795 239.504 471.857 240.363 471.857 241.512ZM481.854 244.254C481.854 245.223 482.03 245.953 482.381 246.445C482.741 246.938 483.268 247.184 483.963 247.184H486.483V249H483.752C482.463 249 481.463 248.59 480.752 247.77C480.049 246.941 479.698 245.77 479.698 244.254V232.383H476.241V230.695H481.854V244.254ZM497.464 244.781C497.104 245.695 496.647 246.898 496.093 248.391C495.319 250.453 494.8 251.711 494.534 252.164C494.175 252.773 493.725 253.23 493.186 253.535C492.647 253.84 492.018 253.992 491.3 253.992H489.565V252.188H490.843C491.475 252.188 491.972 252.004 492.331 251.637C492.69 251.27 493.147 250.32 493.702 248.789L488.628 235.875H490.913L494.804 246.141L498.636 235.875H500.921L497.464 244.781ZM508.585 232.148V235.875H513.484V237.551H508.585V244.676C508.585 245.645 508.769 246.32 509.136 246.703C509.503 247.086 510.144 247.277 511.058 247.277H513.484V249H510.847C509.23 249 508.089 248.676 507.425 248.027C506.761 247.379 506.429 246.262 506.429 244.676V237.551H502.925V235.875H506.429V232.148H508.585ZM519.074 235.922H524.594V247.324H528.871V249H518.16V247.324H522.437V237.598H519.074V235.922ZM522.437 230.824H524.594V233.543H522.437V230.824ZM541.785 248.332C541.207 248.668 540.61 248.918 539.992 249.082C539.383 249.254 538.758 249.34 538.117 249.34C536.086 249.34 534.496 248.73 533.348 247.512C532.207 246.293 531.637 244.605 531.637 242.449C531.637 240.293 532.207 238.605 533.348 237.387C534.496 236.168 536.086 235.559 538.117 235.559C538.75 235.559 539.367 235.641 539.969 235.805C540.571 235.969 541.176 236.223 541.785 236.566V238.828C541.215 238.32 540.641 237.953 540.063 237.727C539.492 237.5 538.844 237.387 538.117 237.387C536.766 237.387 535.727 237.824 535 238.699C534.274 239.574 533.91 240.824 533.91 242.449C533.91 244.066 534.274 245.316 535 246.199C535.735 247.074 536.774 247.512 538.117 247.512C538.867 247.512 539.539 247.398 540.133 247.172C540.727 246.938 541.278 246.578 541.785 246.094V248.332ZM554.735 236.332V238.441C554.118 238.082 553.497 237.812 552.872 237.633C552.247 237.453 551.61 237.363 550.962 237.363C549.985 237.363 549.255 237.523 548.77 237.844C548.294 238.156 548.055 238.637 548.055 239.285C548.055 239.871 548.235 240.309 548.595 240.598C548.954 240.887 549.848 241.168 551.278 241.441L552.145 241.605C553.216 241.809 554.024 242.215 554.571 242.824C555.126 243.434 555.403 244.227 555.403 245.203C555.403 246.5 554.942 247.516 554.02 248.25C553.098 248.977 551.817 249.34 550.177 249.34C549.528 249.34 548.848 249.27 548.138 249.129C547.427 248.996 546.657 248.793 545.829 248.52V246.293C546.634 246.707 547.403 247.02 548.138 247.23C548.872 247.434 549.567 247.535 550.223 247.535C551.177 247.535 551.915 247.344 552.438 246.961C552.962 246.57 553.223 246.027 553.223 245.332C553.223 244.332 552.266 243.641 550.352 243.258L550.259 243.234L549.45 243.07C548.208 242.828 547.302 242.422 546.731 241.852C546.161 241.273 545.876 240.488 545.876 239.496C545.876 238.238 546.302 237.27 547.153 236.59C548.005 235.902 549.22 235.559 550.798 235.559C551.501 235.559 552.177 235.625 552.825 235.758C553.473 235.883 554.11 236.074 554.735 236.332ZM583.869 248.379C583.267 248.699 582.65 248.938 582.017 249.094C581.385 249.258 580.713 249.34 580.002 249.34C577.76 249.34 576.017 248.547 574.775 246.961C573.541 245.375 572.924 243.145 572.924 240.27C572.924 237.41 573.545 235.184 574.787 233.59C576.037 231.988 577.775 231.188 580.002 231.188C580.713 231.188 581.385 231.27 582.017 231.434C582.65 231.59 583.267 231.828 583.869 232.148V234.574C583.291 234.098 582.67 233.734 582.006 233.484C581.342 233.234 580.674 233.109 580.002 233.109C578.463 233.109 577.31 233.703 576.545 234.891C575.779 236.078 575.396 237.871 575.396 240.27C575.396 242.66 575.779 244.449 576.545 245.637C577.31 246.824 578.463 247.418 580.002 247.418C580.689 247.418 581.361 247.293 582.017 247.043C582.681 246.793 583.299 246.43 583.869 245.953V248.379ZM592.494 237.387C591.401 237.387 590.573 237.812 590.01 238.664C589.448 239.516 589.166 240.777 589.166 242.449C589.166 244.113 589.448 245.375 590.01 246.234C590.573 247.086 591.401 247.512 592.494 247.512C593.596 247.512 594.428 247.086 594.99 246.234C595.553 245.375 595.834 244.113 595.834 242.449C595.834 240.777 595.553 239.516 594.99 238.664C594.428 237.812 593.596 237.387 592.494 237.387ZM592.494 235.559C594.315 235.559 595.705 236.148 596.666 237.328C597.635 238.508 598.119 240.215 598.119 242.449C598.119 244.691 597.639 246.402 596.678 247.582C595.717 248.754 594.323 249.34 592.494 249.34C590.674 249.34 589.283 248.754 588.323 247.582C587.362 246.402 586.881 244.691 586.881 242.449C586.881 240.215 587.362 238.508 588.323 237.328C589.283 236.148 590.674 235.559 592.494 235.559ZM609.311 237.551V230.766H611.468V249H609.311V247.348C608.952 247.996 608.471 248.492 607.87 248.836C607.276 249.172 606.589 249.34 605.807 249.34C604.221 249.34 602.971 248.727 602.057 247.5C601.151 246.266 600.698 244.566 600.698 242.402C600.698 240.27 601.155 238.598 602.069 237.387C602.983 236.168 604.229 235.559 605.807 235.559C606.596 235.559 607.292 235.73 607.893 236.074C608.495 236.41 608.968 236.902 609.311 237.551ZM602.971 242.449C602.971 244.121 603.237 245.383 603.768 246.234C604.3 247.086 605.085 247.512 606.124 247.512C607.163 247.512 607.952 247.082 608.491 246.223C609.038 245.363 609.311 244.105 609.311 242.449C609.311 240.785 609.038 239.527 608.491 238.676C607.952 237.816 607.163 237.387 606.124 237.387C605.085 237.387 604.3 237.812 603.768 238.664C603.237 239.516 602.971 240.777 602.971 242.449ZM626.362 241.359V242.414H617.023V242.484C616.96 244.273 617.3 245.559 618.042 246.34C618.792 247.121 619.847 247.512 621.206 247.512C621.894 247.512 622.612 247.402 623.362 247.184C624.112 246.965 624.913 246.633 625.765 246.188V248.332C624.945 248.668 624.152 248.918 623.386 249.082C622.628 249.254 621.894 249.34 621.183 249.34C619.144 249.34 617.55 248.73 616.402 247.512C615.253 246.285 614.679 244.598 614.679 242.449C614.679 240.355 615.241 238.684 616.366 237.434C617.491 236.184 618.991 235.559 620.866 235.559C622.538 235.559 623.855 236.125 624.816 237.258C625.784 238.391 626.3 239.758 626.362 241.359ZM624.206 240.727C624.112 239.82 623.78 239.039 623.21 238.383C622.648 237.719 621.835 237.387 620.773 237.387C619.734 237.387 618.878 237.73 618.206 238.418C617.534 239.105 617.167 239.879 617.105 240.738L624.206 240.727ZM642.395 240.516H654.817V242.496H642.395V240.516ZM656.376 240.516H668.797V242.496H656.376V240.516ZM684.173 237.738V235.605L696.56 240.504V242.449L684.173 247.348V245.203L694.134 241.488L684.173 237.738ZM56.4258 269.504H65.2852V271.496H58.582V275.797C58.918 275.672 59.2539 275.582 59.5898 275.527C59.9336 275.465 60.2773 275.434 60.6211 275.434C62.4336 275.434 63.8711 275.969 64.9336 277.039C65.9961 278.109 66.5273 279.559 66.5273 281.387C66.5273 283.23 65.9688 284.684 64.8516 285.746C63.7422 286.809 62.2227 287.34 60.293 287.34C59.3633 287.34 58.5117 287.277 57.7383 287.152C56.9727 287.027 56.2852 286.84 55.6758 286.59V284.188C56.3945 284.578 57.1172 284.871 57.8438 285.066C58.5703 285.254 59.3125 285.348 60.0703 285.348C61.375 285.348 62.3789 285.004 63.082 284.316C63.793 283.629 64.1484 282.652 64.1484 281.387C64.1484 280.137 63.7812 279.164 63.0469 278.469C62.3203 277.773 61.3047 277.426 60 277.426C59.3672 277.426 58.75 277.5 58.1484 277.648C57.5469 277.789 56.9727 278.004 56.4258 278.293V269.504ZM165.285 275.738L155.324 279.488L165.285 283.203V285.348L152.898 280.449V278.504L165.285 273.605V275.738ZM177.25 274.332V276.441C176.633 276.082 176.012 275.812 175.387 275.633C174.762 275.453 174.125 275.363 173.476 275.363C172.5 275.363 171.769 275.523 171.285 275.844C170.808 276.156 170.57 276.637 170.57 277.285C170.57 277.871 170.75 278.309 171.109 278.598C171.469 278.887 172.363 279.168 173.793 279.441L174.66 279.605C175.73 279.809 176.539 280.215 177.086 280.824C177.64 281.434 177.918 282.227 177.918 283.203C177.918 284.5 177.457 285.516 176.535 286.25C175.613 286.977 174.332 287.34 172.691 287.34C172.043 287.34 171.363 287.27 170.652 287.129C169.941 286.996 169.172 286.793 168.344 286.52V284.293C169.148 284.707 169.918 285.02 170.652 285.23C171.387 285.434 172.082 285.535 172.738 285.535C173.691 285.535 174.43 285.344 174.953 284.961C175.476 284.57 175.738 284.027 175.738 283.332C175.738 282.332 174.781 281.641 172.867 281.258L172.773 281.234L171.965 281.07C170.723 280.828 169.816 280.422 169.246 279.852C168.676 279.273 168.39 278.488 168.39 277.496C168.39 276.238 168.816 275.27 169.668 274.59C170.519 273.902 171.734 273.559 173.312 273.559C174.015 273.559 174.691 273.625 175.34 273.758C175.988 273.883 176.625 274.074 177.25 274.332ZM192.262 286.332C191.684 286.668 191.086 286.918 190.469 287.082C189.86 287.254 189.235 287.34 188.594 287.34C186.563 287.34 184.973 286.73 183.825 285.512C182.684 284.293 182.114 282.605 182.114 280.449C182.114 278.293 182.684 276.605 183.825 275.387C184.973 274.168 186.563 273.559 188.594 273.559C189.227 273.559 189.844 273.641 190.446 273.805C191.047 273.969 191.653 274.223 192.262 274.566V276.828C191.692 276.32 191.118 275.953 190.539 275.727C189.969 275.5 189.321 275.387 188.594 275.387C187.243 275.387 186.203 275.824 185.477 276.699C184.75 277.574 184.387 278.824 184.387 280.449C184.387 282.066 184.75 283.316 185.477 284.199C186.211 285.074 187.25 285.512 188.594 285.512C189.344 285.512 190.016 285.398 190.61 285.172C191.203 284.938 191.754 284.578 192.262 284.094V286.332ZM207.345 276.582C206.884 276.223 206.415 275.961 205.938 275.797C205.462 275.633 204.938 275.551 204.368 275.551C203.024 275.551 201.997 275.973 201.286 276.816C200.575 277.66 200.22 278.879 200.22 280.473V287H198.052V273.875H200.22V276.441C200.579 275.512 201.13 274.801 201.872 274.309C202.622 273.809 203.509 273.559 204.532 273.559C205.063 273.559 205.559 273.625 206.02 273.758C206.481 273.891 206.923 274.098 207.345 274.379V276.582ZM211.493 273.922H217.013V285.324H221.29V287H210.579V285.324H214.857V275.598H211.493V273.922ZM214.857 268.824H217.013V271.543H214.857V268.824ZM226.166 285.348V291.992H223.998V273.875H226.166V275.551C226.525 274.902 227.002 274.41 227.595 274.074C228.197 273.73 228.888 273.559 229.67 273.559C231.256 273.559 232.498 274.172 233.396 275.398C234.303 276.625 234.756 278.324 234.756 280.496C234.756 282.629 234.303 284.305 233.396 285.523C232.49 286.734 231.248 287.34 229.67 287.34C228.873 287.34 228.174 287.172 227.572 286.836C226.978 286.492 226.51 285.996 226.166 285.348ZM232.494 280.449C232.494 278.777 232.228 277.516 231.697 276.664C231.174 275.812 230.392 275.387 229.353 275.387C228.306 275.387 227.513 275.816 226.974 276.676C226.435 277.527 226.166 278.785 226.166 280.449C226.166 282.105 226.435 283.363 226.974 284.223C227.513 285.082 228.306 285.512 229.353 285.512C230.392 285.512 231.174 285.086 231.697 284.234C232.228 283.383 232.494 282.121 232.494 280.449ZM242.947 270.148V273.875H247.846V275.551H242.947V282.676C242.947 283.645 243.131 284.32 243.498 284.703C243.865 285.086 244.506 285.277 245.42 285.277H247.846V287H245.209C243.592 287 242.451 286.676 241.787 286.027C241.123 285.379 240.791 284.262 240.791 282.676V275.551H237.287V273.875H240.791V270.148H242.947ZM250.764 275.738V273.605L263.151 278.504V280.449L250.764 285.348V283.203L260.725 279.488L250.764 275.738ZM184.387 320.266H188.512V325H184.387V320.266ZM198.368 320.266H202.493V325H198.368V320.266ZM212.349 320.266H216.474V325H212.349V320.266ZM57.1641 361.02H60.8438V347.801L56.4375 349.922V347.648L60.8203 345.562H63.1875V361.02H66.8203V363H57.1641V361.02ZM75.1997 345.246C77.0669 345.246 78.477 346.008 79.4302 347.531C80.3911 349.055 80.8716 351.309 80.8716 354.293C80.8716 357.277 80.3911 359.531 79.4302 361.055C78.477 362.578 77.0669 363.34 75.1997 363.34C73.3325 363.34 71.9223 362.578 70.9692 361.055C70.0161 359.531 69.5395 357.277 69.5395 354.293C69.5395 351.309 70.0161 349.055 70.9692 347.531C71.9223 346.008 73.3325 345.246 75.1997 345.246ZM75.1997 361.465C76.3091 361.465 77.1333 360.875 77.6723 359.695C78.2192 358.516 78.4927 356.715 78.4927 354.293C78.4927 353.004 78.4145 351.84 78.2583 350.801L72.6802 359.531C73.2661 360.82 74.1059 361.465 75.1997 361.465ZM75.1997 347.121C74.0981 347.121 73.2739 347.711 72.727 348.891C72.188 350.07 71.9184 351.871 71.9184 354.293C71.9184 355.395 71.9927 356.426 72.1411 357.387L77.602 348.68C77.0083 347.641 76.2075 347.121 75.1997 347.121ZM165.285 351.738L155.324 355.488L165.285 359.203V361.348L152.898 356.449V354.504L165.285 349.605V351.738ZM176.265 345.504H178.492L169.281 365.227H167.043L176.265 345.504ZM191.231 350.332V352.441C190.614 352.082 189.993 351.812 189.368 351.633C188.743 351.453 188.106 351.363 187.457 351.363C186.481 351.363 185.75 351.523 185.266 351.844C184.789 352.156 184.551 352.637 184.551 353.285C184.551 353.871 184.731 354.309 185.09 354.598C185.45 354.887 186.344 355.168 187.774 355.441L188.641 355.605C189.711 355.809 190.52 356.215 191.067 356.824C191.621 357.434 191.899 358.227 191.899 359.203C191.899 360.5 191.438 361.516 190.516 362.25C189.594 362.977 188.313 363.34 186.672 363.34C186.024 363.34 185.344 363.27 184.633 363.129C183.922 362.996 183.153 362.793 182.325 362.52V360.293C183.129 360.707 183.899 361.02 184.633 361.23C185.368 361.434 186.063 361.535 186.719 361.535C187.672 361.535 188.41 361.344 188.934 360.961C189.457 360.57 189.719 360.027 189.719 359.332C189.719 358.332 188.762 357.641 186.848 357.258L186.754 357.234L185.946 357.07C184.703 356.828 183.797 356.422 183.227 355.852C182.657 355.273 182.371 354.488 182.371 353.496C182.371 352.238 182.797 351.27 183.649 350.59C184.5 349.902 185.715 349.559 187.293 349.559C187.996 349.559 188.672 349.625 189.321 349.758C189.969 349.883 190.606 350.074 191.231 350.332ZM206.243 362.332C205.665 362.668 205.067 362.918 204.45 363.082C203.841 363.254 203.216 363.34 202.575 363.34C200.544 363.34 198.954 362.73 197.805 361.512C196.665 360.293 196.095 358.605 196.095 356.449C196.095 354.293 196.665 352.605 197.805 351.387C198.954 350.168 200.544 349.559 202.575 349.559C203.208 349.559 203.825 349.641 204.427 349.805C205.028 349.969 205.634 350.223 206.243 350.566V352.828C205.673 352.32 205.098 351.953 204.52 351.727C203.95 351.5 203.302 351.387 202.575 351.387C201.223 351.387 200.184 351.824 199.458 352.699C198.731 353.574 198.368 354.824 198.368 356.449C198.368 358.066 198.731 359.316 199.458 360.199C200.192 361.074 201.231 361.512 202.575 361.512C203.325 361.512 203.997 361.398 204.591 361.172C205.184 360.938 205.735 360.578 206.243 360.094V362.332ZM221.325 352.582C220.865 352.223 220.396 351.961 219.919 351.797C219.443 351.633 218.919 351.551 218.349 351.551C217.005 351.551 215.978 351.973 215.267 352.816C214.556 353.66 214.2 354.879 214.2 356.473V363H212.033V349.875H214.2V352.441C214.56 351.512 215.111 350.801 215.853 350.309C216.603 349.809 217.49 349.559 218.513 349.559C219.044 349.559 219.54 349.625 220.001 349.758C220.462 349.891 220.904 350.098 221.325 350.379V352.582ZM225.474 349.922H230.994V361.324H235.271V363H224.56V361.324H228.838V351.598H225.474V349.922ZM228.838 344.824H230.994V347.543H228.838V344.824ZM240.147 361.348V367.992H237.979V349.875H240.147V351.551C240.506 350.902 240.983 350.41 241.576 350.074C242.178 349.73 242.869 349.559 243.651 349.559C245.237 349.559 246.479 350.172 247.377 351.398C248.283 352.625 248.737 354.324 248.737 356.496C248.737 358.629 248.283 360.305 247.377 361.523C246.471 362.734 245.229 363.34 243.651 363.34C242.854 363.34 242.155 363.172 241.553 362.836C240.959 362.492 240.49 361.996 240.147 361.348ZM246.475 356.449C246.475 354.777 246.209 353.516 245.678 352.664C245.155 351.812 244.373 351.387 243.334 351.387C242.287 351.387 241.494 351.816 240.955 352.676C240.416 353.527 240.147 354.785 240.147 356.449C240.147 358.105 240.416 359.363 240.955 360.223C241.494 361.082 242.287 361.512 243.334 361.512C244.373 361.512 245.155 361.086 245.678 360.234C246.209 359.383 246.475 358.121 246.475 356.449ZM256.928 346.148V349.875H261.827V351.551H256.928V358.676C256.928 359.645 257.112 360.32 257.479 360.703C257.846 361.086 258.487 361.277 259.401 361.277H261.827V363H259.19C257.573 363 256.432 362.676 255.768 362.027C255.104 361.379 254.772 360.262 254.772 358.676V351.551H251.268V349.875H254.772V346.148H256.928ZM264.745 351.738V349.605L277.132 354.504V356.449L264.745 361.348V359.203L274.706 355.488L264.745 351.738ZM57.1641 399.02H60.8438V385.801L56.4375 387.922V385.648L60.8203 383.562H63.1875V399.02H66.8203V401H57.1641V399.02ZM71.145 399.02H74.8247V385.801L70.4184 387.922V385.648L74.8013 383.562H77.1684V399.02H80.8013V401H71.145V399.02ZM165.285 389.738L155.324 393.488L165.285 397.203V399.348L152.898 394.449V392.504L165.285 387.605V389.738ZM172.246 383.504H174.625V391.18L174.379 394.777H172.492L172.246 391.18V383.504ZM171.894 398.023H174.976V401H171.894V398.023ZM181.024 392.516H193.446V394.496H181.024V392.516ZM195.005 392.516H207.427V394.496H195.005V392.516ZM224.08 383.504H234.463V385.496H226.447V390.207H234.111V392.199H226.447V399.008H234.685V401H224.08V383.504ZM248.069 392.867V401H245.901V392.867C245.901 391.688 245.694 390.82 245.28 390.266C244.865 389.711 244.217 389.434 243.334 389.434C242.326 389.434 241.549 389.793 241.002 390.512C240.463 391.223 240.194 392.246 240.194 393.582V401H238.037V387.875H240.194V389.844C240.576 389.094 241.096 388.527 241.752 388.145C242.408 387.754 243.186 387.559 244.084 387.559C245.42 387.559 246.416 388 247.072 388.883C247.737 389.758 248.069 391.086 248.069 392.867ZM259.788 389.551V382.766H261.944V401H259.788V399.348C259.428 399.996 258.948 400.492 258.346 400.836C257.753 401.172 257.065 401.34 256.284 401.34C254.698 401.34 253.448 400.727 252.534 399.5C251.628 398.266 251.175 396.566 251.175 394.402C251.175 392.27 251.632 390.598 252.546 389.387C253.46 388.168 254.706 387.559 256.284 387.559C257.073 387.559 257.768 387.73 258.37 388.074C258.971 388.41 259.444 388.902 259.788 389.551ZM253.448 394.449C253.448 396.121 253.714 397.383 254.245 398.234C254.776 399.086 255.561 399.512 256.6 399.512C257.639 399.512 258.428 399.082 258.967 398.223C259.514 397.363 259.788 396.105 259.788 394.449C259.788 392.785 259.514 391.527 258.967 390.676C258.428 389.816 257.639 389.387 256.6 389.387C255.561 389.387 254.776 389.812 254.245 390.664C253.714 391.516 253.448 392.777 253.448 394.449ZM282.371 385.449V392.023H285.113C286.207 392.023 287.058 391.734 287.668 391.156C288.285 390.578 288.593 389.77 288.593 388.73C288.593 387.691 288.289 386.887 287.679 386.316C287.07 385.738 286.215 385.449 285.113 385.449H282.371ZM280.004 383.504H285.113C287.066 383.504 288.547 383.949 289.554 384.84C290.562 385.723 291.066 387.02 291.066 388.73C291.066 390.457 290.562 391.762 289.554 392.645C288.554 393.527 287.074 393.969 285.113 393.969H282.371V401H280.004V383.504ZM295.379 387.922H300.899V399.324H305.176V401H294.465V399.324H298.742V389.598H295.379V387.922ZM298.742 382.824H300.899V385.543H298.742V382.824ZM318.758 387.875L314.059 394.156L319.215 401H316.719L312.876 395.738L309.044 401H306.548L311.704 394.156L307.005 387.875H309.395L312.876 392.621L316.333 387.875H318.758ZM332.763 393.359V394.414H323.423V394.484C323.36 396.273 323.7 397.559 324.443 398.34C325.193 399.121 326.247 399.512 327.607 399.512C328.294 399.512 329.013 399.402 329.763 399.184C330.513 398.965 331.314 398.633 332.165 398.188V400.332C331.345 400.668 330.552 400.918 329.786 401.082C329.028 401.254 328.294 401.34 327.583 401.34C325.544 401.34 323.95 400.73 322.802 399.512C321.653 398.285 321.079 396.598 321.079 394.449C321.079 392.355 321.642 390.684 322.767 389.434C323.892 388.184 325.392 387.559 327.267 387.559C328.939 387.559 330.255 388.125 331.216 389.258C332.185 390.391 332.7 391.758 332.763 393.359ZM330.607 392.727C330.513 391.82 330.181 391.039 329.61 390.383C329.048 389.719 328.235 389.387 327.173 389.387C326.134 389.387 325.278 389.73 324.607 390.418C323.935 391.105 323.568 391.879 323.505 392.738L330.607 392.727ZM342.045 396.254C342.045 397.223 342.22 397.953 342.572 398.445C342.931 398.938 343.459 399.184 344.154 399.184H346.673V401H343.943C342.654 401 341.654 400.59 340.943 399.77C340.24 398.941 339.888 397.77 339.888 396.254V384.383H336.431V382.695H342.045V396.254ZM371.999 383.504H374.225L365.014 403.227H362.776L371.999 383.504ZM402.48 399.559C401.847 400.145 401.132 400.59 400.335 400.895C399.546 401.191 398.691 401.34 397.769 401.34C395.55 401.34 393.824 400.547 392.589 398.961C391.355 397.367 390.738 395.137 390.738 392.27C390.738 389.41 391.363 387.184 392.613 385.59C393.863 383.988 395.601 383.188 397.828 383.188C398.562 383.188 399.265 383.293 399.937 383.504C400.609 383.707 401.257 384.02 401.882 384.441V386.867C401.25 386.266 400.601 385.824 399.937 385.543C399.273 385.254 398.57 385.109 397.828 385.109C396.289 385.109 395.132 385.707 394.359 386.902C393.593 388.09 393.21 389.879 393.21 392.27C393.21 394.699 393.582 396.5 394.324 397.672C395.074 398.836 396.222 399.418 397.769 399.418C398.293 399.418 398.75 399.359 399.14 399.242C399.539 399.117 399.898 398.926 400.218 398.668V393.969H397.675V392.023H402.48V399.559ZM410.742 389.387C409.648 389.387 408.82 389.812 408.258 390.664C407.695 391.516 407.414 392.777 407.414 394.449C407.414 396.113 407.695 397.375 408.258 398.234C408.82 399.086 409.648 399.512 410.742 399.512C411.844 399.512 412.676 399.086 413.238 398.234C413.801 397.375 414.082 396.113 414.082 394.449C414.082 392.777 413.801 391.516 413.238 390.664C412.676 389.812 411.844 389.387 410.742 389.387ZM410.742 387.559C412.562 387.559 413.953 388.148 414.914 389.328C415.883 390.508 416.367 392.215 416.367 394.449C416.367 396.691 415.887 398.402 414.926 399.582C413.965 400.754 412.57 401.34 410.742 401.34C408.922 401.34 407.531 400.754 406.57 399.582C405.609 398.402 405.129 396.691 405.129 394.449C405.129 392.215 405.609 390.508 406.57 389.328C407.531 388.148 408.922 387.559 410.742 387.559ZM424.723 389.387C423.629 389.387 422.801 389.812 422.239 390.664C421.676 391.516 421.395 392.777 421.395 394.449C421.395 396.113 421.676 397.375 422.239 398.234C422.801 399.086 423.629 399.512 424.723 399.512C425.825 399.512 426.657 399.086 427.219 398.234C427.782 397.375 428.063 396.113 428.063 394.449C428.063 392.777 427.782 391.516 427.219 390.664C426.657 389.812 425.825 389.387 424.723 389.387ZM424.723 387.559C426.543 387.559 427.934 388.148 428.895 389.328C429.864 390.508 430.348 392.215 430.348 394.449C430.348 396.691 429.868 398.402 428.907 399.582C427.946 400.754 426.551 401.34 424.723 401.34C422.903 401.34 421.512 400.754 420.551 399.582C419.59 398.402 419.11 396.691 419.11 394.449C419.11 392.215 419.59 390.508 420.551 389.328C421.512 388.148 422.903 387.559 424.723 387.559ZM441.54 394.332C441.54 392.715 441.274 391.488 440.743 390.652C440.22 389.809 439.454 389.387 438.446 389.387C437.392 389.387 436.587 389.809 436.032 390.652C435.478 391.488 435.2 392.715 435.2 394.332C435.2 395.949 435.478 397.184 436.032 398.035C436.595 398.879 437.407 399.301 438.47 399.301C439.462 399.301 440.22 398.875 440.743 398.023C441.274 397.172 441.54 395.941 441.54 394.332ZM443.696 400.156C443.696 402.125 443.231 403.617 442.302 404.633C441.372 405.648 440.005 406.156 438.2 406.156C437.606 406.156 436.985 406.102 436.337 405.992C435.688 405.883 435.04 405.723 434.392 405.512V403.379C435.157 403.738 435.853 404.004 436.478 404.176C437.103 404.348 437.677 404.434 438.2 404.434C439.364 404.434 440.212 404.117 440.743 403.484C441.274 402.852 441.54 401.848 441.54 400.473V400.379V398.914C441.196 399.648 440.728 400.195 440.134 400.555C439.54 400.914 438.817 401.094 437.966 401.094C436.435 401.094 435.212 400.48 434.298 399.254C433.384 398.027 432.927 396.387 432.927 394.332C432.927 392.27 433.384 390.625 434.298 389.398C435.212 388.172 436.435 387.559 437.966 387.559C438.81 387.559 439.524 387.727 440.11 388.062C440.696 388.398 441.173 388.918 441.54 389.621V387.922H443.696V400.156ZM453.892 396.254C453.892 397.223 454.068 397.953 454.419 398.445C454.779 398.938 455.306 399.184 456.001 399.184H458.521V401H455.79C454.501 401 453.501 400.59 452.79 399.77C452.087 398.941 451.736 397.77 451.736 396.254V384.383H448.279V382.695H453.892V396.254ZM472.572 393.359V394.414H463.232V394.484C463.17 396.273 463.51 397.559 464.252 398.34C465.002 399.121 466.057 399.512 467.416 399.512C468.103 399.512 468.822 399.402 469.572 399.184C470.322 398.965 471.123 398.633 471.975 398.188V400.332C471.154 400.668 470.361 400.918 469.596 401.082C468.838 401.254 468.103 401.34 467.392 401.34C465.353 401.34 463.76 400.73 462.611 399.512C461.463 398.285 460.889 396.598 460.889 394.449C460.889 392.355 461.451 390.684 462.576 389.434C463.701 388.184 465.201 387.559 467.076 387.559C468.748 387.559 470.064 388.125 471.025 389.258C471.994 390.391 472.51 391.758 472.572 393.359ZM470.416 392.727C470.322 391.82 469.99 391.039 469.42 390.383C468.857 389.719 468.045 389.387 466.982 389.387C465.943 389.387 465.088 389.73 464.416 390.418C463.744 391.105 463.377 391.879 463.314 392.738L470.416 392.727ZM494.628 385.59L492.132 394.543H497.124L494.628 385.59ZM493.198 383.504H496.069L501.425 401H498.975L497.686 396.441H491.557L490.292 401H487.843L493.198 383.504ZM513.706 392.867V401H511.538V392.867C511.538 391.688 511.331 390.82 510.917 390.266C510.503 389.711 509.855 389.434 508.972 389.434C507.964 389.434 507.187 389.793 506.64 390.512C506.101 391.223 505.831 392.246 505.831 393.582V401H503.675V387.875H505.831V389.844C506.214 389.094 506.734 388.527 507.39 388.145C508.046 387.754 508.824 387.559 509.722 387.559C511.058 387.559 512.054 388 512.71 388.883C513.374 389.758 513.706 391.086 513.706 392.867ZM523.598 394.402H522.883C521.625 394.402 520.676 394.625 520.035 395.07C519.402 395.508 519.086 396.164 519.086 397.039C519.086 397.828 519.324 398.441 519.801 398.879C520.277 399.316 520.937 399.535 521.781 399.535C522.969 399.535 523.902 399.125 524.582 398.305C525.262 397.477 525.605 396.336 525.613 394.883V394.402H523.598ZM527.781 393.512V401H525.613V399.055C525.152 399.836 524.57 400.414 523.867 400.789C523.172 401.156 522.324 401.34 521.324 401.34C519.988 401.34 518.922 400.965 518.125 400.215C517.328 399.457 516.93 398.445 516.93 397.18C516.93 395.719 517.418 394.609 518.394 393.852C519.379 393.094 520.82 392.715 522.719 392.715H525.613V392.375C525.605 391.328 525.34 390.57 524.816 390.102C524.293 389.625 523.457 389.387 522.308 389.387C521.574 389.387 520.832 389.492 520.082 389.703C519.332 389.914 518.601 390.223 517.89 390.629V388.473C518.687 388.168 519.449 387.941 520.176 387.793C520.91 387.637 521.621 387.559 522.308 387.559C523.394 387.559 524.32 387.719 525.086 388.039C525.859 388.359 526.484 388.84 526.961 389.48C527.258 389.871 527.469 390.355 527.594 390.934C527.719 391.504 527.781 392.363 527.781 393.512ZM537.778 396.254C537.778 397.223 537.953 397.953 538.305 398.445C538.664 398.938 539.192 399.184 539.887 399.184H542.407V401H539.676C538.387 401 537.387 400.59 536.676 399.77C535.973 398.941 535.621 397.77 535.621 396.254V384.383H532.164V382.695H537.778V396.254ZM553.388 396.781C553.028 397.695 552.571 398.898 552.016 400.391C551.243 402.453 550.723 403.711 550.458 404.164C550.098 404.773 549.649 405.23 549.11 405.535C548.571 405.84 547.942 405.992 547.223 405.992H545.489V404.188H546.766C547.399 404.188 547.895 404.004 548.255 403.637C548.614 403.27 549.071 402.32 549.626 400.789L544.552 387.875H546.837L550.727 398.141L554.559 387.875H556.845L553.388 396.781ZM564.509 384.148V387.875H569.408V389.551H564.509V396.676C564.509 397.645 564.693 398.32 565.06 398.703C565.427 399.086 566.068 399.277 566.982 399.277H569.408V401H566.771C565.154 401 564.013 400.676 563.349 400.027C562.685 399.379 562.353 398.262 562.353 396.676V389.551H558.849V387.875H562.353V384.148H564.509ZM574.998 387.922H580.517V399.324H584.795V401H574.084V399.324H578.361V389.598H574.998V387.922ZM578.361 382.824H580.517V385.543H578.361V382.824ZM597.709 400.332C597.131 400.668 596.533 400.918 595.916 401.082C595.307 401.254 594.682 401.34 594.041 401.34C592.01 401.34 590.42 400.73 589.272 399.512C588.131 398.293 587.561 396.605 587.561 394.449C587.561 392.293 588.131 390.605 589.272 389.387C590.42 388.168 592.01 387.559 594.041 387.559C594.674 387.559 595.291 387.641 595.893 387.805C596.494 387.969 597.1 388.223 597.709 388.566V390.828C597.139 390.32 596.565 389.953 595.987 389.727C595.416 389.5 594.768 389.387 594.041 389.387C592.69 389.387 591.651 389.824 590.924 390.699C590.198 391.574 589.834 392.824 589.834 394.449C589.834 396.066 590.198 397.316 590.924 398.199C591.658 399.074 592.698 399.512 594.041 399.512C594.791 399.512 595.463 399.398 596.057 399.172C596.651 398.938 597.201 398.578 597.709 398.094V400.332ZM610.659 388.332V390.441C610.042 390.082 609.421 389.812 608.796 389.633C608.171 389.453 607.534 389.363 606.885 389.363C605.909 389.363 605.178 389.523 604.694 389.844C604.218 390.156 603.979 390.637 603.979 391.285C603.979 391.871 604.159 392.309 604.518 392.598C604.878 392.887 605.772 393.168 607.202 393.441L608.069 393.605C609.139 393.809 609.948 394.215 610.495 394.824C611.05 395.434 611.327 396.227 611.327 397.203C611.327 398.5 610.866 399.516 609.944 400.25C609.022 400.977 607.741 401.34 606.1 401.34C605.452 401.34 604.772 401.27 604.061 401.129C603.35 400.996 602.581 400.793 601.753 400.52V398.293C602.557 398.707 603.327 399.02 604.061 399.23C604.796 399.434 605.491 399.535 606.147 399.535C607.1 399.535 607.839 399.344 608.362 398.961C608.885 398.57 609.147 398.027 609.147 397.332C609.147 396.332 608.19 395.641 606.276 395.258L606.182 395.234L605.374 395.07C604.132 394.828 603.225 394.422 602.655 393.852C602.085 393.273 601.8 392.488 601.8 391.496C601.8 390.238 602.225 389.27 603.077 388.59C603.928 387.902 605.143 387.559 606.721 387.559C607.425 387.559 608.1 387.625 608.749 387.758C609.397 387.883 610.034 388.074 610.659 388.332ZM653.774 400.379C653.172 400.699 652.555 400.938 651.922 401.094C651.289 401.258 650.617 401.34 649.906 401.34C647.664 401.34 645.922 400.547 644.68 398.961C643.445 397.375 642.828 395.145 642.828 392.27C642.828 389.41 643.449 387.184 644.692 385.59C645.942 383.988 647.68 383.188 649.906 383.188C650.617 383.188 651.289 383.27 651.922 383.434C652.555 383.59 653.172 383.828 653.774 384.148V386.574C653.195 386.098 652.574 385.734 651.91 385.484C651.246 385.234 650.578 385.109 649.906 385.109C648.367 385.109 647.215 385.703 646.449 386.891C645.684 388.078 645.301 389.871 645.301 392.27C645.301 394.66 645.684 396.449 646.449 397.637C647.215 398.824 648.367 399.418 649.906 399.418C650.594 399.418 651.266 399.293 651.922 399.043C652.586 398.793 653.203 398.43 653.774 397.953V400.379ZM662.399 389.387C661.305 389.387 660.477 389.812 659.915 390.664C659.352 391.516 659.071 392.777 659.071 394.449C659.071 396.113 659.352 397.375 659.915 398.234C660.477 399.086 661.305 399.512 662.399 399.512C663.501 399.512 664.333 399.086 664.895 398.234C665.458 397.375 665.739 396.113 665.739 394.449C665.739 392.777 665.458 391.516 664.895 390.664C664.333 389.812 663.501 389.387 662.399 389.387ZM662.399 387.559C664.219 387.559 665.61 388.148 666.571 389.328C667.54 390.508 668.024 392.215 668.024 394.449C668.024 396.691 667.544 398.402 666.583 399.582C665.622 400.754 664.227 401.34 662.399 401.34C660.579 401.34 659.188 400.754 658.227 399.582C657.266 398.402 656.786 396.691 656.786 394.449C656.786 392.215 657.266 390.508 658.227 389.328C659.188 388.148 660.579 387.559 662.399 387.559ZM679.216 389.551V382.766H681.372V401H679.216V399.348C678.857 399.996 678.376 400.492 677.775 400.836C677.181 401.172 676.493 401.34 675.712 401.34C674.126 401.34 672.876 400.727 671.962 399.5C671.056 398.266 670.603 396.566 670.603 394.402C670.603 392.27 671.06 390.598 671.974 389.387C672.888 388.168 674.134 387.559 675.712 387.559C676.501 387.559 677.196 387.73 677.798 388.074C678.4 388.41 678.872 388.902 679.216 389.551ZM672.876 394.449C672.876 396.121 673.142 397.383 673.673 398.234C674.204 399.086 674.989 399.512 676.028 399.512C677.068 399.512 677.857 399.082 678.396 398.223C678.943 397.363 679.216 396.105 679.216 394.449C679.216 392.785 678.943 391.527 678.396 390.676C677.857 389.816 677.068 389.387 676.028 389.387C674.989 389.387 674.204 389.812 673.673 390.664C673.142 391.516 672.876 392.777 672.876 394.449ZM696.267 393.359V394.414H686.927V394.484C686.865 396.273 687.205 397.559 687.947 398.34C688.697 399.121 689.752 399.512 691.111 399.512C691.798 399.512 692.517 399.402 693.267 399.184C694.017 398.965 694.818 398.633 695.67 398.188V400.332C694.849 400.668 694.056 400.918 693.291 401.082C692.533 401.254 691.798 401.34 691.088 401.34C689.048 401.34 687.455 400.73 686.306 399.512C685.158 398.285 684.584 396.598 684.584 394.449C684.584 392.355 685.146 390.684 686.271 389.434C687.396 388.184 688.896 387.559 690.771 387.559C692.443 387.559 693.759 388.125 694.72 389.258C695.689 390.391 696.205 391.758 696.267 393.359ZM694.111 392.727C694.017 391.82 693.685 391.039 693.115 390.383C692.552 389.719 691.74 389.387 690.677 389.387C689.638 389.387 688.783 389.73 688.111 390.418C687.439 391.105 687.072 391.879 687.009 392.738L694.111 392.727ZM712.299 392.516H724.721V394.496H712.299V392.516ZM726.28 392.516H738.702V394.496H726.28V392.516ZM754.078 389.738V387.605L766.465 392.504V394.449L754.078 399.348V397.203L764.039 393.488L754.078 389.738ZM57.1641 437.02H60.8438V423.801L56.4375 425.922V423.648L60.8203 421.562H63.1875V437.02H66.8203V439H57.1641V437.02ZM72.352 437.008H80.3911V439H69.7622V437.008C71.2231 435.469 72.5005 434.109 73.5942 432.93C74.688 431.75 75.4419 430.918 75.8559 430.434C76.6372 429.48 77.1645 428.711 77.438 428.125C77.7114 427.531 77.8481 426.926 77.8481 426.309C77.8481 425.332 77.5591 424.566 76.9809 424.012C76.4106 423.457 75.6255 423.18 74.6255 423.18C73.9145 423.18 73.1684 423.309 72.3872 423.566C71.6059 423.824 70.7778 424.215 69.9028 424.738V422.348C70.7075 421.965 71.4966 421.676 72.27 421.48C73.0513 421.285 73.8208 421.188 74.5786 421.188C76.2895 421.188 77.6645 421.645 78.7036 422.559C79.7505 423.465 80.2739 424.656 80.2739 426.133C80.2739 426.883 80.0981 427.633 79.7466 428.383C79.4028 429.133 78.8403 429.961 78.0591 430.867C77.6216 431.375 76.9848 432.078 76.1489 432.977C75.3208 433.875 74.0552 435.219 72.352 437.008ZM156.425 434.266H160.55V439H156.425V434.266ZM170.406 434.266H174.531V439H170.406V434.266ZM184.387 434.266H188.512V439H184.387V434.266Z" fill="#828282"/>
</g>
<g filter="url(#filter1_d_204_652)">
<rect x="16" y="137" width="998" height="70" rx="16" fill="#1B57A8" shape-rendering="crispEdges"/>
<path d="M61.4336 172.172H59.582V169.125H61.4336C62.293 169.125 62.957 168.957 63.4258 168.621C63.9023 168.277 64.1406 167.797 64.1406 167.18C64.1406 166.531 63.9023 166.027 63.4258 165.668C62.957 165.301 62.293 165.117 61.4336 165.117C60.7773 165.117 60.0742 165.199 59.3242 165.363C58.5742 165.527 57.7969 165.766 56.9922 166.078V162.938C57.7969 162.695 58.5898 162.512 59.3711 162.387C60.1523 162.254 60.9023 162.188 61.6211 162.188C63.4648 162.188 64.9023 162.59 65.9336 163.395C66.9648 164.199 67.4805 165.309 67.4805 166.723C67.4805 167.762 67.1836 168.613 66.5898 169.277C65.9961 169.934 65.1484 170.363 64.0469 170.566C65.2969 170.785 66.25 171.285 66.9062 172.066C67.5625 172.84 67.8906 173.859 67.8906 175.125C67.8906 176.82 67.3477 178.113 66.2617 179.004C65.1758 179.895 63.5977 180.34 61.5273 180.34C60.6445 180.34 59.7734 180.266 58.9141 180.117C58.0625 179.969 57.2461 179.754 56.4648 179.473V176.262C57.1992 176.629 57.9922 176.91 58.8438 177.105C59.6953 177.293 60.5898 177.387 61.5273 177.387C62.4648 177.387 63.207 177.172 63.7539 176.742C64.3008 176.305 64.5742 175.719 64.5742 174.984C64.5742 174.086 64.3008 173.395 63.7539 172.91C63.207 172.418 62.4336 172.172 61.4336 172.172ZM166.285 169.148L156.968 172.488L166.285 175.805V178.723L153.898 173.859V171.094L166.285 166.219V169.148ZM178.461 167.285V170.285C177.828 169.879 177.168 169.574 176.48 169.371C175.801 169.16 175.117 169.055 174.43 169.055C173.664 169.055 173.086 169.168 172.695 169.395C172.305 169.613 172.109 169.941 172.109 170.379C172.109 171.004 172.945 171.512 174.617 171.902L174.746 171.938L175.73 172.172C176.98 172.469 177.894 172.949 178.473 173.613C179.058 174.27 179.351 175.16 179.351 176.285C179.351 177.637 178.906 178.652 178.015 179.332C177.133 180.004 175.801 180.34 174.019 180.34C173.23 180.34 172.422 180.27 171.594 180.129C170.765 179.996 169.926 179.793 169.074 179.52V176.52C169.832 176.949 170.601 177.277 171.383 177.504C172.172 177.73 172.933 177.844 173.668 177.844C174.473 177.844 175.082 177.727 175.496 177.492C175.91 177.258 176.117 176.918 176.117 176.473C176.117 176.035 175.969 175.699 175.672 175.465C175.383 175.23 174.687 174.98 173.586 174.715L172.637 174.504C171.324 174.207 170.367 173.742 169.765 173.109C169.164 172.477 168.863 171.629 168.863 170.566C168.863 169.301 169.32 168.316 170.234 167.613C171.148 166.91 172.433 166.559 174.09 166.559C174.832 166.559 175.57 166.621 176.305 166.746C177.047 166.863 177.765 167.043 178.461 167.285ZM193.262 179.332C192.684 179.668 192.063 179.918 191.399 180.082C190.735 180.254 190.02 180.34 189.254 180.34C187.231 180.34 185.649 179.73 184.508 178.512C183.368 177.293 182.797 175.605 182.797 173.449C182.797 171.285 183.371 169.594 184.52 168.375C185.668 167.148 187.254 166.535 189.278 166.535C189.981 166.535 190.657 166.617 191.305 166.781C191.961 166.945 192.614 167.199 193.262 167.543V170.684C192.762 170.254 192.211 169.926 191.61 169.699C191.016 169.465 190.399 169.348 189.758 169.348C188.641 169.348 187.782 169.703 187.18 170.414C186.578 171.125 186.278 172.137 186.278 173.449C186.278 174.762 186.578 175.77 187.18 176.473C187.782 177.176 188.641 177.527 189.758 177.527C190.422 177.527 191.043 177.418 191.621 177.199C192.2 176.973 192.746 176.633 193.262 176.18V179.332ZM208.298 170.496C207.923 170.152 207.481 169.895 206.973 169.723C206.473 169.551 205.923 169.465 205.321 169.465C204.595 169.465 203.958 169.594 203.411 169.852C202.872 170.102 202.454 170.469 202.157 170.953C201.97 171.25 201.837 171.609 201.759 172.031C201.688 172.453 201.653 173.094 201.653 173.953V180H198.22V166.875H201.653V168.914C201.989 168.164 202.505 167.586 203.2 167.18C203.895 166.766 204.708 166.559 205.637 166.559C206.106 166.559 206.563 166.617 207.009 166.734C207.462 166.844 207.891 167.008 208.298 167.227V170.496ZM211.38 166.875H218.177V177.363H222.443V180H210.466V177.363H214.743V169.512H211.38V166.875ZM214.743 160.488H218.177V164.496H214.743V160.488ZM227.951 178.148V184.992H224.529V166.875H227.951V168.844C228.31 168.086 228.783 167.516 229.369 167.133C229.955 166.75 230.642 166.559 231.431 166.559C232.931 166.559 234.095 167.16 234.924 168.363C235.752 169.566 236.166 171.262 236.166 173.449C236.166 175.668 235.744 177.371 234.9 178.559C234.064 179.746 232.869 180.34 231.314 180.34C230.611 180.34 229.978 180.16 229.416 179.801C228.861 179.434 228.373 178.883 227.951 178.148ZM232.732 173.426C232.732 172.16 232.521 171.168 232.099 170.449C231.678 169.73 231.095 169.371 230.353 169.371C229.611 169.371 229.025 169.73 228.595 170.449C228.166 171.168 227.951 172.16 227.951 173.426C227.951 174.691 228.166 175.684 228.595 176.402C229.025 177.121 229.611 177.48 230.353 177.48C231.095 177.48 231.678 177.121 232.099 176.402C232.521 175.684 232.732 174.691 232.732 173.426ZM244.838 163.148V166.875H249.326V169.512H244.838V175.723C244.838 176.309 244.979 176.73 245.26 176.988C245.549 177.238 246.026 177.363 246.69 177.363H249.326V180H246.444C244.475 180 243.143 179.688 242.447 179.062C241.752 178.43 241.405 177.262 241.405 175.559V169.512H238.053V166.875H241.405V163.148H244.838ZM276.327 167.285V170.285C275.695 169.879 275.034 169.574 274.347 169.371C273.667 169.16 272.984 169.055 272.296 169.055C271.53 169.055 270.952 169.168 270.562 169.395C270.171 169.613 269.976 169.941 269.976 170.379C269.976 171.004 270.812 171.512 272.484 171.902L272.613 171.938L273.597 172.172C274.847 172.469 275.761 172.949 276.339 173.613C276.925 174.27 277.218 175.16 277.218 176.285C277.218 177.637 276.773 178.652 275.882 179.332C274.999 180.004 273.667 180.34 271.886 180.34C271.097 180.34 270.288 180.27 269.46 180.129C268.632 179.996 267.792 179.793 266.941 179.52V176.52C267.698 176.949 268.468 177.277 269.249 177.504C270.038 177.73 270.8 177.844 271.534 177.844C272.339 177.844 272.948 177.727 273.363 177.492C273.777 177.258 273.984 176.918 273.984 176.473C273.984 176.035 273.835 175.699 273.538 175.465C273.249 175.23 272.554 174.98 271.452 174.715L270.503 174.504C269.191 174.207 268.234 173.742 267.632 173.109C267.03 172.477 266.73 171.629 266.73 170.566C266.73 169.301 267.187 168.316 268.101 167.613C269.015 166.91 270.3 166.559 271.956 166.559C272.698 166.559 273.437 166.621 274.171 166.746C274.913 166.863 275.632 167.043 276.327 167.285ZM292.183 170.496C291.808 170.152 291.367 169.895 290.859 169.723C290.359 169.551 289.808 169.465 289.207 169.465C288.48 169.465 287.843 169.594 287.297 169.852C286.758 170.102 286.34 170.469 286.043 170.953C285.855 171.25 285.722 171.609 285.644 172.031C285.574 172.453 285.539 173.094 285.539 173.953V180H282.105V166.875H285.539V168.914C285.875 168.164 286.39 167.586 287.086 167.18C287.781 166.766 288.593 166.559 289.523 166.559C289.992 166.559 290.449 166.617 290.894 166.734C291.347 166.844 291.777 167.008 292.183 167.227V170.496ZM305.11 179.332C304.531 179.668 303.91 179.918 303.246 180.082C302.582 180.254 301.867 180.34 301.102 180.34C299.078 180.34 297.496 179.73 296.356 178.512C295.215 177.293 294.645 175.605 294.645 173.449C294.645 171.285 295.219 169.594 296.367 168.375C297.516 167.148 299.102 166.535 301.125 166.535C301.828 166.535 302.504 166.617 303.152 166.781C303.809 166.945 304.461 167.199 305.11 167.543V170.684C304.61 170.254 304.059 169.926 303.457 169.699C302.863 169.465 302.246 169.348 301.606 169.348C300.488 169.348 299.629 169.703 299.027 170.414C298.426 171.125 298.125 172.137 298.125 173.449C298.125 174.762 298.426 175.77 299.027 176.473C299.629 177.176 300.488 177.527 301.606 177.527C302.27 177.527 302.891 177.418 303.469 177.199C304.047 176.973 304.594 176.633 305.11 176.18V179.332ZM307.688 173.766H320.075V176.543H307.688V173.766ZM307.688 168.434H320.075V171.188H307.688V168.434ZM329.638 161.766H333.306V164.93L331.009 169.418H328.489L329.638 164.93V161.766ZM323.544 161.766H327.212V164.93L324.915 169.418H322.396L323.544 164.93V161.766ZM347.17 171.48V180H343.759V172.008C343.759 171.062 343.623 170.387 343.349 169.98C343.084 169.574 342.646 169.371 342.037 169.371C341.412 169.371 340.923 169.648 340.572 170.203C340.22 170.75 340.045 171.512 340.045 172.488V180H336.634V161.766H340.045V168.844C340.287 168.117 340.701 167.555 341.287 167.156C341.873 166.758 342.58 166.559 343.408 166.559C344.65 166.559 345.587 166.973 346.22 167.801C346.853 168.621 347.17 169.848 347.17 171.48ZM356.686 163.148V166.875H361.174V169.512H356.686V175.723C356.686 176.309 356.826 176.73 357.108 176.988C357.397 177.238 357.873 177.363 358.537 177.363H361.174V180H358.291C356.322 180 354.99 179.688 354.295 179.062C353.6 178.43 353.252 177.262 353.252 175.559V169.512H349.9V166.875H353.252V163.148H356.686ZM370.667 163.148V166.875H375.155V169.512H370.667V175.723C370.667 176.309 370.807 176.73 371.088 176.988C371.378 177.238 371.854 177.363 372.518 177.363H375.155V180H372.272C370.303 180 368.971 179.688 368.276 179.062C367.581 178.43 367.233 177.262 367.233 175.559V169.512H363.881V166.875H367.233V163.148H370.667ZM381.741 178.148V184.992H378.319V166.875H381.741V168.844C382.101 168.086 382.573 167.516 383.159 167.133C383.745 166.75 384.433 166.559 385.222 166.559C386.722 166.559 387.886 167.16 388.714 168.363C389.542 169.566 389.956 171.262 389.956 173.449C389.956 175.668 389.534 177.371 388.69 178.559C387.855 179.746 386.659 180.34 385.105 180.34C384.401 180.34 383.769 180.16 383.206 179.801C382.651 179.434 382.163 178.883 381.741 178.148ZM386.522 173.426C386.522 172.16 386.312 171.168 385.89 170.449C385.468 169.73 384.886 169.371 384.144 169.371C383.401 169.371 382.815 169.73 382.386 170.449C381.956 171.168 381.741 172.16 381.741 173.426C381.741 174.691 381.956 175.684 382.386 176.402C382.815 177.121 383.401 177.48 384.144 177.48C384.886 177.48 385.468 177.121 385.89 176.402C386.312 175.684 386.522 174.691 386.522 173.426ZM402.156 167.285V170.285C401.523 169.879 400.863 169.574 400.175 169.371C399.496 169.16 398.812 169.055 398.125 169.055C397.359 169.055 396.781 169.168 396.39 169.395C396 169.613 395.804 169.941 395.804 170.379C395.804 171.004 396.64 171.512 398.312 171.902L398.441 171.938L399.425 172.172C400.675 172.469 401.589 172.949 402.168 173.613C402.753 174.27 403.046 175.16 403.046 176.285C403.046 177.637 402.601 178.652 401.71 179.332C400.828 180.004 399.496 180.34 397.714 180.34C396.925 180.34 396.117 180.27 395.289 180.129C394.46 179.996 393.621 179.793 392.769 179.52V176.52C393.527 176.949 394.296 177.277 395.078 177.504C395.867 177.73 396.628 177.844 397.363 177.844C398.168 177.844 398.777 177.727 399.191 177.492C399.605 177.258 399.812 176.918 399.812 176.473C399.812 176.035 399.664 175.699 399.367 175.465C399.078 175.23 398.382 174.98 397.281 174.715L396.332 174.504C395.019 174.207 394.062 173.742 393.46 173.109C392.859 172.477 392.558 171.629 392.558 170.566C392.558 169.301 393.015 168.316 393.929 167.613C394.843 166.91 396.128 166.559 397.785 166.559C398.527 166.559 399.265 166.621 400 166.746C400.742 166.863 401.46 167.043 402.156 167.285ZM409.785 167.543H413.688V171.82H409.785V167.543ZM409.785 175.699H413.688V180H409.785V175.699ZM429.04 162.504H431.629L422.418 182.227H419.829L429.04 162.504ZM443.02 162.504H445.61L436.399 182.227H433.81L443.02 162.504ZM454.669 173.836C453.388 173.836 452.494 174 451.986 174.328C451.478 174.656 451.224 175.219 451.224 176.016C451.224 176.609 451.4 177.082 451.751 177.434C452.103 177.785 452.58 177.961 453.181 177.961C454.087 177.961 454.79 177.621 455.29 176.941C455.79 176.254 456.04 175.297 456.04 174.07V173.836H454.669ZM459.451 172.512V180H456.04V178.535C455.626 179.113 455.095 179.559 454.447 179.871C453.798 180.184 453.083 180.34 452.302 180.34C450.81 180.34 449.646 179.945 448.81 179.156C447.982 178.367 447.568 177.266 447.568 175.852C447.568 174.32 448.064 173.191 449.056 172.465C450.048 171.73 451.583 171.363 453.662 171.363H456.04V170.789C456.04 170.234 455.837 169.816 455.431 169.535C455.033 169.246 454.443 169.102 453.662 169.102C452.841 169.102 452.044 169.207 451.271 169.418C450.505 169.621 449.705 169.949 448.869 170.402V167.473C449.626 167.16 450.396 166.93 451.177 166.781C451.958 166.633 452.787 166.559 453.662 166.559C455.794 166.559 457.29 166.992 458.15 167.859C459.017 168.727 459.451 170.277 459.451 172.512ZM472.998 171.48V180H469.588V172.008C469.588 171.055 469.451 170.375 469.178 169.969C468.912 169.555 468.475 169.348 467.865 169.348C467.248 169.348 466.76 169.625 466.4 170.18C466.049 170.734 465.873 171.504 465.873 172.488V180H462.463V166.875H465.873V168.844C466.115 168.117 466.529 167.555 467.115 167.156C467.701 166.758 468.408 166.559 469.236 166.559C470.478 166.559 471.416 166.973 472.049 167.801C472.682 168.621 472.998 169.848 472.998 171.48ZM483.838 173.227C483.838 172.055 483.616 171.117 483.17 170.414C482.725 169.703 482.139 169.348 481.413 169.348C480.694 169.348 480.112 169.699 479.666 170.402C479.229 171.105 479.01 172.047 479.01 173.227C479.01 174.414 479.229 175.359 479.666 176.062C480.112 176.766 480.694 177.117 481.413 177.117C482.139 177.117 482.725 176.766 483.17 176.062C483.616 175.352 483.838 174.406 483.838 173.227ZM487.272 179.016C487.272 181.117 486.795 182.633 485.842 183.562C484.897 184.5 483.358 184.969 481.225 184.969C480.506 184.969 479.795 184.914 479.092 184.805C478.389 184.703 477.674 184.543 476.948 184.324V181.172C477.596 181.531 478.256 181.797 478.928 181.969C479.6 182.141 480.291 182.227 481.002 182.227C481.971 182.227 482.686 181.996 483.147 181.535C483.608 181.082 483.838 180.371 483.838 179.402V177.984C483.502 178.609 483.057 179.074 482.502 179.379C481.948 179.684 481.272 179.836 480.475 179.836C478.975 179.836 477.784 179.25 476.901 178.078C476.018 176.906 475.577 175.316 475.577 173.309C475.577 171.23 476.018 169.582 476.901 168.363C477.784 167.145 478.967 166.535 480.452 166.535C481.202 166.535 481.87 166.711 482.455 167.062C483.041 167.414 483.502 167.91 483.838 168.551V166.875H487.272V179.016ZM501.323 179.355C500.526 179.684 499.714 179.93 498.886 180.094C498.057 180.258 497.182 180.34 496.261 180.34C494.065 180.34 492.386 179.754 491.222 178.582C490.065 177.402 489.487 175.707 489.487 173.496C489.487 171.355 490.046 169.664 491.163 168.422C492.28 167.18 493.804 166.559 495.733 166.559C497.679 166.559 499.186 167.137 500.257 168.293C501.335 169.441 501.874 171.062 501.874 173.156V174.551H492.979C492.987 175.582 493.292 176.352 493.893 176.859C494.495 177.367 495.393 177.621 496.589 177.621C497.378 177.621 498.155 177.508 498.921 177.281C499.686 177.055 500.487 176.695 501.323 176.203V179.355ZM498.417 171.973C498.401 171.066 498.167 170.383 497.714 169.922C497.268 169.453 496.608 169.219 495.733 169.219C494.944 169.219 494.315 169.461 493.847 169.945C493.378 170.422 493.1 171.102 493.015 171.984L498.417 171.973ZM506.925 174.527V164.402H503.445V161.766H510.359V174.527C510.359 175.559 510.519 176.289 510.839 176.719C511.16 177.148 511.703 177.363 512.468 177.363H515.21V180H511.507C509.874 180 508.703 179.578 507.992 178.734C507.281 177.891 506.925 176.488 506.925 174.527ZM524.703 181.418C524.242 182.652 523.687 183.551 523.039 184.113C522.398 184.684 521.617 184.969 520.695 184.969H517.859V182.355H519.254C519.957 182.355 520.473 182.234 520.801 181.992C521.129 181.758 521.461 181.207 521.797 180.34L522.055 179.637L517.062 166.875H520.672L523.672 175.395L526.543 166.875H530.152L524.703 181.418ZM538.438 163.148V166.875H542.926V169.512H538.438V175.723C538.438 176.309 538.578 176.73 538.86 176.988C539.149 177.238 539.625 177.363 540.289 177.363H542.926V180H540.043C538.075 180 536.742 179.688 536.047 179.062C535.352 178.43 535.004 177.262 535.004 175.559V169.512H531.653V166.875H535.004V163.148H538.438ZM546.923 166.875H553.72V177.363H557.985V180H546.009V177.363H550.286V169.512H546.923V166.875ZM550.286 160.488H553.72V164.496H550.286V160.488ZM570.747 179.332C570.169 179.668 569.548 179.918 568.884 180.082C568.22 180.254 567.505 180.34 566.74 180.34C564.716 180.34 563.134 179.73 561.993 178.512C560.853 177.293 560.283 175.605 560.283 173.449C560.283 171.285 560.857 169.594 562.005 168.375C563.154 167.148 564.74 166.535 566.763 166.535C567.466 166.535 568.142 166.617 568.79 166.781C569.447 166.945 570.099 167.199 570.747 167.543V170.684C570.247 170.254 569.697 169.926 569.095 169.699C568.501 169.465 567.884 169.348 567.243 169.348C566.126 169.348 565.267 169.703 564.665 170.414C564.064 171.125 563.763 172.137 563.763 173.449C563.763 174.762 564.064 175.77 564.665 176.473C565.267 177.176 566.126 177.527 567.243 177.527C567.908 177.527 568.529 177.418 569.107 177.199C569.685 176.973 570.232 176.633 570.747 176.18V179.332ZM583.908 167.285V170.285C583.275 169.879 582.615 169.574 581.927 169.371C581.248 169.16 580.564 169.055 579.877 169.055C579.111 169.055 578.533 169.168 578.142 169.395C577.752 169.613 577.556 169.941 577.556 170.379C577.556 171.004 578.392 171.512 580.064 171.902L580.193 171.938L581.177 172.172C582.427 172.469 583.342 172.949 583.92 173.613C584.506 174.27 584.799 175.16 584.799 176.285C584.799 177.637 584.353 178.652 583.463 179.332C582.58 180.004 581.248 180.34 579.467 180.34C578.677 180.34 577.869 180.27 577.041 180.129C576.213 179.996 575.373 179.793 574.521 179.52V176.52C575.279 176.949 576.049 177.277 576.83 177.504C577.619 177.73 578.381 177.844 579.115 177.844C579.92 177.844 580.529 177.727 580.943 177.492C581.357 177.258 581.564 176.918 581.564 176.473C581.564 176.035 581.416 175.699 581.119 175.465C580.83 175.23 580.135 174.98 579.033 174.715L578.084 174.504C576.771 174.207 575.814 173.742 575.213 173.109C574.611 172.477 574.31 171.629 574.31 170.566C574.31 169.301 574.767 168.316 575.681 167.613C576.595 166.91 577.881 166.559 579.537 166.559C580.279 166.559 581.017 166.621 581.752 166.746C582.494 166.863 583.213 167.043 583.908 167.285ZM591.537 175.699H595.44V180H591.537V175.699ZM608.46 173.836C607.178 173.836 606.284 174 605.776 174.328C605.268 174.656 605.014 175.219 605.014 176.016C605.014 176.609 605.19 177.082 605.542 177.434C605.893 177.785 606.37 177.961 606.971 177.961C607.878 177.961 608.581 177.621 609.081 176.941C609.581 176.254 609.831 175.297 609.831 174.07V173.836H608.46ZM613.241 172.512V180H609.831V178.535C609.417 179.113 608.885 179.559 608.237 179.871C607.589 180.184 606.874 180.34 606.093 180.34C604.6 180.34 603.436 179.945 602.6 179.156C601.772 178.367 601.358 177.266 601.358 175.852C601.358 174.32 601.854 173.191 602.846 172.465C603.839 171.73 605.374 171.363 607.452 171.363H609.831V170.789C609.831 170.234 609.628 169.816 609.221 169.535C608.823 169.246 608.233 169.102 607.452 169.102C606.632 169.102 605.835 169.207 605.061 169.418C604.296 169.621 603.495 169.949 602.659 170.402V167.473C603.417 167.16 604.186 166.93 604.968 166.781C605.749 166.633 606.577 166.559 607.452 166.559C609.585 166.559 611.081 166.992 611.94 167.859C612.807 168.727 613.241 170.277 613.241 172.512ZM616.827 166.875H623.624V177.363H627.89V180H615.913V177.363H620.191V169.512H616.827V166.875ZM620.191 160.488H623.624V164.496H620.191V160.488ZM638.754 162.504H641.343L632.133 182.227H629.543L638.754 162.504ZM647.379 178.148V184.992H643.957V166.875H647.379V168.844C647.738 168.086 648.211 167.516 648.797 167.133C649.383 166.75 650.07 166.559 650.86 166.559C652.36 166.559 653.524 167.16 654.352 168.363C655.18 169.566 655.594 171.262 655.594 173.449C655.594 175.668 655.172 177.371 654.328 178.559C653.492 179.746 652.297 180.34 650.742 180.34C650.039 180.34 649.406 180.16 648.844 179.801C648.289 179.434 647.801 178.883 647.379 178.148ZM652.16 173.426C652.16 172.16 651.949 171.168 651.528 170.449C651.106 169.73 650.524 169.371 649.781 169.371C649.039 169.371 648.453 169.73 648.024 170.449C647.594 171.168 647.379 172.16 647.379 173.426C647.379 174.691 647.594 175.684 648.024 176.402C648.453 177.121 649.039 177.48 649.781 177.48C650.524 177.48 651.106 177.121 651.528 176.402C651.949 175.684 652.16 174.691 652.16 173.426ZM664.383 173.836C663.102 173.836 662.208 174 661.7 174.328C661.192 174.656 660.938 175.219 660.938 176.016C660.938 176.609 661.114 177.082 661.465 177.434C661.817 177.785 662.294 177.961 662.895 177.961C663.801 177.961 664.505 177.621 665.005 176.941C665.505 176.254 665.755 175.297 665.755 174.07V173.836H664.383ZM669.165 172.512V180H665.755V178.535C665.34 179.113 664.809 179.559 664.161 179.871C663.512 180.184 662.797 180.34 662.016 180.34C660.524 180.34 659.36 179.945 658.524 179.156C657.696 178.367 657.282 177.266 657.282 175.852C657.282 174.32 657.778 173.191 658.77 172.465C659.762 171.73 661.297 171.363 663.376 171.363H665.755V170.789C665.755 170.234 665.551 169.816 665.145 169.535C664.747 169.246 664.157 169.102 663.376 169.102C662.555 169.102 661.758 169.207 660.985 169.418C660.219 169.621 659.419 169.949 658.583 170.402V167.473C659.34 167.16 660.11 166.93 660.891 166.781C661.672 166.633 662.501 166.559 663.376 166.559C665.508 166.559 667.005 166.992 667.864 167.859C668.731 168.727 669.165 170.277 669.165 172.512ZM678.247 163.148V166.875H682.735V169.512H678.247V175.723C678.247 176.309 678.388 176.73 678.669 176.988C678.958 177.238 679.435 177.363 680.099 177.363H682.735V180H679.853C677.884 180 676.552 179.688 675.857 179.062C675.161 178.43 674.814 177.262 674.814 175.559V169.512H671.462V166.875H674.814V163.148H678.247ZM696.576 179.332C695.998 179.668 695.377 179.918 694.713 180.082C694.048 180.254 693.334 180.34 692.568 180.34C690.545 180.34 688.963 179.73 687.822 178.512C686.681 177.293 686.111 175.605 686.111 173.449C686.111 171.285 686.685 169.594 687.834 168.375C688.982 167.148 690.568 166.535 692.591 166.535C693.295 166.535 693.97 166.617 694.619 166.781C695.275 166.945 695.927 167.199 696.576 167.543V170.684C696.076 170.254 695.525 169.926 694.923 169.699C694.33 169.465 693.713 169.348 693.072 169.348C691.955 169.348 691.095 169.703 690.494 170.414C689.892 171.125 689.591 172.137 689.591 173.449C689.591 174.762 689.892 175.77 690.494 176.473C691.095 177.176 691.955 177.527 693.072 177.527C693.736 177.527 694.357 177.418 694.935 177.199C695.513 176.973 696.06 176.633 696.576 176.18V179.332ZM710.674 171.48V180H707.264V172.008C707.264 171.062 707.127 170.387 706.854 169.98C706.588 169.574 706.15 169.371 705.541 169.371C704.916 169.371 704.428 169.648 704.076 170.203C703.725 170.75 703.549 171.512 703.549 172.488V180H700.139V161.766H703.549V168.844C703.791 168.117 704.205 167.555 704.791 167.156C705.377 166.758 706.084 166.559 706.912 166.559C708.154 166.559 709.092 166.973 709.725 167.801C710.357 168.621 710.674 169.848 710.674 171.48ZM717.366 175.699H721.268V180H717.366V175.699ZM736.046 179.496C736.046 181.465 735.69 182.867 734.98 183.703C734.276 184.547 733.105 184.969 731.464 184.969H727.761V182.332H730.503C731.269 182.332 731.812 182.117 732.132 181.688C732.452 181.258 732.612 180.527 732.612 179.496V169.512H729.132V166.875H736.046V179.496ZM736.046 164.496H732.612V160.488H736.046V164.496ZM751.679 167.285V170.285C751.046 169.879 750.386 169.574 749.699 169.371C749.019 169.16 748.335 169.055 747.648 169.055C746.882 169.055 746.304 169.168 745.914 169.395C745.523 169.613 745.328 169.941 745.328 170.379C745.328 171.004 746.164 171.512 747.835 171.902L747.964 171.938L748.949 172.172C750.199 172.469 751.113 172.949 751.691 173.613C752.277 174.27 752.57 175.16 752.57 176.285C752.57 177.637 752.125 178.652 751.234 179.332C750.351 180.004 749.019 180.34 747.238 180.34C746.449 180.34 745.64 180.27 744.812 180.129C743.984 179.996 743.144 179.793 742.292 179.52V176.52C743.05 176.949 743.82 177.277 744.601 177.504C745.39 177.73 746.152 177.844 746.886 177.844C747.691 177.844 748.3 177.727 748.714 177.492C749.128 177.258 749.335 176.918 749.335 176.473C749.335 176.035 749.187 175.699 748.89 175.465C748.601 175.23 747.906 174.98 746.804 174.715L745.855 174.504C744.542 174.207 743.585 173.742 742.984 173.109C742.382 172.477 742.082 171.629 742.082 170.566C742.082 169.301 742.539 168.316 743.453 167.613C744.367 166.91 745.652 166.559 747.308 166.559C748.05 166.559 748.789 166.621 749.523 166.746C750.265 166.863 750.984 167.043 751.679 167.285ZM763.047 161.766H766.715V164.93L764.418 169.418H761.898L763.047 164.93V161.766ZM756.953 161.766H760.621V164.93L758.324 169.418H755.805L756.953 164.93V161.766ZM787.27 175.699H791.173V180H787.27V175.699ZM801.251 175.699H805.154V180H801.251V175.699ZM815.232 175.699H819.135V180H815.232V175.699ZM824.983 169.148V166.219L837.37 171.094V173.859L824.983 178.723V175.805L834.299 172.488L824.983 169.148ZM851.35 169.148L842.034 172.488L851.35 175.805V178.723L838.964 173.859V171.094L851.35 166.219V169.148ZM862.449 162.504H865.038L855.828 182.227H853.238L862.449 162.504ZM877.508 167.285V170.285C876.875 169.879 876.215 169.574 875.527 169.371C874.847 169.16 874.164 169.055 873.476 169.055C872.711 169.055 872.133 169.168 871.742 169.395C871.351 169.613 871.156 169.941 871.156 170.379C871.156 171.004 871.992 171.512 873.664 171.902L873.793 171.938L874.777 172.172C876.027 172.469 876.941 172.949 877.519 173.613C878.105 174.27 878.398 175.16 878.398 176.285C878.398 177.637 877.953 178.652 877.062 179.332C876.18 180.004 874.847 180.34 873.066 180.34C872.277 180.34 871.469 180.27 870.64 180.129C869.812 179.996 868.972 179.793 868.121 179.52V176.52C868.879 176.949 869.648 177.277 870.43 177.504C871.219 177.73 871.98 177.844 872.715 177.844C873.519 177.844 874.129 177.727 874.543 177.492C874.957 177.258 875.164 176.918 875.164 176.473C875.164 176.035 875.015 175.699 874.719 175.465C874.43 175.23 873.734 174.98 872.633 174.715L871.683 174.504C870.371 174.207 869.414 173.742 868.812 173.109C868.211 172.477 867.91 171.629 867.91 170.566C867.91 169.301 868.367 168.316 869.281 167.613C870.195 166.91 871.48 166.559 873.137 166.559C873.879 166.559 874.617 166.621 875.351 166.746C876.094 166.863 876.812 167.043 877.508 167.285ZM892.309 179.332C891.731 179.668 891.11 179.918 890.446 180.082C889.782 180.254 889.067 180.34 888.301 180.34C886.278 180.34 884.696 179.73 883.555 178.512C882.414 177.293 881.844 175.605 881.844 173.449C881.844 171.285 882.418 169.594 883.567 168.375C884.715 167.148 886.301 166.535 888.325 166.535C889.028 166.535 889.703 166.617 890.352 166.781C891.008 166.945 891.66 167.199 892.309 167.543V170.684C891.809 170.254 891.258 169.926 890.657 169.699C890.063 169.465 889.446 169.348 888.805 169.348C887.688 169.348 886.828 169.703 886.227 170.414C885.625 171.125 885.325 172.137 885.325 173.449C885.325 174.762 885.625 175.77 886.227 176.473C886.828 177.176 887.688 177.527 888.805 177.527C889.469 177.527 890.09 177.418 890.668 177.199C891.246 176.973 891.793 176.633 892.309 176.18V179.332ZM907.345 170.496C906.97 170.152 906.528 169.895 906.02 169.723C905.52 169.551 904.97 169.465 904.368 169.465C903.641 169.465 903.005 169.594 902.458 169.852C901.919 170.102 901.501 170.469 901.204 170.953C901.016 171.25 900.884 171.609 900.805 172.031C900.735 172.453 900.7 173.094 900.7 173.953V180H897.266V166.875H900.7V168.914C901.036 168.164 901.552 167.586 902.247 167.18C902.942 166.766 903.755 166.559 904.684 166.559C905.153 166.559 905.61 166.617 906.055 166.734C906.509 166.844 906.938 167.008 907.345 167.227V170.496ZM910.427 166.875H917.224V177.363H921.49V180H909.513V177.363H913.79V169.512H910.427V166.875ZM913.79 160.488H917.224V164.496H913.79V160.488ZM926.998 178.148V184.992H923.576V166.875H926.998V168.844C927.357 168.086 927.83 167.516 928.416 167.133C929.002 166.75 929.689 166.559 930.478 166.559C931.978 166.559 933.142 167.16 933.97 168.363C934.799 169.566 935.213 171.262 935.213 173.449C935.213 175.668 934.791 177.371 933.947 178.559C933.111 179.746 931.916 180.34 930.361 180.34C929.658 180.34 929.025 180.16 928.463 179.801C927.908 179.434 927.42 178.883 926.998 178.148ZM931.779 173.426C931.779 172.16 931.568 171.168 931.146 170.449C930.724 169.73 930.142 169.371 929.4 169.371C928.658 169.371 928.072 169.73 927.642 170.449C927.213 171.168 926.998 172.16 926.998 173.426C926.998 174.691 927.213 175.684 927.642 176.402C928.072 177.121 928.658 177.48 929.4 177.48C930.142 177.48 930.724 177.121 931.146 176.402C931.568 175.684 931.779 174.691 931.779 173.426ZM943.885 163.148V166.875H948.373V169.512H943.885V175.723C943.885 176.309 944.026 176.73 944.307 176.988C944.596 177.238 945.073 177.363 945.737 177.363H948.373V180H945.49C943.522 180 942.19 179.688 941.494 179.062C940.799 178.43 940.451 177.262 940.451 175.559V169.512H937.1V166.875H940.451V163.148H943.885ZM950.811 169.148V166.219L963.198 171.094V173.859L950.811 178.723V175.805L960.128 172.488L950.811 169.148Z" fill="#F2F2F2"/>
</g>
<defs>
<filter id="filter0_d_204_652" x="0" y="0" width="1030" height="508" filterUnits="userSpaceOnUse" color-interpolation-filters="sRGB">
<feFlood flood-opacity="0" result="BackgroundImageFix"/>
<feColorMatrix in="SourceAlpha" type="matrix" values="0 0 0 0 0 0 0 0 0 0 0 0 0 0 0 0 0 0 127 0" result="hardAlpha"/>
<feOffset dy="4"/>
<feGaussianBlur stdDeviation="15"/>
<feComposite in2="hardAlpha" operator="out"/>
<feColorMatrix type="matrix" values="0 0 0 0 0 0 0 0 0 0 0 0 0 0 0 0 0 0 0.1 0"/>
<feBlend mode="normal" in2="BackgroundImageFix" result="effect1_dropShadow_204_652"/>
<feBlend mode="normal" in="SourceGraphic" in2="effect1_dropShadow_204_652" result="shape"/>
</filter>
<filter id="filter1_d_204_652" x="1" y="126" width="1028" height="100" filterUnits="userSpaceOnUse" color-interpolation-filters="sRGB">
<feFlood flood-opacity="0" result="BackgroundImageFix"/>
<feColorMatrix in="SourceAlpha" type="matrix" values="0 0 0 0 0 0 0 0 0 0 0 0 0 0 0 0 0 0 127 0" result="hardAlpha"/>
<feOffset dy="4"/>
<feGaussianBlur stdDeviation="7.5"/>
<feComposite in2="hardAlpha" operator="out"/>
<feColorMatrix type="matrix" values="0 0 0 0 0 0 0 0 0 0 0 0 0 0 0 0 0 0 0.25 0"/>
<feBlend mode="normal" in2="BackgroundImageFix" result="effect1_dropShadow_204_652"/>
<feBlend mode="normal" in="SourceGraphic" in2="effect1_dropShadow_204_652" result="shape"/>
</filter>
</defs>
</svg>
