<svg width="1058" height="448" viewBox="0 0 1058 448" fill="none" xmlns="http://www.w3.org/2000/svg">
<rect x="45" y="1" width="968" height="446" rx="31" fill="#E0E0E0"/>
<path d="M71.1641 49.0195H74.8438V35.8008L70.4375 37.9219V35.6484L74.8203 33.5625H77.1875V49.0195H80.8203V51H71.1641V49.0195ZM123.361 39.7383L113.4 43.4883L123.361 47.2031V49.3477L110.974 44.4492V42.5039L123.361 37.6055V39.7383ZM136.24 42.8672V51H134.072V42.8672C134.072 41.6875 133.865 40.8203 133.451 40.2656C133.037 39.7109 132.389 39.4336 131.506 39.4336C130.498 39.4336 129.721 39.793 129.174 40.5117C128.635 41.2227 128.365 42.2461 128.365 43.582V51H126.209V32.7656H128.365V39.8438C128.748 39.0938 129.268 38.5273 129.924 38.1445C130.58 37.7539 131.357 37.5586 132.256 37.5586C133.592 37.5586 134.588 38 135.244 38.8828C135.908 39.7578 136.24 41.0859 136.24 42.8672ZM145.1 34.1484V37.875H149.998V39.5508H145.1V46.6758C145.1 47.6445 145.284 48.3203 145.651 48.7031C146.018 49.0859 146.659 49.2773 147.573 49.2773H149.998V51H147.362C145.745 51 144.604 50.6758 143.94 50.0273C143.276 49.3789 142.944 48.2617 142.944 46.6758V39.5508H139.44V37.875H142.944V34.1484H145.1ZM159.808 39.2109C160.073 38.6484 160.409 38.2344 160.815 37.9688C161.229 37.6953 161.725 37.5586 162.304 37.5586C163.358 37.5586 164.1 37.9688 164.53 38.7891C164.968 39.6016 165.186 41.1367 165.186 43.3945V51H163.218V43.4883C163.218 41.6367 163.112 40.4883 162.901 40.043C162.698 39.5898 162.323 39.3633 161.776 39.3633C161.151 39.3633 160.722 39.6055 160.487 40.0898C160.261 40.5664 160.147 41.6992 160.147 43.4883V51H158.179V43.4883C158.179 41.6133 158.065 40.457 157.839 40.0195C157.62 39.582 157.222 39.3633 156.643 39.3633C156.073 39.3633 155.675 39.6055 155.448 40.0898C155.229 40.5664 155.12 41.6992 155.12 43.4883V51H153.163V37.875H155.12V39C155.378 38.5312 155.698 38.1758 156.081 37.9336C156.472 37.6836 156.913 37.5586 157.405 37.5586C157.999 37.5586 158.491 37.6953 158.882 37.9688C159.28 38.2422 159.589 38.6562 159.808 39.2109ZM174.292 46.2539C174.292 47.2227 174.468 47.9531 174.82 48.4453C175.179 48.9375 175.706 49.1836 176.402 49.1836H178.921V51H176.191C174.902 51 173.902 50.5898 173.191 49.7695C172.488 48.9414 172.136 47.7695 172.136 46.2539V34.3828H168.679V32.6953H174.292V46.2539ZM180.879 39.7383V37.6055L193.265 42.5039V44.4492L180.879 49.3477V47.2031L190.84 43.4883L180.879 39.7383ZM72.3711 87.0078H80.4102V89H69.7812V87.0078C71.2422 85.4688 72.5195 84.1094 73.6133 82.9297C74.707 81.75 75.4609 80.918 75.875 80.4336C76.6562 79.4805 77.1836 78.7109 77.457 78.125C77.7305 77.5312 77.8672 76.9258 77.8672 76.3086C77.8672 75.332 77.5781 74.5664 77 74.0117C76.4297 73.457 75.6445 73.1797 74.6445 73.1797C73.9336 73.1797 73.1875 73.3086 72.4062 73.5664C71.625 73.8242 70.7969 74.2148 69.9219 74.7383V72.3477C70.7266 71.9648 71.5156 71.6758 72.2891 71.4805C73.0703 71.2852 73.8398 71.1875 74.5977 71.1875C76.3086 71.1875 77.6836 71.6445 78.7227 72.5586C79.7695 73.4648 80.293 74.6562 80.293 76.1328C80.293 76.8828 80.1172 77.6328 79.7656 78.3828C79.4219 79.1328 78.8594 79.9609 78.0781 80.8672C77.6406 81.375 77.0039 82.0781 76.168 82.9766C75.3398 83.875 74.0742 85.2188 72.3711 87.0078ZM151.323 77.7383L141.362 81.4883L151.323 85.2031V87.3477L138.936 82.4492V80.5039L151.323 75.6055V77.7383ZM164.202 80.8672V89H162.034V80.8672C162.034 79.6875 161.827 78.8203 161.413 78.2656C160.999 77.7109 160.35 77.4336 159.468 77.4336C158.46 77.4336 157.683 77.793 157.136 78.5117C156.597 79.2227 156.327 80.2461 156.327 81.582V89H154.171V70.7656H156.327V77.8438C156.71 77.0938 157.229 76.5273 157.886 76.1445C158.542 75.7539 159.319 75.5586 160.218 75.5586C161.554 75.5586 162.55 76 163.206 76.8828C163.87 77.7578 164.202 79.0859 164.202 80.8672ZM178.992 81.3594V82.4141H169.652V82.4844C169.589 84.2734 169.929 85.5586 170.671 86.3398C171.421 87.1211 172.476 87.5117 173.835 87.5117C174.523 87.5117 175.242 87.4023 175.992 87.1836C176.742 86.9648 177.542 86.6328 178.394 86.1875V88.332C177.574 88.668 176.781 88.918 176.015 89.082C175.257 89.2539 174.523 89.3398 173.812 89.3398C171.773 89.3398 170.179 88.7305 169.031 87.5117C167.882 86.2852 167.308 84.5977 167.308 82.4492C167.308 80.3555 167.87 78.6836 168.995 77.4336C170.12 76.1836 171.62 75.5586 173.495 75.5586C175.167 75.5586 176.484 76.125 177.445 77.2578C178.413 78.3906 178.929 79.7578 178.992 81.3594ZM176.835 80.7266C176.742 79.8203 176.41 79.0391 175.839 78.3828C175.277 77.7188 174.464 77.3867 173.402 77.3867C172.363 77.3867 171.507 77.7305 170.835 78.418C170.163 79.1055 169.796 79.8789 169.734 80.7383L176.835 80.7266ZM188.074 82.4023H187.359C186.101 82.4023 185.152 82.625 184.512 83.0703C183.879 83.5078 183.562 84.1641 183.562 85.0391C183.562 85.8281 183.801 86.4414 184.277 86.8789C184.754 87.3164 185.414 87.5352 186.258 87.5352C187.445 87.5352 188.379 87.125 189.058 86.3047C189.738 85.4766 190.082 84.3359 190.09 82.8828V82.4023H188.074ZM192.258 81.5117V89H190.09V87.0547C189.629 87.8359 189.047 88.4141 188.344 88.7891C187.648 89.1562 186.801 89.3398 185.801 89.3398C184.465 89.3398 183.398 88.9648 182.601 88.2148C181.805 87.457 181.406 86.4453 181.406 85.1797C181.406 83.7188 181.894 82.6094 182.871 81.8516C183.855 81.0938 185.297 80.7148 187.195 80.7148H190.09V80.375C190.082 79.3281 189.816 78.5703 189.293 78.1016C188.769 77.625 187.933 77.3867 186.785 77.3867C186.051 77.3867 185.308 77.4922 184.558 77.7031C183.808 77.9141 183.078 78.2227 182.367 78.6289V76.4727C183.164 76.168 183.926 75.9414 184.652 75.793C185.387 75.6367 186.098 75.5586 186.785 75.5586C187.871 75.5586 188.797 75.7188 189.562 76.0391C190.336 76.3594 190.961 76.8398 191.437 77.4805C191.734 77.8711 191.945 78.3555 192.07 78.9336C192.195 79.5039 192.258 80.3633 192.258 81.5117ZM203.883 77.5508V70.7656H206.039V89H203.883V87.3477C203.524 87.9961 203.043 88.4922 202.442 88.8359C201.848 89.1719 201.16 89.3398 200.379 89.3398C198.793 89.3398 197.543 88.7266 196.629 87.5C195.723 86.2656 195.27 84.5664 195.27 82.4023C195.27 80.2695 195.727 78.5977 196.641 77.3867C197.555 76.168 198.801 75.5586 200.379 75.5586C201.168 75.5586 201.864 75.7305 202.465 76.0742C203.067 76.4102 203.539 76.9023 203.883 77.5508ZM197.543 82.4492C197.543 84.1211 197.809 85.3828 198.34 86.2344C198.871 87.0859 199.657 87.5117 200.696 87.5117C201.735 87.5117 202.524 87.082 203.063 86.2227C203.61 85.3633 203.883 84.1055 203.883 82.4492C203.883 80.7852 203.61 79.5273 203.063 78.6758C202.524 77.8164 201.735 77.3867 200.696 77.3867C199.657 77.3867 198.871 77.8125 198.34 78.6641C197.809 79.5156 197.543 80.7773 197.543 82.4492ZM208.841 77.7383V75.6055L221.227 80.5039V82.4492L208.841 87.3477V85.2031L218.802 81.4883L208.841 77.7383ZM76.6133 207.66L71.0938 216.906H76.6133V207.66ZM76.2266 205.504H78.9688V216.906H81.3008V218.828H78.9688V223H76.6133V218.828H69.1953V216.59L76.2266 205.504ZM179.285 211.738L169.324 215.488L179.285 219.203V221.348L166.898 216.449V214.504L179.285 209.605V211.738ZM186.246 205.504H188.625V213.18L188.379 216.777H186.492L186.246 213.18V205.504ZM185.894 220.023H188.976V223H185.894V220.023ZM195.024 214.516H207.446V216.496H195.024V214.516ZM209.005 214.516H221.427V216.496H209.005V214.516ZM240.447 207.449V214.023H243.189C244.283 214.023 245.135 213.734 245.744 213.156C246.361 212.578 246.67 211.77 246.67 210.73C246.67 209.691 246.365 208.887 245.756 208.316C245.146 207.738 244.291 207.449 243.189 207.449H240.447ZM238.08 205.504H243.189C245.142 205.504 246.623 205.949 247.631 206.84C248.638 207.723 249.142 209.02 249.142 210.73C249.142 212.457 248.638 213.762 247.631 214.645C246.631 215.527 245.15 215.969 243.189 215.969H240.447V223H238.08V205.504ZM253.455 209.922H258.975V221.324H263.252V223H252.541V221.324H256.819V211.598H253.455V209.922ZM256.819 204.824H258.975V207.543H256.819V204.824ZM276.835 209.875L272.135 216.156L277.292 223H274.796L270.952 217.738L267.12 223H264.624L269.78 216.156L265.081 209.875H267.471L270.952 214.621L274.409 209.875H276.835ZM290.839 215.359V216.414H281.499V216.484C281.437 218.273 281.777 219.559 282.519 220.34C283.269 221.121 284.323 221.512 285.683 221.512C286.37 221.512 287.089 221.402 287.839 221.184C288.589 220.965 289.39 220.633 290.241 220.188V222.332C289.421 222.668 288.628 222.918 287.863 223.082C287.105 223.254 286.37 223.34 285.659 223.34C283.62 223.34 282.027 222.73 280.878 221.512C279.73 220.285 279.155 218.598 279.155 216.449C279.155 214.355 279.718 212.684 280.843 211.434C281.968 210.184 283.468 209.559 285.343 209.559C287.015 209.559 288.331 210.125 289.292 211.258C290.261 212.391 290.777 213.758 290.839 215.359ZM288.683 214.727C288.589 213.82 288.257 213.039 287.687 212.383C287.124 211.719 286.312 211.387 285.249 211.387C284.21 211.387 283.355 211.73 282.683 212.418C282.011 213.105 281.644 213.879 281.581 214.738L288.683 214.727ZM300.121 218.254C300.121 219.223 300.297 219.953 300.648 220.445C301.008 220.938 301.535 221.184 302.23 221.184H304.75V223H302.019C300.73 223 299.73 222.59 299.019 221.77C298.316 220.941 297.965 219.77 297.965 218.254V206.383H294.508V204.695H300.121V218.254ZM330.075 205.504H332.301L323.09 225.227H320.852L330.075 205.504ZM360.556 221.559C359.923 222.145 359.209 222.59 358.412 222.895C357.623 223.191 356.767 223.34 355.845 223.34C353.627 223.34 351.9 222.547 350.666 220.961C349.431 219.367 348.814 217.137 348.814 214.27C348.814 211.41 349.439 209.184 350.689 207.59C351.939 205.988 353.677 205.188 355.904 205.188C356.638 205.188 357.341 205.293 358.013 205.504C358.685 205.707 359.334 206.02 359.959 206.441V208.867C359.326 208.266 358.677 207.824 358.013 207.543C357.349 207.254 356.646 207.109 355.904 207.109C354.365 207.109 353.209 207.707 352.435 208.902C351.67 210.09 351.287 211.879 351.287 214.27C351.287 216.699 351.658 218.5 352.4 219.672C353.15 220.836 354.298 221.418 355.845 221.418C356.369 221.418 356.826 221.359 357.216 221.242C357.615 221.117 357.974 220.926 358.295 220.668V215.969H355.752V214.023H360.556V221.559ZM368.818 211.387C367.725 211.387 366.897 211.812 366.334 212.664C365.772 213.516 365.49 214.777 365.49 216.449C365.49 218.113 365.772 219.375 366.334 220.234C366.897 221.086 367.725 221.512 368.818 221.512C369.92 221.512 370.752 221.086 371.315 220.234C371.877 219.375 372.158 218.113 372.158 216.449C372.158 214.777 371.877 213.516 371.315 212.664C370.752 211.812 369.92 211.387 368.818 211.387ZM368.818 209.559C370.639 209.559 372.029 210.148 372.99 211.328C373.959 212.508 374.443 214.215 374.443 216.449C374.443 218.691 373.963 220.402 373.002 221.582C372.041 222.754 370.647 223.34 368.818 223.34C366.998 223.34 365.608 222.754 364.647 221.582C363.686 220.402 363.205 218.691 363.205 216.449C363.205 214.215 363.686 212.508 364.647 211.328C365.608 210.148 366.998 209.559 368.818 209.559ZM382.799 211.387C381.706 211.387 380.878 211.812 380.315 212.664C379.753 213.516 379.471 214.777 379.471 216.449C379.471 218.113 379.753 219.375 380.315 220.234C380.878 221.086 381.706 221.512 382.799 221.512C383.901 221.512 384.733 221.086 385.295 220.234C385.858 219.375 386.139 218.113 386.139 216.449C386.139 214.777 385.858 213.516 385.295 212.664C384.733 211.812 383.901 211.387 382.799 211.387ZM382.799 209.559C384.62 209.559 386.01 210.148 386.971 211.328C387.94 212.508 388.424 214.215 388.424 216.449C388.424 218.691 387.944 220.402 386.983 221.582C386.022 222.754 384.628 223.34 382.799 223.34C380.979 223.34 379.588 222.754 378.628 221.582C377.667 220.402 377.186 218.691 377.186 216.449C377.186 214.215 377.667 212.508 378.628 211.328C379.588 210.148 380.979 209.559 382.799 209.559ZM399.616 216.332C399.616 214.715 399.351 213.488 398.819 212.652C398.296 211.809 397.53 211.387 396.522 211.387C395.468 211.387 394.663 211.809 394.108 212.652C393.554 213.488 393.276 214.715 393.276 216.332C393.276 217.949 393.554 219.184 394.108 220.035C394.671 220.879 395.483 221.301 396.546 221.301C397.538 221.301 398.296 220.875 398.819 220.023C399.351 219.172 399.616 217.941 399.616 216.332ZM401.772 222.156C401.772 224.125 401.308 225.617 400.378 226.633C399.448 227.648 398.081 228.156 396.276 228.156C395.683 228.156 395.062 228.102 394.413 227.992C393.765 227.883 393.116 227.723 392.468 227.512V225.379C393.233 225.738 393.929 226.004 394.554 226.176C395.179 226.348 395.753 226.434 396.276 226.434C397.44 226.434 398.288 226.117 398.819 225.484C399.351 224.852 399.616 223.848 399.616 222.473V222.379V220.914C399.272 221.648 398.804 222.195 398.21 222.555C397.616 222.914 396.894 223.094 396.042 223.094C394.511 223.094 393.288 222.48 392.374 221.254C391.46 220.027 391.003 218.387 391.003 216.332C391.003 214.27 391.46 212.625 392.374 211.398C393.288 210.172 394.511 209.559 396.042 209.559C396.886 209.559 397.601 209.727 398.187 210.062C398.772 210.398 399.249 210.918 399.616 211.621V209.922H401.772V222.156ZM411.968 218.254C411.968 219.223 412.144 219.953 412.496 220.445C412.855 220.938 413.382 221.184 414.078 221.184H416.597V223H413.867C412.578 223 411.578 222.59 410.867 221.77C410.164 220.941 409.812 219.77 409.812 218.254V206.383H406.355V204.695H411.968V218.254ZM430.648 215.359V216.414H421.309V216.484C421.246 218.273 421.586 219.559 422.328 220.34C423.078 221.121 424.133 221.512 425.492 221.512C426.18 221.512 426.898 221.402 427.648 221.184C428.398 220.965 429.199 220.633 430.051 220.188V222.332C429.23 222.668 428.438 222.918 427.672 223.082C426.914 223.254 426.18 223.34 425.469 223.34C423.43 223.34 421.836 222.73 420.688 221.512C419.539 220.285 418.965 218.598 418.965 216.449C418.965 214.355 419.527 212.684 420.652 211.434C421.777 210.184 423.277 209.559 425.152 209.559C426.824 209.559 428.141 210.125 429.102 211.258C430.07 212.391 430.586 213.758 430.648 215.359ZM428.492 214.727C428.398 213.82 428.066 213.039 427.496 212.383C426.934 211.719 426.121 211.387 425.059 211.387C424.02 211.387 423.164 211.73 422.492 212.418C421.82 213.105 421.453 213.879 421.391 214.738L428.492 214.727ZM452.704 207.59L450.208 216.543H455.2L452.704 207.59ZM451.274 205.504H454.145L459.501 223H457.052L455.763 218.441H449.634L448.368 223H445.919L451.274 205.504ZM471.783 214.867V223H469.615V214.867C469.615 213.688 469.408 212.82 468.994 212.266C468.58 211.711 467.931 211.434 467.048 211.434C466.04 211.434 465.263 211.793 464.716 212.512C464.177 213.223 463.908 214.246 463.908 215.582V223H461.751V209.875H463.908V211.844C464.29 211.094 464.81 210.527 465.466 210.145C466.122 209.754 466.9 209.559 467.798 209.559C469.134 209.559 470.13 210 470.787 210.883C471.451 211.758 471.783 213.086 471.783 214.867ZM481.674 216.402H480.959C479.701 216.402 478.752 216.625 478.111 217.07C477.478 217.508 477.162 218.164 477.162 219.039C477.162 219.828 477.4 220.441 477.877 220.879C478.353 221.316 479.014 221.535 479.857 221.535C481.045 221.535 481.978 221.125 482.658 220.305C483.338 219.477 483.682 218.336 483.689 216.883V216.402H481.674ZM485.857 215.512V223H483.689V221.055C483.228 221.836 482.646 222.414 481.943 222.789C481.248 223.156 480.4 223.34 479.4 223.34C478.064 223.34 476.998 222.965 476.201 222.215C475.404 221.457 475.006 220.445 475.006 219.18C475.006 217.719 475.494 216.609 476.471 215.852C477.455 215.094 478.896 214.715 480.795 214.715H483.689V214.375C483.682 213.328 483.416 212.57 482.892 212.102C482.369 211.625 481.533 211.387 480.385 211.387C479.65 211.387 478.908 211.492 478.158 211.703C477.408 211.914 476.678 212.223 475.967 212.629V210.473C476.764 210.168 477.525 209.941 478.252 209.793C478.986 209.637 479.697 209.559 480.385 209.559C481.471 209.559 482.396 209.719 483.162 210.039C483.935 210.359 484.56 210.84 485.037 211.48C485.334 211.871 485.545 212.355 485.67 212.934C485.795 213.504 485.857 214.363 485.857 215.512ZM495.854 218.254C495.854 219.223 496.03 219.953 496.381 220.445C496.741 220.938 497.268 221.184 497.963 221.184H500.483V223H497.752C496.463 223 495.463 222.59 494.752 221.77C494.049 220.941 493.698 219.77 493.698 218.254V206.383H490.241V204.695H495.854V218.254ZM511.464 218.781C511.104 219.695 510.647 220.898 510.093 222.391C509.319 224.453 508.8 225.711 508.534 226.164C508.175 226.773 507.725 227.23 507.186 227.535C506.647 227.84 506.018 227.992 505.3 227.992H503.565V226.188H504.843C505.475 226.188 505.972 226.004 506.331 225.637C506.69 225.27 507.147 224.32 507.702 222.789L502.628 209.875H504.913L508.804 220.141L512.636 209.875H514.921L511.464 218.781ZM522.585 206.148V209.875H527.484V211.551H522.585V218.676C522.585 219.645 522.769 220.32 523.136 220.703C523.503 221.086 524.144 221.277 525.058 221.277H527.484V223H524.847C523.23 223 522.089 222.676 521.425 222.027C520.761 221.379 520.429 220.262 520.429 218.676V211.551H516.925V209.875H520.429V206.148H522.585ZM533.074 209.922H538.594V221.324H542.871V223H532.16V221.324H536.437V211.598H533.074V209.922ZM536.437 204.824H538.594V207.543H536.437V204.824ZM555.785 222.332C555.207 222.668 554.61 222.918 553.992 223.082C553.383 223.254 552.758 223.34 552.117 223.34C550.086 223.34 548.496 222.73 547.348 221.512C546.207 220.293 545.637 218.605 545.637 216.449C545.637 214.293 546.207 212.605 547.348 211.387C548.496 210.168 550.086 209.559 552.117 209.559C552.75 209.559 553.367 209.641 553.969 209.805C554.571 209.969 555.176 210.223 555.785 210.566V212.828C555.215 212.32 554.641 211.953 554.063 211.727C553.492 211.5 552.844 211.387 552.117 211.387C550.766 211.387 549.727 211.824 549 212.699C548.274 213.574 547.91 214.824 547.91 216.449C547.91 218.066 548.274 219.316 549 220.199C549.735 221.074 550.774 221.512 552.117 221.512C552.867 221.512 553.539 221.398 554.133 221.172C554.727 220.938 555.278 220.578 555.785 220.094V222.332ZM568.735 210.332V212.441C568.118 212.082 567.497 211.812 566.872 211.633C566.247 211.453 565.61 211.363 564.962 211.363C563.985 211.363 563.255 211.523 562.77 211.844C562.294 212.156 562.055 212.637 562.055 213.285C562.055 213.871 562.235 214.309 562.595 214.598C562.954 214.887 563.848 215.168 565.278 215.441L566.145 215.605C567.216 215.809 568.024 216.215 568.571 216.824C569.126 217.434 569.403 218.227 569.403 219.203C569.403 220.5 568.942 221.516 568.02 222.25C567.098 222.977 565.817 223.34 564.177 223.34C563.528 223.34 562.848 223.27 562.138 223.129C561.427 222.996 560.657 222.793 559.829 222.52V220.293C560.634 220.707 561.403 221.02 562.138 221.23C562.872 221.434 563.567 221.535 564.223 221.535C565.177 221.535 565.915 221.344 566.438 220.961C566.962 220.57 567.223 220.027 567.223 219.332C567.223 218.332 566.266 217.641 564.352 217.258L564.259 217.234L563.45 217.07C562.208 216.828 561.302 216.422 560.731 215.852C560.161 215.273 559.876 214.488 559.876 213.496C559.876 212.238 560.302 211.27 561.153 210.59C562.005 209.902 563.22 209.559 564.798 209.559C565.501 209.559 566.177 209.625 566.825 209.758C567.473 209.883 568.11 210.074 568.735 210.332ZM597.869 222.379C597.267 222.699 596.65 222.938 596.017 223.094C595.385 223.258 594.713 223.34 594.002 223.34C591.76 223.34 590.017 222.547 588.775 220.961C587.541 219.375 586.924 217.145 586.924 214.27C586.924 211.41 587.545 209.184 588.787 207.59C590.037 205.988 591.775 205.188 594.002 205.188C594.713 205.188 595.385 205.27 596.017 205.434C596.65 205.59 597.267 205.828 597.869 206.148V208.574C597.291 208.098 596.67 207.734 596.006 207.484C595.342 207.234 594.674 207.109 594.002 207.109C592.463 207.109 591.31 207.703 590.545 208.891C589.779 210.078 589.396 211.871 589.396 214.27C589.396 216.66 589.779 218.449 590.545 219.637C591.31 220.824 592.463 221.418 594.002 221.418C594.689 221.418 595.361 221.293 596.017 221.043C596.681 220.793 597.299 220.43 597.869 219.953V222.379ZM606.494 211.387C605.401 211.387 604.573 211.812 604.01 212.664C603.448 213.516 603.166 214.777 603.166 216.449C603.166 218.113 603.448 219.375 604.01 220.234C604.573 221.086 605.401 221.512 606.494 221.512C607.596 221.512 608.428 221.086 608.99 220.234C609.553 219.375 609.834 218.113 609.834 216.449C609.834 214.777 609.553 213.516 608.99 212.664C608.428 211.812 607.596 211.387 606.494 211.387ZM606.494 209.559C608.315 209.559 609.705 210.148 610.666 211.328C611.635 212.508 612.119 214.215 612.119 216.449C612.119 218.691 611.639 220.402 610.678 221.582C609.717 222.754 608.323 223.34 606.494 223.34C604.674 223.34 603.283 222.754 602.323 221.582C601.362 220.402 600.881 218.691 600.881 216.449C600.881 214.215 601.362 212.508 602.323 211.328C603.283 210.148 604.674 209.559 606.494 209.559ZM623.311 211.551V204.766H625.468V223H623.311V221.348C622.952 221.996 622.471 222.492 621.87 222.836C621.276 223.172 620.589 223.34 619.807 223.34C618.221 223.34 616.971 222.727 616.057 221.5C615.151 220.266 614.698 218.566 614.698 216.402C614.698 214.27 615.155 212.598 616.069 211.387C616.983 210.168 618.229 209.559 619.807 209.559C620.596 209.559 621.292 209.73 621.893 210.074C622.495 210.41 622.968 210.902 623.311 211.551ZM616.971 216.449C616.971 218.121 617.237 219.383 617.768 220.234C618.3 221.086 619.085 221.512 620.124 221.512C621.163 221.512 621.952 221.082 622.491 220.223C623.038 219.363 623.311 218.105 623.311 216.449C623.311 214.785 623.038 213.527 622.491 212.676C621.952 211.816 621.163 211.387 620.124 211.387C619.085 211.387 618.3 211.812 617.768 212.664C617.237 213.516 616.971 214.777 616.971 216.449ZM640.362 215.359V216.414H631.023V216.484C630.96 218.273 631.3 219.559 632.042 220.34C632.792 221.121 633.847 221.512 635.206 221.512C635.894 221.512 636.612 221.402 637.362 221.184C638.112 220.965 638.913 220.633 639.765 220.188V222.332C638.945 222.668 638.152 222.918 637.386 223.082C636.628 223.254 635.894 223.34 635.183 223.34C633.144 223.34 631.55 222.73 630.402 221.512C629.253 220.285 628.679 218.598 628.679 216.449C628.679 214.355 629.241 212.684 630.366 211.434C631.491 210.184 632.991 209.559 634.866 209.559C636.538 209.559 637.855 210.125 638.816 211.258C639.784 212.391 640.3 213.758 640.362 215.359ZM638.206 214.727C638.112 213.82 637.78 213.039 637.21 212.383C636.648 211.719 635.835 211.387 634.773 211.387C633.734 211.387 632.878 211.73 632.206 212.418C631.534 213.105 631.167 213.879 631.105 214.738L638.206 214.727ZM656.395 214.516H668.817V216.496H656.395V214.516ZM670.376 214.516H682.797V216.496H670.376V214.516ZM698.173 211.738V209.605L710.56 214.504V216.449L698.173 221.348V219.203L708.134 215.488L698.173 211.738ZM70.4258 243.504H79.2852V245.496H72.582V249.797C72.918 249.672 73.2539 249.582 73.5898 249.527C73.9336 249.465 74.2773 249.434 74.6211 249.434C76.4336 249.434 77.8711 249.969 78.9336 251.039C79.9961 252.109 80.5273 253.559 80.5273 255.387C80.5273 257.23 79.9688 258.684 78.8516 259.746C77.7422 260.809 76.2227 261.34 74.293 261.34C73.3633 261.34 72.5117 261.277 71.7383 261.152C70.9727 261.027 70.2852 260.84 69.6758 260.59V258.188C70.3945 258.578 71.1172 258.871 71.8438 259.066C72.5703 259.254 73.3125 259.348 74.0703 259.348C75.375 259.348 76.3789 259.004 77.082 258.316C77.793 257.629 78.1484 256.652 78.1484 255.387C78.1484 254.137 77.7812 253.164 77.0469 252.469C76.3203 251.773 75.3047 251.426 74 251.426C73.3672 251.426 72.75 251.5 72.1484 251.648C71.5469 251.789 70.9727 252.004 70.4258 252.293V243.504ZM179.285 249.738L169.324 253.488L179.285 257.203V259.348L166.898 254.449V252.504L179.285 247.605V249.738ZM191.25 248.332V250.441C190.633 250.082 190.012 249.812 189.387 249.633C188.762 249.453 188.125 249.363 187.476 249.363C186.5 249.363 185.769 249.523 185.285 249.844C184.808 250.156 184.57 250.637 184.57 251.285C184.57 251.871 184.75 252.309 185.109 252.598C185.469 252.887 186.363 253.168 187.793 253.441L188.66 253.605C189.73 253.809 190.539 254.215 191.086 254.824C191.64 255.434 191.918 256.227 191.918 257.203C191.918 258.5 191.457 259.516 190.535 260.25C189.613 260.977 188.332 261.34 186.691 261.34C186.043 261.34 185.363 261.27 184.652 261.129C183.941 260.996 183.172 260.793 182.344 260.52V258.293C183.148 258.707 183.918 259.02 184.652 259.23C185.387 259.434 186.082 259.535 186.738 259.535C187.691 259.535 188.43 259.344 188.953 258.961C189.476 258.57 189.738 258.027 189.738 257.332C189.738 256.332 188.781 255.641 186.867 255.258L186.773 255.234L185.965 255.07C184.723 254.828 183.816 254.422 183.246 253.852C182.676 253.273 182.39 252.488 182.39 251.496C182.39 250.238 182.816 249.27 183.668 248.59C184.519 247.902 185.734 247.559 187.312 247.559C188.015 247.559 188.691 247.625 189.34 247.758C189.988 247.883 190.625 248.074 191.25 248.332ZM206.262 260.332C205.684 260.668 205.086 260.918 204.469 261.082C203.86 261.254 203.235 261.34 202.594 261.34C200.563 261.34 198.973 260.73 197.825 259.512C196.684 258.293 196.114 256.605 196.114 254.449C196.114 252.293 196.684 250.605 197.825 249.387C198.973 248.168 200.563 247.559 202.594 247.559C203.227 247.559 203.844 247.641 204.446 247.805C205.047 247.969 205.653 248.223 206.262 248.566V250.828C205.692 250.32 205.118 249.953 204.539 249.727C203.969 249.5 203.321 249.387 202.594 249.387C201.243 249.387 200.203 249.824 199.477 250.699C198.75 251.574 198.387 252.824 198.387 254.449C198.387 256.066 198.75 257.316 199.477 258.199C200.211 259.074 201.25 259.512 202.594 259.512C203.344 259.512 204.016 259.398 204.61 259.172C205.203 258.938 205.754 258.578 206.262 258.094V260.332ZM221.345 250.582C220.884 250.223 220.415 249.961 219.938 249.797C219.462 249.633 218.938 249.551 218.368 249.551C217.024 249.551 215.997 249.973 215.286 250.816C214.575 251.66 214.22 252.879 214.22 254.473V261H212.052V247.875H214.22V250.441C214.579 249.512 215.13 248.801 215.872 248.309C216.622 247.809 217.509 247.559 218.532 247.559C219.063 247.559 219.559 247.625 220.02 247.758C220.481 247.891 220.923 248.098 221.345 248.379V250.582ZM225.493 247.922H231.013V259.324H235.29V261H224.579V259.324H228.857V249.598H225.493V247.922ZM228.857 242.824H231.013V245.543H228.857V242.824ZM240.166 259.348V265.992H237.998V247.875H240.166V249.551C240.525 248.902 241.002 248.41 241.595 248.074C242.197 247.73 242.888 247.559 243.67 247.559C245.256 247.559 246.498 248.172 247.396 249.398C248.303 250.625 248.756 252.324 248.756 254.496C248.756 256.629 248.303 258.305 247.396 259.523C246.49 260.734 245.248 261.34 243.67 261.34C242.873 261.34 242.174 261.172 241.572 260.836C240.978 260.492 240.51 259.996 240.166 259.348ZM246.494 254.449C246.494 252.777 246.228 251.516 245.697 250.664C245.174 249.812 244.392 249.387 243.353 249.387C242.306 249.387 241.513 249.816 240.974 250.676C240.435 251.527 240.166 252.785 240.166 254.449C240.166 256.105 240.435 257.363 240.974 258.223C241.513 259.082 242.306 259.512 243.353 259.512C244.392 259.512 245.174 259.086 245.697 258.234C246.228 257.383 246.494 256.121 246.494 254.449ZM256.947 244.148V247.875H261.846V249.551H256.947V256.676C256.947 257.645 257.131 258.32 257.498 258.703C257.865 259.086 258.506 259.277 259.42 259.277H261.846V261H259.209C257.592 261 256.451 260.676 255.787 260.027C255.123 259.379 254.791 258.262 254.791 256.676V249.551H251.287V247.875H254.791V244.148H256.947ZM264.764 249.738V247.605L277.151 252.504V254.449L264.764 259.348V257.203L274.725 253.488L264.764 249.738ZM198.387 294.266H202.512V299H198.387V294.266ZM212.368 294.266H216.493V299H212.368V294.266ZM226.349 294.266H230.474V299H226.349V294.266ZM71.1641 335.02H74.8438V321.801L70.4375 323.922V321.648L74.8203 319.562H77.1875V335.02H80.8203V337H71.1641V335.02ZM89.1997 319.246C91.0669 319.246 92.477 320.008 93.4302 321.531C94.3911 323.055 94.8716 325.309 94.8716 328.293C94.8716 331.277 94.3911 333.531 93.4302 335.055C92.477 336.578 91.0669 337.34 89.1997 337.34C87.3325 337.34 85.9223 336.578 84.9692 335.055C84.0161 333.531 83.5395 331.277 83.5395 328.293C83.5395 325.309 84.0161 323.055 84.9692 321.531C85.9223 320.008 87.3325 319.246 89.1997 319.246ZM89.1997 335.465C90.3091 335.465 91.1333 334.875 91.6723 333.695C92.2192 332.516 92.4927 330.715 92.4927 328.293C92.4927 327.004 92.4145 325.84 92.2583 324.801L86.6802 333.531C87.2661 334.82 88.1059 335.465 89.1997 335.465ZM89.1997 321.121C88.0981 321.121 87.2739 321.711 86.727 322.891C86.188 324.07 85.9184 325.871 85.9184 328.293C85.9184 329.395 85.9927 330.426 86.1411 331.387L91.602 322.68C91.0083 321.641 90.2075 321.121 89.1997 321.121ZM179.285 325.738L169.324 329.488L179.285 333.203V335.348L166.898 330.449V328.504L179.285 323.605V325.738ZM190.265 319.504H192.492L183.281 339.227H181.043L190.265 319.504ZM205.231 324.332V326.441C204.614 326.082 203.993 325.812 203.368 325.633C202.743 325.453 202.106 325.363 201.457 325.363C200.481 325.363 199.75 325.523 199.266 325.844C198.789 326.156 198.551 326.637 198.551 327.285C198.551 327.871 198.731 328.309 199.09 328.598C199.45 328.887 200.344 329.168 201.774 329.441L202.641 329.605C203.711 329.809 204.52 330.215 205.067 330.824C205.621 331.434 205.899 332.227 205.899 333.203C205.899 334.5 205.438 335.516 204.516 336.25C203.594 336.977 202.313 337.34 200.672 337.34C200.024 337.34 199.344 337.27 198.633 337.129C197.922 336.996 197.153 336.793 196.325 336.52V334.293C197.129 334.707 197.899 335.02 198.633 335.23C199.368 335.434 200.063 335.535 200.719 335.535C201.672 335.535 202.41 335.344 202.934 334.961C203.457 334.57 203.719 334.027 203.719 333.332C203.719 332.332 202.762 331.641 200.848 331.258L200.754 331.234L199.946 331.07C198.703 330.828 197.797 330.422 197.227 329.852C196.657 329.273 196.371 328.488 196.371 327.496C196.371 326.238 196.797 325.27 197.649 324.59C198.5 323.902 199.715 323.559 201.293 323.559C201.996 323.559 202.672 323.625 203.321 323.758C203.969 323.883 204.606 324.074 205.231 324.332ZM220.243 336.332C219.665 336.668 219.067 336.918 218.45 337.082C217.841 337.254 217.216 337.34 216.575 337.34C214.544 337.34 212.954 336.73 211.805 335.512C210.665 334.293 210.095 332.605 210.095 330.449C210.095 328.293 210.665 326.605 211.805 325.387C212.954 324.168 214.544 323.559 216.575 323.559C217.208 323.559 217.825 323.641 218.427 323.805C219.028 323.969 219.634 324.223 220.243 324.566V326.828C219.673 326.32 219.098 325.953 218.52 325.727C217.95 325.5 217.302 325.387 216.575 325.387C215.223 325.387 214.184 325.824 213.458 326.699C212.731 327.574 212.368 328.824 212.368 330.449C212.368 332.066 212.731 333.316 213.458 334.199C214.192 335.074 215.231 335.512 216.575 335.512C217.325 335.512 217.997 335.398 218.591 335.172C219.184 334.938 219.735 334.578 220.243 334.094V336.332ZM235.325 326.582C234.865 326.223 234.396 325.961 233.919 325.797C233.443 325.633 232.919 325.551 232.349 325.551C231.005 325.551 229.978 325.973 229.267 326.816C228.556 327.66 228.2 328.879 228.2 330.473V337H226.033V323.875H228.2V326.441C228.56 325.512 229.111 324.801 229.853 324.309C230.603 323.809 231.49 323.559 232.513 323.559C233.044 323.559 233.54 323.625 234.001 323.758C234.462 323.891 234.904 324.098 235.325 324.379V326.582ZM239.474 323.922H244.994V335.324H249.271V337H238.56V335.324H242.838V325.598H239.474V323.922ZM242.838 318.824H244.994V321.543H242.838V318.824ZM254.147 335.348V341.992H251.979V323.875H254.147V325.551C254.506 324.902 254.983 324.41 255.576 324.074C256.178 323.73 256.869 323.559 257.651 323.559C259.237 323.559 260.479 324.172 261.377 325.398C262.283 326.625 262.737 328.324 262.737 330.496C262.737 332.629 262.283 334.305 261.377 335.523C260.471 336.734 259.229 337.34 257.651 337.34C256.854 337.34 256.155 337.172 255.553 336.836C254.959 336.492 254.49 335.996 254.147 335.348ZM260.475 330.449C260.475 328.777 260.209 327.516 259.678 326.664C259.155 325.812 258.373 325.387 257.334 325.387C256.287 325.387 255.494 325.816 254.955 326.676C254.416 327.527 254.147 328.785 254.147 330.449C254.147 332.105 254.416 333.363 254.955 334.223C255.494 335.082 256.287 335.512 257.334 335.512C258.373 335.512 259.155 335.086 259.678 334.234C260.209 333.383 260.475 332.121 260.475 330.449ZM270.928 320.148V323.875H275.827V325.551H270.928V332.676C270.928 333.645 271.112 334.32 271.479 334.703C271.846 335.086 272.487 335.277 273.401 335.277H275.827V337H273.19C271.573 337 270.432 336.676 269.768 336.027C269.104 335.379 268.772 334.262 268.772 332.676V325.551H265.268V323.875H268.772V320.148H270.928ZM278.745 325.738V323.605L291.132 328.504V330.449L278.745 335.348V333.203L288.706 329.488L278.745 325.738ZM71.1641 373.02H74.8438V359.801L70.4375 361.922V359.648L74.8203 357.562H77.1875V373.02H80.8203V375H71.1641V373.02ZM85.145 373.02H88.8247V359.801L84.4184 361.922V359.648L88.8013 357.562H91.1684V373.02H94.8013V375H85.145V373.02ZM179.285 363.738L169.324 367.488L179.285 371.203V373.348L166.898 368.449V366.504L179.285 361.605V363.738ZM186.246 357.504H188.625V365.18L188.379 368.777H186.492L186.246 365.18V357.504ZM185.894 372.023H188.976V375H185.894V372.023ZM195.024 366.516H207.446V368.496H195.024V366.516ZM209.005 366.516H221.427V368.496H209.005V366.516ZM238.08 357.504H248.463V359.496H240.447V364.207H248.111V366.199H240.447V373.008H248.685V375H238.08V357.504ZM262.069 366.867V375H259.901V366.867C259.901 365.688 259.694 364.82 259.28 364.266C258.865 363.711 258.217 363.434 257.334 363.434C256.326 363.434 255.549 363.793 255.002 364.512C254.463 365.223 254.194 366.246 254.194 367.582V375H252.037V361.875H254.194V363.844C254.576 363.094 255.096 362.527 255.752 362.145C256.408 361.754 257.186 361.559 258.084 361.559C259.42 361.559 260.416 362 261.072 362.883C261.737 363.758 262.069 365.086 262.069 366.867ZM273.788 363.551V356.766H275.944V375H273.788V373.348C273.428 373.996 272.948 374.492 272.346 374.836C271.753 375.172 271.065 375.34 270.284 375.34C268.698 375.34 267.448 374.727 266.534 373.5C265.628 372.266 265.175 370.566 265.175 368.402C265.175 366.27 265.632 364.598 266.546 363.387C267.46 362.168 268.706 361.559 270.284 361.559C271.073 361.559 271.768 361.73 272.37 362.074C272.971 362.41 273.444 362.902 273.788 363.551ZM267.448 368.449C267.448 370.121 267.714 371.383 268.245 372.234C268.776 373.086 269.561 373.512 270.6 373.512C271.639 373.512 272.428 373.082 272.967 372.223C273.514 371.363 273.788 370.105 273.788 368.449C273.788 366.785 273.514 365.527 272.967 364.676C272.428 363.816 271.639 363.387 270.6 363.387C269.561 363.387 268.776 363.812 268.245 364.664C267.714 365.516 267.448 366.777 267.448 368.449ZM296.371 359.449V366.023H299.113C300.207 366.023 301.058 365.734 301.668 365.156C302.285 364.578 302.593 363.77 302.593 362.73C302.593 361.691 302.289 360.887 301.679 360.316C301.07 359.738 300.215 359.449 299.113 359.449H296.371ZM294.004 357.504H299.113C301.066 357.504 302.547 357.949 303.554 358.84C304.562 359.723 305.066 361.02 305.066 362.73C305.066 364.457 304.562 365.762 303.554 366.645C302.554 367.527 301.074 367.969 299.113 367.969H296.371V375H294.004V357.504ZM309.379 361.922H314.899V373.324H319.176V375H308.465V373.324H312.742V363.598H309.379V361.922ZM312.742 356.824H314.899V359.543H312.742V356.824ZM332.758 361.875L328.059 368.156L333.215 375H330.719L326.876 369.738L323.044 375H320.548L325.704 368.156L321.005 361.875H323.395L326.876 366.621L330.333 361.875H332.758ZM346.763 367.359V368.414H337.423V368.484C337.36 370.273 337.7 371.559 338.443 372.34C339.193 373.121 340.247 373.512 341.607 373.512C342.294 373.512 343.013 373.402 343.763 373.184C344.513 372.965 345.314 372.633 346.165 372.188V374.332C345.345 374.668 344.552 374.918 343.786 375.082C343.028 375.254 342.294 375.34 341.583 375.34C339.544 375.34 337.95 374.73 336.802 373.512C335.653 372.285 335.079 370.598 335.079 368.449C335.079 366.355 335.642 364.684 336.767 363.434C337.892 362.184 339.392 361.559 341.267 361.559C342.939 361.559 344.255 362.125 345.216 363.258C346.185 364.391 346.7 365.758 346.763 367.359ZM344.607 366.727C344.513 365.82 344.181 365.039 343.61 364.383C343.048 363.719 342.235 363.387 341.173 363.387C340.134 363.387 339.278 363.73 338.607 364.418C337.935 365.105 337.568 365.879 337.505 366.738L344.607 366.727ZM356.045 370.254C356.045 371.223 356.22 371.953 356.572 372.445C356.931 372.938 357.459 373.184 358.154 373.184H360.673V375H357.943C356.654 375 355.654 374.59 354.943 373.77C354.24 372.941 353.888 371.77 353.888 370.254V358.383H350.431V356.695H356.045V370.254ZM385.999 357.504H388.225L379.014 377.227H376.776L385.999 357.504ZM416.48 373.559C415.847 374.145 415.132 374.59 414.335 374.895C413.546 375.191 412.691 375.34 411.769 375.34C409.55 375.34 407.824 374.547 406.589 372.961C405.355 371.367 404.738 369.137 404.738 366.27C404.738 363.41 405.363 361.184 406.613 359.59C407.863 357.988 409.601 357.188 411.828 357.188C412.562 357.188 413.265 357.293 413.937 357.504C414.609 357.707 415.257 358.02 415.882 358.441V360.867C415.25 360.266 414.601 359.824 413.937 359.543C413.273 359.254 412.57 359.109 411.828 359.109C410.289 359.109 409.132 359.707 408.359 360.902C407.593 362.09 407.21 363.879 407.21 366.27C407.21 368.699 407.582 370.5 408.324 371.672C409.074 372.836 410.222 373.418 411.769 373.418C412.293 373.418 412.75 373.359 413.14 373.242C413.539 373.117 413.898 372.926 414.218 372.668V367.969H411.675V366.023H416.48V373.559ZM424.742 363.387C423.648 363.387 422.82 363.812 422.258 364.664C421.695 365.516 421.414 366.777 421.414 368.449C421.414 370.113 421.695 371.375 422.258 372.234C422.82 373.086 423.648 373.512 424.742 373.512C425.844 373.512 426.676 373.086 427.238 372.234C427.801 371.375 428.082 370.113 428.082 368.449C428.082 366.777 427.801 365.516 427.238 364.664C426.676 363.812 425.844 363.387 424.742 363.387ZM424.742 361.559C426.562 361.559 427.953 362.148 428.914 363.328C429.883 364.508 430.367 366.215 430.367 368.449C430.367 370.691 429.887 372.402 428.926 373.582C427.965 374.754 426.57 375.34 424.742 375.34C422.922 375.34 421.531 374.754 420.57 373.582C419.609 372.402 419.129 370.691 419.129 368.449C419.129 366.215 419.609 364.508 420.57 363.328C421.531 362.148 422.922 361.559 424.742 361.559ZM438.723 363.387C437.629 363.387 436.801 363.812 436.239 364.664C435.676 365.516 435.395 366.777 435.395 368.449C435.395 370.113 435.676 371.375 436.239 372.234C436.801 373.086 437.629 373.512 438.723 373.512C439.825 373.512 440.657 373.086 441.219 372.234C441.782 371.375 442.063 370.113 442.063 368.449C442.063 366.777 441.782 365.516 441.219 364.664C440.657 363.812 439.825 363.387 438.723 363.387ZM438.723 361.559C440.543 361.559 441.934 362.148 442.895 363.328C443.864 364.508 444.348 366.215 444.348 368.449C444.348 370.691 443.868 372.402 442.907 373.582C441.946 374.754 440.551 375.34 438.723 375.34C436.903 375.34 435.512 374.754 434.551 373.582C433.59 372.402 433.11 370.691 433.11 368.449C433.11 366.215 433.59 364.508 434.551 363.328C435.512 362.148 436.903 361.559 438.723 361.559ZM455.54 368.332C455.54 366.715 455.274 365.488 454.743 364.652C454.22 363.809 453.454 363.387 452.446 363.387C451.392 363.387 450.587 363.809 450.032 364.652C449.478 365.488 449.2 366.715 449.2 368.332C449.2 369.949 449.478 371.184 450.032 372.035C450.595 372.879 451.407 373.301 452.47 373.301C453.462 373.301 454.22 372.875 454.743 372.023C455.274 371.172 455.54 369.941 455.54 368.332ZM457.696 374.156C457.696 376.125 457.231 377.617 456.302 378.633C455.372 379.648 454.005 380.156 452.2 380.156C451.606 380.156 450.985 380.102 450.337 379.992C449.688 379.883 449.04 379.723 448.392 379.512V377.379C449.157 377.738 449.853 378.004 450.478 378.176C451.103 378.348 451.677 378.434 452.2 378.434C453.364 378.434 454.212 378.117 454.743 377.484C455.274 376.852 455.54 375.848 455.54 374.473V374.379V372.914C455.196 373.648 454.728 374.195 454.134 374.555C453.54 374.914 452.817 375.094 451.966 375.094C450.435 375.094 449.212 374.48 448.298 373.254C447.384 372.027 446.927 370.387 446.927 368.332C446.927 366.27 447.384 364.625 448.298 363.398C449.212 362.172 450.435 361.559 451.966 361.559C452.81 361.559 453.524 361.727 454.11 362.062C454.696 362.398 455.173 362.918 455.54 363.621V361.922H457.696V374.156ZM467.892 370.254C467.892 371.223 468.068 371.953 468.419 372.445C468.779 372.938 469.306 373.184 470.001 373.184H472.521V375H469.79C468.501 375 467.501 374.59 466.79 373.77C466.087 372.941 465.736 371.77 465.736 370.254V358.383H462.279V356.695H467.892V370.254ZM486.572 367.359V368.414H477.232V368.484C477.17 370.273 477.51 371.559 478.252 372.34C479.002 373.121 480.057 373.512 481.416 373.512C482.103 373.512 482.822 373.402 483.572 373.184C484.322 372.965 485.123 372.633 485.975 372.188V374.332C485.154 374.668 484.361 374.918 483.596 375.082C482.838 375.254 482.103 375.34 481.392 375.34C479.353 375.34 477.76 374.73 476.611 373.512C475.463 372.285 474.889 370.598 474.889 368.449C474.889 366.355 475.451 364.684 476.576 363.434C477.701 362.184 479.201 361.559 481.076 361.559C482.748 361.559 484.064 362.125 485.025 363.258C485.994 364.391 486.51 365.758 486.572 367.359ZM484.416 366.727C484.322 365.82 483.99 365.039 483.42 364.383C482.857 363.719 482.045 363.387 480.982 363.387C479.943 363.387 479.088 363.73 478.416 364.418C477.744 365.105 477.377 365.879 477.314 366.738L484.416 366.727ZM508.628 359.59L506.132 368.543H511.124L508.628 359.59ZM507.198 357.504H510.069L515.425 375H512.975L511.686 370.441H505.557L504.292 375H501.843L507.198 357.504ZM527.706 366.867V375H525.538V366.867C525.538 365.688 525.331 364.82 524.917 364.266C524.503 363.711 523.855 363.434 522.972 363.434C521.964 363.434 521.187 363.793 520.64 364.512C520.101 365.223 519.831 366.246 519.831 367.582V375H517.675V361.875H519.831V363.844C520.214 363.094 520.734 362.527 521.39 362.145C522.046 361.754 522.824 361.559 523.722 361.559C525.058 361.559 526.054 362 526.71 362.883C527.374 363.758 527.706 365.086 527.706 366.867ZM537.598 368.402H536.883C535.625 368.402 534.676 368.625 534.035 369.07C533.402 369.508 533.086 370.164 533.086 371.039C533.086 371.828 533.324 372.441 533.801 372.879C534.277 373.316 534.937 373.535 535.781 373.535C536.969 373.535 537.902 373.125 538.582 372.305C539.262 371.477 539.605 370.336 539.613 368.883V368.402H537.598ZM541.781 367.512V375H539.613V373.055C539.152 373.836 538.57 374.414 537.867 374.789C537.172 375.156 536.324 375.34 535.324 375.34C533.988 375.34 532.922 374.965 532.125 374.215C531.328 373.457 530.93 372.445 530.93 371.18C530.93 369.719 531.418 368.609 532.394 367.852C533.379 367.094 534.82 366.715 536.719 366.715H539.613V366.375C539.605 365.328 539.34 364.57 538.816 364.102C538.293 363.625 537.457 363.387 536.308 363.387C535.574 363.387 534.832 363.492 534.082 363.703C533.332 363.914 532.601 364.223 531.89 364.629V362.473C532.687 362.168 533.449 361.941 534.176 361.793C534.91 361.637 535.621 361.559 536.308 361.559C537.394 361.559 538.32 361.719 539.086 362.039C539.859 362.359 540.484 362.84 540.961 363.48C541.258 363.871 541.469 364.355 541.594 364.934C541.719 365.504 541.781 366.363 541.781 367.512ZM551.778 370.254C551.778 371.223 551.953 371.953 552.305 372.445C552.664 372.938 553.192 373.184 553.887 373.184H556.407V375H553.676C552.387 375 551.387 374.59 550.676 373.77C549.973 372.941 549.621 371.77 549.621 370.254V358.383H546.164V356.695H551.778V370.254ZM567.388 370.781C567.028 371.695 566.571 372.898 566.016 374.391C565.243 376.453 564.723 377.711 564.458 378.164C564.098 378.773 563.649 379.23 563.11 379.535C562.571 379.84 561.942 379.992 561.223 379.992H559.489V378.188H560.766C561.399 378.188 561.895 378.004 562.255 377.637C562.614 377.27 563.071 376.32 563.626 374.789L558.552 361.875H560.837L564.727 372.141L568.559 361.875H570.845L567.388 370.781ZM578.509 358.148V361.875H583.408V363.551H578.509V370.676C578.509 371.645 578.693 372.32 579.06 372.703C579.427 373.086 580.068 373.277 580.982 373.277H583.408V375H580.771C579.154 375 578.013 374.676 577.349 374.027C576.685 373.379 576.353 372.262 576.353 370.676V363.551H572.849V361.875H576.353V358.148H578.509ZM588.998 361.922H594.517V373.324H598.795V375H588.084V373.324H592.361V363.598H588.998V361.922ZM592.361 356.824H594.517V359.543H592.361V356.824ZM611.709 374.332C611.131 374.668 610.533 374.918 609.916 375.082C609.307 375.254 608.682 375.34 608.041 375.34C606.01 375.34 604.42 374.73 603.272 373.512C602.131 372.293 601.561 370.605 601.561 368.449C601.561 366.293 602.131 364.605 603.272 363.387C604.42 362.168 606.01 361.559 608.041 361.559C608.674 361.559 609.291 361.641 609.893 361.805C610.494 361.969 611.1 362.223 611.709 362.566V364.828C611.139 364.32 610.565 363.953 609.987 363.727C609.416 363.5 608.768 363.387 608.041 363.387C606.69 363.387 605.651 363.824 604.924 364.699C604.198 365.574 603.834 366.824 603.834 368.449C603.834 370.066 604.198 371.316 604.924 372.199C605.658 373.074 606.698 373.512 608.041 373.512C608.791 373.512 609.463 373.398 610.057 373.172C610.651 372.938 611.201 372.578 611.709 372.094V374.332ZM624.659 362.332V364.441C624.042 364.082 623.421 363.812 622.796 363.633C622.171 363.453 621.534 363.363 620.885 363.363C619.909 363.363 619.178 363.523 618.694 363.844C618.218 364.156 617.979 364.637 617.979 365.285C617.979 365.871 618.159 366.309 618.518 366.598C618.878 366.887 619.772 367.168 621.202 367.441L622.069 367.605C623.139 367.809 623.948 368.215 624.495 368.824C625.05 369.434 625.327 370.227 625.327 371.203C625.327 372.5 624.866 373.516 623.944 374.25C623.022 374.977 621.741 375.34 620.1 375.34C619.452 375.34 618.772 375.27 618.061 375.129C617.35 374.996 616.581 374.793 615.753 374.52V372.293C616.557 372.707 617.327 373.02 618.061 373.23C618.796 373.434 619.491 373.535 620.147 373.535C621.1 373.535 621.839 373.344 622.362 372.961C622.885 372.57 623.147 372.027 623.147 371.332C623.147 370.332 622.19 369.641 620.276 369.258L620.182 369.234L619.374 369.07C618.132 368.828 617.225 368.422 616.655 367.852C616.085 367.273 615.8 366.488 615.8 365.496C615.8 364.238 616.225 363.27 617.077 362.59C617.928 361.902 619.143 361.559 620.721 361.559C621.425 361.559 622.1 361.625 622.749 361.758C623.397 361.883 624.034 362.074 624.659 362.332ZM667.774 374.379C667.172 374.699 666.555 374.938 665.922 375.094C665.289 375.258 664.617 375.34 663.906 375.34C661.664 375.34 659.922 374.547 658.68 372.961C657.445 371.375 656.828 369.145 656.828 366.27C656.828 363.41 657.449 361.184 658.692 359.59C659.942 357.988 661.68 357.188 663.906 357.188C664.617 357.188 665.289 357.27 665.922 357.434C666.555 357.59 667.172 357.828 667.774 358.148V360.574C667.195 360.098 666.574 359.734 665.91 359.484C665.246 359.234 664.578 359.109 663.906 359.109C662.367 359.109 661.215 359.703 660.449 360.891C659.684 362.078 659.301 363.871 659.301 366.27C659.301 368.66 659.684 370.449 660.449 371.637C661.215 372.824 662.367 373.418 663.906 373.418C664.594 373.418 665.266 373.293 665.922 373.043C666.586 372.793 667.203 372.43 667.774 371.953V374.379ZM676.399 363.387C675.305 363.387 674.477 363.812 673.915 364.664C673.352 365.516 673.071 366.777 673.071 368.449C673.071 370.113 673.352 371.375 673.915 372.234C674.477 373.086 675.305 373.512 676.399 373.512C677.501 373.512 678.333 373.086 678.895 372.234C679.458 371.375 679.739 370.113 679.739 368.449C679.739 366.777 679.458 365.516 678.895 364.664C678.333 363.812 677.501 363.387 676.399 363.387ZM676.399 361.559C678.219 361.559 679.61 362.148 680.571 363.328C681.54 364.508 682.024 366.215 682.024 368.449C682.024 370.691 681.544 372.402 680.583 373.582C679.622 374.754 678.227 375.34 676.399 375.34C674.579 375.34 673.188 374.754 672.227 373.582C671.266 372.402 670.786 370.691 670.786 368.449C670.786 366.215 671.266 364.508 672.227 363.328C673.188 362.148 674.579 361.559 676.399 361.559ZM693.216 363.551V356.766H695.372V375H693.216V373.348C692.857 373.996 692.376 374.492 691.775 374.836C691.181 375.172 690.493 375.34 689.712 375.34C688.126 375.34 686.876 374.727 685.962 373.5C685.056 372.266 684.603 370.566 684.603 368.402C684.603 366.27 685.06 364.598 685.974 363.387C686.888 362.168 688.134 361.559 689.712 361.559C690.501 361.559 691.196 361.73 691.798 362.074C692.4 362.41 692.872 362.902 693.216 363.551ZM686.876 368.449C686.876 370.121 687.142 371.383 687.673 372.234C688.204 373.086 688.989 373.512 690.028 373.512C691.068 373.512 691.857 373.082 692.396 372.223C692.943 371.363 693.216 370.105 693.216 368.449C693.216 366.785 692.943 365.527 692.396 364.676C691.857 363.816 691.068 363.387 690.028 363.387C688.989 363.387 688.204 363.812 687.673 364.664C687.142 365.516 686.876 366.777 686.876 368.449ZM710.267 367.359V368.414H700.927V368.484C700.865 370.273 701.205 371.559 701.947 372.34C702.697 373.121 703.752 373.512 705.111 373.512C705.798 373.512 706.517 373.402 707.267 373.184C708.017 372.965 708.818 372.633 709.67 372.188V374.332C708.849 374.668 708.056 374.918 707.291 375.082C706.533 375.254 705.798 375.34 705.088 375.34C703.048 375.34 701.455 374.73 700.306 373.512C699.158 372.285 698.584 370.598 698.584 368.449C698.584 366.355 699.146 364.684 700.271 363.434C701.396 362.184 702.896 361.559 704.771 361.559C706.443 361.559 707.759 362.125 708.72 363.258C709.689 364.391 710.205 365.758 710.267 367.359ZM708.111 366.727C708.017 365.82 707.685 365.039 707.115 364.383C706.552 363.719 705.74 363.387 704.677 363.387C703.638 363.387 702.783 363.73 702.111 364.418C701.439 365.105 701.072 365.879 701.009 366.738L708.111 366.727ZM726.299 366.516H738.721V368.496H726.299V366.516ZM740.28 366.516H752.702V368.496H740.28V366.516ZM768.078 363.738V361.605L780.465 366.504V368.449L768.078 373.348V371.203L778.039 367.488L768.078 363.738ZM71.1641 411.02H74.8438V397.801L70.4375 399.922V397.648L74.8203 395.562H77.1875V411.02H80.8203V413H71.1641V411.02ZM86.352 411.008H94.3911V413H83.7622V411.008C85.2231 409.469 86.5005 408.109 87.5942 406.93C88.688 405.75 89.4419 404.918 89.8559 404.434C90.6372 403.48 91.1645 402.711 91.438 402.125C91.7114 401.531 91.8481 400.926 91.8481 400.309C91.8481 399.332 91.5591 398.566 90.9809 398.012C90.4106 397.457 89.6255 397.18 88.6255 397.18C87.9145 397.18 87.1684 397.309 86.3872 397.566C85.6059 397.824 84.7778 398.215 83.9028 398.738V396.348C84.7075 395.965 85.4966 395.676 86.27 395.48C87.0513 395.285 87.8208 395.188 88.5786 395.188C90.2895 395.188 91.6645 395.645 92.7036 396.559C93.7505 397.465 94.2739 398.656 94.2739 400.133C94.2739 400.883 94.0981 401.633 93.7466 402.383C93.4028 403.133 92.8403 403.961 92.0591 404.867C91.6216 405.375 90.9848 406.078 90.1489 406.977C89.3208 407.875 88.0552 409.219 86.352 411.008ZM170.425 408.266H174.55V413H170.425V408.266ZM184.406 408.266H188.531V413H184.406V408.266ZM198.387 408.266H202.512V413H198.387V408.266Z" fill="#828282"/>
<rect x="45" y="1" width="968" height="446" rx="31" stroke="#828282" stroke-width="2"/>
<g filter="url(#filter0_d_176_1180)">
<rect x="30" y="111" width="998" height="70" rx="16" fill="#BB6BD9" shape-rendering="crispEdges"/>
<path d="M75.4336 146.172H73.582V143.125H75.4336C76.293 143.125 76.957 142.957 77.4258 142.621C77.9023 142.277 78.1406 141.797 78.1406 141.18C78.1406 140.531 77.9023 140.027 77.4258 139.668C76.957 139.301 76.293 139.117 75.4336 139.117C74.7773 139.117 74.0742 139.199 73.3242 139.363C72.5742 139.527 71.7969 139.766 70.9922 140.078V136.938C71.7969 136.695 72.5898 136.512 73.3711 136.387C74.1523 136.254 74.9023 136.188 75.6211 136.188C77.4648 136.188 78.9023 136.59 79.9336 137.395C80.9648 138.199 81.4805 139.309 81.4805 140.723C81.4805 141.762 81.1836 142.613 80.5898 143.277C79.9961 143.934 79.1484 144.363 78.0469 144.566C79.2969 144.785 80.25 145.285 80.9062 146.066C81.5625 146.84 81.8906 147.859 81.8906 149.125C81.8906 150.82 81.3477 152.113 80.2617 153.004C79.1758 153.895 77.5977 154.34 75.5273 154.34C74.6445 154.34 73.7734 154.266 72.9141 154.117C72.0625 153.969 71.2461 153.754 70.4648 153.473V150.262C71.1992 150.629 71.9922 150.91 72.8438 151.105C73.6953 151.293 74.5898 151.387 75.5273 151.387C76.4648 151.387 77.207 151.172 77.7539 150.742C78.3008 150.305 78.5742 149.719 78.5742 148.984C78.5742 148.086 78.3008 147.395 77.7539 146.91C77.207 146.418 76.4336 146.172 75.4336 146.172ZM180.285 143.148L170.968 146.488L180.285 149.805V152.723L167.898 147.859V145.094L180.285 140.219V143.148ZM192.461 141.285V144.285C191.828 143.879 191.168 143.574 190.48 143.371C189.801 143.16 189.117 143.055 188.43 143.055C187.664 143.055 187.086 143.168 186.695 143.395C186.305 143.613 186.109 143.941 186.109 144.379C186.109 145.004 186.945 145.512 188.617 145.902L188.746 145.938L189.73 146.172C190.98 146.469 191.894 146.949 192.473 147.613C193.058 148.27 193.351 149.16 193.351 150.285C193.351 151.637 192.906 152.652 192.015 153.332C191.133 154.004 189.801 154.34 188.019 154.34C187.23 154.34 186.422 154.27 185.594 154.129C184.765 153.996 183.926 153.793 183.074 153.52V150.52C183.832 150.949 184.601 151.277 185.383 151.504C186.172 151.73 186.933 151.844 187.668 151.844C188.473 151.844 189.082 151.727 189.496 151.492C189.91 151.258 190.117 150.918 190.117 150.473C190.117 150.035 189.969 149.699 189.672 149.465C189.383 149.23 188.687 148.98 187.586 148.715L186.637 148.504C185.324 148.207 184.367 147.742 183.765 147.109C183.164 146.477 182.863 145.629 182.863 144.566C182.863 143.301 183.32 142.316 184.234 141.613C185.148 140.91 186.433 140.559 188.09 140.559C188.832 140.559 189.57 140.621 190.305 140.746C191.047 140.863 191.765 141.043 192.461 141.285ZM207.262 153.332C206.684 153.668 206.063 153.918 205.399 154.082C204.735 154.254 204.02 154.34 203.254 154.34C201.231 154.34 199.649 153.73 198.508 152.512C197.368 151.293 196.797 149.605 196.797 147.449C196.797 145.285 197.371 143.594 198.52 142.375C199.668 141.148 201.254 140.535 203.278 140.535C203.981 140.535 204.657 140.617 205.305 140.781C205.961 140.945 206.614 141.199 207.262 141.543V144.684C206.762 144.254 206.211 143.926 205.61 143.699C205.016 143.465 204.399 143.348 203.758 143.348C202.641 143.348 201.782 143.703 201.18 144.414C200.578 145.125 200.278 146.137 200.278 147.449C200.278 148.762 200.578 149.77 201.18 150.473C201.782 151.176 202.641 151.527 203.758 151.527C204.422 151.527 205.043 151.418 205.621 151.199C206.2 150.973 206.746 150.633 207.262 150.18V153.332ZM222.298 144.496C221.923 144.152 221.481 143.895 220.973 143.723C220.473 143.551 219.923 143.465 219.321 143.465C218.595 143.465 217.958 143.594 217.411 143.852C216.872 144.102 216.454 144.469 216.157 144.953C215.97 145.25 215.837 145.609 215.759 146.031C215.688 146.453 215.653 147.094 215.653 147.953V154H212.22V140.875H215.653V142.914C215.989 142.164 216.505 141.586 217.2 141.18C217.895 140.766 218.708 140.559 219.637 140.559C220.106 140.559 220.563 140.617 221.009 140.734C221.462 140.844 221.891 141.008 222.298 141.227V144.496ZM225.38 140.875H232.177V151.363H236.443V154H224.466V151.363H228.743V143.512H225.38V140.875ZM228.743 134.488H232.177V138.496H228.743V134.488ZM241.951 152.148V158.992H238.529V140.875H241.951V142.844C242.31 142.086 242.783 141.516 243.369 141.133C243.955 140.75 244.642 140.559 245.431 140.559C246.931 140.559 248.095 141.16 248.924 142.363C249.752 143.566 250.166 145.262 250.166 147.449C250.166 149.668 249.744 151.371 248.9 152.559C248.064 153.746 246.869 154.34 245.314 154.34C244.611 154.34 243.978 154.16 243.416 153.801C242.861 153.434 242.373 152.883 241.951 152.148ZM246.732 147.426C246.732 146.16 246.521 145.168 246.099 144.449C245.678 143.73 245.095 143.371 244.353 143.371C243.611 143.371 243.025 143.73 242.595 144.449C242.166 145.168 241.951 146.16 241.951 147.426C241.951 148.691 242.166 149.684 242.595 150.402C243.025 151.121 243.611 151.48 244.353 151.48C245.095 151.48 245.678 151.121 246.099 150.402C246.521 149.684 246.732 148.691 246.732 147.426ZM258.838 137.148V140.875H263.326V143.512H258.838V149.723C258.838 150.309 258.979 150.73 259.26 150.988C259.549 151.238 260.026 151.363 260.69 151.363H263.326V154H260.444C258.475 154 257.143 153.688 256.447 153.062C255.752 152.43 255.405 151.262 255.405 149.559V143.512H252.053V140.875H255.405V137.148H258.838ZM290.327 141.285V144.285C289.695 143.879 289.034 143.574 288.347 143.371C287.667 143.16 286.984 143.055 286.296 143.055C285.53 143.055 284.952 143.168 284.562 143.395C284.171 143.613 283.976 143.941 283.976 144.379C283.976 145.004 284.812 145.512 286.484 145.902L286.613 145.938L287.597 146.172C288.847 146.469 289.761 146.949 290.339 147.613C290.925 148.27 291.218 149.16 291.218 150.285C291.218 151.637 290.773 152.652 289.882 153.332C288.999 154.004 287.667 154.34 285.886 154.34C285.097 154.34 284.288 154.27 283.46 154.129C282.632 153.996 281.792 153.793 280.941 153.52V150.52C281.698 150.949 282.468 151.277 283.249 151.504C284.038 151.73 284.8 151.844 285.534 151.844C286.339 151.844 286.948 151.727 287.363 151.492C287.777 151.258 287.984 150.918 287.984 150.473C287.984 150.035 287.835 149.699 287.538 149.465C287.249 149.23 286.554 148.98 285.452 148.715L284.503 148.504C283.191 148.207 282.234 147.742 281.632 147.109C281.03 146.477 280.73 145.629 280.73 144.566C280.73 143.301 281.187 142.316 282.101 141.613C283.015 140.91 284.3 140.559 285.956 140.559C286.698 140.559 287.437 140.621 288.171 140.746C288.913 140.863 289.632 141.043 290.327 141.285ZM306.183 144.496C305.808 144.152 305.367 143.895 304.859 143.723C304.359 143.551 303.808 143.465 303.207 143.465C302.48 143.465 301.843 143.594 301.297 143.852C300.758 144.102 300.34 144.469 300.043 144.953C299.855 145.25 299.722 145.609 299.644 146.031C299.574 146.453 299.539 147.094 299.539 147.953V154H296.105V140.875H299.539V142.914C299.875 142.164 300.39 141.586 301.086 141.18C301.781 140.766 302.593 140.559 303.523 140.559C303.992 140.559 304.449 140.617 304.894 140.734C305.347 140.844 305.777 141.008 306.183 141.227V144.496ZM319.11 153.332C318.531 153.668 317.91 153.918 317.246 154.082C316.582 154.254 315.867 154.34 315.102 154.34C313.078 154.34 311.496 153.73 310.356 152.512C309.215 151.293 308.645 149.605 308.645 147.449C308.645 145.285 309.219 143.594 310.367 142.375C311.516 141.148 313.102 140.535 315.125 140.535C315.828 140.535 316.504 140.617 317.152 140.781C317.809 140.945 318.461 141.199 319.11 141.543V144.684C318.61 144.254 318.059 143.926 317.457 143.699C316.863 143.465 316.246 143.348 315.606 143.348C314.488 143.348 313.629 143.703 313.027 144.414C312.426 145.125 312.125 146.137 312.125 147.449C312.125 148.762 312.426 149.77 313.027 150.473C313.629 151.176 314.488 151.527 315.606 151.527C316.27 151.527 316.891 151.418 317.469 151.199C318.047 150.973 318.594 150.633 319.11 150.18V153.332ZM321.688 147.766H334.075V150.543H321.688V147.766ZM321.688 142.434H334.075V145.188H321.688V142.434ZM343.638 135.766H347.306V138.93L345.009 143.418H342.489L343.638 138.93V135.766ZM337.544 135.766H341.212V138.93L338.915 143.418H336.396L337.544 138.93V135.766ZM361.17 145.48V154H357.759V146.008C357.759 145.062 357.623 144.387 357.349 143.98C357.084 143.574 356.646 143.371 356.037 143.371C355.412 143.371 354.923 143.648 354.572 144.203C354.22 144.75 354.045 145.512 354.045 146.488V154H350.634V135.766H354.045V142.844C354.287 142.117 354.701 141.555 355.287 141.156C355.873 140.758 356.58 140.559 357.408 140.559C358.65 140.559 359.587 140.973 360.22 141.801C360.853 142.621 361.17 143.848 361.17 145.48ZM370.686 137.148V140.875H375.174V143.512H370.686V149.723C370.686 150.309 370.826 150.73 371.108 150.988C371.397 151.238 371.873 151.363 372.537 151.363H375.174V154H372.291C370.322 154 368.99 153.688 368.295 153.062C367.6 152.43 367.252 151.262 367.252 149.559V143.512H363.9V140.875H367.252V137.148H370.686ZM384.667 137.148V140.875H389.155V143.512H384.667V149.723C384.667 150.309 384.807 150.73 385.088 150.988C385.378 151.238 385.854 151.363 386.518 151.363H389.155V154H386.272C384.303 154 382.971 153.688 382.276 153.062C381.581 152.43 381.233 151.262 381.233 149.559V143.512H377.881V140.875H381.233V137.148H384.667ZM395.741 152.148V158.992H392.319V140.875H395.741V142.844C396.101 142.086 396.573 141.516 397.159 141.133C397.745 140.75 398.433 140.559 399.222 140.559C400.722 140.559 401.886 141.16 402.714 142.363C403.542 143.566 403.956 145.262 403.956 147.449C403.956 149.668 403.534 151.371 402.69 152.559C401.855 153.746 400.659 154.34 399.105 154.34C398.401 154.34 397.769 154.16 397.206 153.801C396.651 153.434 396.163 152.883 395.741 152.148ZM400.522 147.426C400.522 146.16 400.312 145.168 399.89 144.449C399.468 143.73 398.886 143.371 398.144 143.371C397.401 143.371 396.815 143.73 396.386 144.449C395.956 145.168 395.741 146.16 395.741 147.426C395.741 148.691 395.956 149.684 396.386 150.402C396.815 151.121 397.401 151.48 398.144 151.48C398.886 151.48 399.468 151.121 399.89 150.402C400.312 149.684 400.522 148.691 400.522 147.426ZM416.156 141.285V144.285C415.523 143.879 414.863 143.574 414.175 143.371C413.496 143.16 412.812 143.055 412.125 143.055C411.359 143.055 410.781 143.168 410.39 143.395C410 143.613 409.804 143.941 409.804 144.379C409.804 145.004 410.64 145.512 412.312 145.902L412.441 145.938L413.425 146.172C414.675 146.469 415.589 146.949 416.168 147.613C416.753 148.27 417.046 149.16 417.046 150.285C417.046 151.637 416.601 152.652 415.71 153.332C414.828 154.004 413.496 154.34 411.714 154.34C410.925 154.34 410.117 154.27 409.289 154.129C408.46 153.996 407.621 153.793 406.769 153.52V150.52C407.527 150.949 408.296 151.277 409.078 151.504C409.867 151.73 410.628 151.844 411.363 151.844C412.168 151.844 412.777 151.727 413.191 151.492C413.605 151.258 413.812 150.918 413.812 150.473C413.812 150.035 413.664 149.699 413.367 149.465C413.078 149.23 412.382 148.98 411.281 148.715L410.332 148.504C409.019 148.207 408.062 147.742 407.46 147.109C406.859 146.477 406.558 145.629 406.558 144.566C406.558 143.301 407.015 142.316 407.929 141.613C408.843 140.91 410.128 140.559 411.785 140.559C412.527 140.559 413.265 140.621 414 140.746C414.742 140.863 415.46 141.043 416.156 141.285ZM423.785 141.543H427.688V145.82H423.785V141.543ZM423.785 149.699H427.688V154H423.785V149.699ZM443.04 136.504H445.629L436.418 156.227H433.829L443.04 136.504ZM457.02 136.504H459.61L450.399 156.227H447.81L457.02 136.504ZM468.669 147.836C467.388 147.836 466.494 148 465.986 148.328C465.478 148.656 465.224 149.219 465.224 150.016C465.224 150.609 465.4 151.082 465.751 151.434C466.103 151.785 466.58 151.961 467.181 151.961C468.087 151.961 468.79 151.621 469.29 150.941C469.79 150.254 470.04 149.297 470.04 148.07V147.836H468.669ZM473.451 146.512V154H470.04V152.535C469.626 153.113 469.095 153.559 468.447 153.871C467.798 154.184 467.083 154.34 466.302 154.34C464.81 154.34 463.646 153.945 462.81 153.156C461.982 152.367 461.568 151.266 461.568 149.852C461.568 148.32 462.064 147.191 463.056 146.465C464.048 145.73 465.583 145.363 467.662 145.363H470.04V144.789C470.04 144.234 469.837 143.816 469.431 143.535C469.033 143.246 468.443 143.102 467.662 143.102C466.841 143.102 466.044 143.207 465.271 143.418C464.505 143.621 463.705 143.949 462.869 144.402V141.473C463.626 141.16 464.396 140.93 465.177 140.781C465.958 140.633 466.787 140.559 467.662 140.559C469.794 140.559 471.29 140.992 472.15 141.859C473.017 142.727 473.451 144.277 473.451 146.512ZM486.998 145.48V154H483.588V146.008C483.588 145.055 483.451 144.375 483.178 143.969C482.912 143.555 482.475 143.348 481.865 143.348C481.248 143.348 480.76 143.625 480.4 144.18C480.049 144.734 479.873 145.504 479.873 146.488V154H476.463V140.875H479.873V142.844C480.115 142.117 480.529 141.555 481.115 141.156C481.701 140.758 482.408 140.559 483.236 140.559C484.478 140.559 485.416 140.973 486.049 141.801C486.682 142.621 486.998 143.848 486.998 145.48ZM497.838 147.227C497.838 146.055 497.616 145.117 497.17 144.414C496.725 143.703 496.139 143.348 495.413 143.348C494.694 143.348 494.112 143.699 493.666 144.402C493.229 145.105 493.01 146.047 493.01 147.227C493.01 148.414 493.229 149.359 493.666 150.062C494.112 150.766 494.694 151.117 495.413 151.117C496.139 151.117 496.725 150.766 497.17 150.062C497.616 149.352 497.838 148.406 497.838 147.227ZM501.272 153.016C501.272 155.117 500.795 156.633 499.842 157.562C498.897 158.5 497.358 158.969 495.225 158.969C494.506 158.969 493.795 158.914 493.092 158.805C492.389 158.703 491.674 158.543 490.948 158.324V155.172C491.596 155.531 492.256 155.797 492.928 155.969C493.6 156.141 494.291 156.227 495.002 156.227C495.971 156.227 496.686 155.996 497.147 155.535C497.608 155.082 497.838 154.371 497.838 153.402V151.984C497.502 152.609 497.057 153.074 496.502 153.379C495.948 153.684 495.272 153.836 494.475 153.836C492.975 153.836 491.784 153.25 490.901 152.078C490.018 150.906 489.577 149.316 489.577 147.309C489.577 145.23 490.018 143.582 490.901 142.363C491.784 141.145 492.967 140.535 494.452 140.535C495.202 140.535 495.87 140.711 496.455 141.062C497.041 141.414 497.502 141.91 497.838 142.551V140.875H501.272V153.016ZM515.323 153.355C514.526 153.684 513.714 153.93 512.886 154.094C512.057 154.258 511.182 154.34 510.261 154.34C508.065 154.34 506.386 153.754 505.222 152.582C504.065 151.402 503.487 149.707 503.487 147.496C503.487 145.355 504.046 143.664 505.163 142.422C506.28 141.18 507.804 140.559 509.733 140.559C511.679 140.559 513.186 141.137 514.257 142.293C515.335 143.441 515.874 145.062 515.874 147.156V148.551H506.979C506.987 149.582 507.292 150.352 507.893 150.859C508.495 151.367 509.393 151.621 510.589 151.621C511.378 151.621 512.155 151.508 512.921 151.281C513.686 151.055 514.487 150.695 515.323 150.203V153.355ZM512.417 145.973C512.401 145.066 512.167 144.383 511.714 143.922C511.268 143.453 510.608 143.219 509.733 143.219C508.944 143.219 508.315 143.461 507.847 143.945C507.378 144.422 507.1 145.102 507.015 145.984L512.417 145.973ZM520.925 148.527V138.402H517.445V135.766H524.359V148.527C524.359 149.559 524.519 150.289 524.839 150.719C525.16 151.148 525.703 151.363 526.468 151.363H529.21V154H525.507C523.874 154 522.703 153.578 521.992 152.734C521.281 151.891 520.925 150.488 520.925 148.527ZM538.703 155.418C538.242 156.652 537.687 157.551 537.039 158.113C536.398 158.684 535.617 158.969 534.695 158.969H531.859V156.355H533.254C533.957 156.355 534.473 156.234 534.801 155.992C535.129 155.758 535.461 155.207 535.797 154.34L536.055 153.637L531.062 140.875H534.672L537.672 149.395L540.543 140.875H544.152L538.703 155.418ZM552.438 137.148V140.875H556.926V143.512H552.438V149.723C552.438 150.309 552.578 150.73 552.86 150.988C553.149 151.238 553.625 151.363 554.289 151.363H556.926V154H554.043C552.075 154 550.742 153.688 550.047 153.062C549.352 152.43 549.004 151.262 549.004 149.559V143.512H545.653V140.875H549.004V137.148H552.438ZM560.923 140.875H567.72V151.363H571.985V154H560.009V151.363H564.286V143.512H560.923V140.875ZM564.286 134.488H567.72V138.496H564.286V134.488ZM584.747 153.332C584.169 153.668 583.548 153.918 582.884 154.082C582.22 154.254 581.505 154.34 580.74 154.34C578.716 154.34 577.134 153.73 575.993 152.512C574.853 151.293 574.283 149.605 574.283 147.449C574.283 145.285 574.857 143.594 576.005 142.375C577.154 141.148 578.74 140.535 580.763 140.535C581.466 140.535 582.142 140.617 582.79 140.781C583.447 140.945 584.099 141.199 584.747 141.543V144.684C584.247 144.254 583.697 143.926 583.095 143.699C582.501 143.465 581.884 143.348 581.243 143.348C580.126 143.348 579.267 143.703 578.665 144.414C578.064 145.125 577.763 146.137 577.763 147.449C577.763 148.762 578.064 149.77 578.665 150.473C579.267 151.176 580.126 151.527 581.243 151.527C581.908 151.527 582.529 151.418 583.107 151.199C583.685 150.973 584.232 150.633 584.747 150.18V153.332ZM597.908 141.285V144.285C597.275 143.879 596.615 143.574 595.927 143.371C595.248 143.16 594.564 143.055 593.877 143.055C593.111 143.055 592.533 143.168 592.142 143.395C591.752 143.613 591.556 143.941 591.556 144.379C591.556 145.004 592.392 145.512 594.064 145.902L594.193 145.938L595.177 146.172C596.427 146.469 597.342 146.949 597.92 147.613C598.506 148.27 598.799 149.16 598.799 150.285C598.799 151.637 598.353 152.652 597.463 153.332C596.58 154.004 595.248 154.34 593.467 154.34C592.677 154.34 591.869 154.27 591.041 154.129C590.213 153.996 589.373 153.793 588.521 153.52V150.52C589.279 150.949 590.049 151.277 590.83 151.504C591.619 151.73 592.381 151.844 593.115 151.844C593.92 151.844 594.529 151.727 594.943 151.492C595.357 151.258 595.564 150.918 595.564 150.473C595.564 150.035 595.416 149.699 595.119 149.465C594.83 149.23 594.135 148.98 593.033 148.715L592.084 148.504C590.771 148.207 589.814 147.742 589.213 147.109C588.611 146.477 588.31 145.629 588.31 144.566C588.31 143.301 588.767 142.316 589.681 141.613C590.595 140.91 591.881 140.559 593.537 140.559C594.279 140.559 595.017 140.621 595.752 140.746C596.494 140.863 597.213 141.043 597.908 141.285ZM605.537 149.699H609.44V154H605.537V149.699ZM622.46 147.836C621.178 147.836 620.284 148 619.776 148.328C619.268 148.656 619.014 149.219 619.014 150.016C619.014 150.609 619.19 151.082 619.542 151.434C619.893 151.785 620.37 151.961 620.971 151.961C621.878 151.961 622.581 151.621 623.081 150.941C623.581 150.254 623.831 149.297 623.831 148.07V147.836H622.46ZM627.241 146.512V154H623.831V152.535C623.417 153.113 622.885 153.559 622.237 153.871C621.589 154.184 620.874 154.34 620.093 154.34C618.6 154.34 617.436 153.945 616.6 153.156C615.772 152.367 615.358 151.266 615.358 149.852C615.358 148.32 615.854 147.191 616.846 146.465C617.839 145.73 619.374 145.363 621.452 145.363H623.831V144.789C623.831 144.234 623.628 143.816 623.221 143.535C622.823 143.246 622.233 143.102 621.452 143.102C620.632 143.102 619.835 143.207 619.061 143.418C618.296 143.621 617.495 143.949 616.659 144.402V141.473C617.417 141.16 618.186 140.93 618.968 140.781C619.749 140.633 620.577 140.559 621.452 140.559C623.585 140.559 625.081 140.992 625.94 141.859C626.807 142.727 627.241 144.277 627.241 146.512ZM630.827 140.875H637.624V151.363H641.89V154H629.913V151.363H634.191V143.512H630.827V140.875ZM634.191 134.488H637.624V138.496H634.191V134.488ZM652.754 136.504H655.343L646.133 156.227H643.543L652.754 136.504ZM661.379 152.148V158.992H657.957V140.875H661.379V142.844C661.738 142.086 662.211 141.516 662.797 141.133C663.383 140.75 664.07 140.559 664.86 140.559C666.36 140.559 667.524 141.16 668.352 142.363C669.18 143.566 669.594 145.262 669.594 147.449C669.594 149.668 669.172 151.371 668.328 152.559C667.492 153.746 666.297 154.34 664.742 154.34C664.039 154.34 663.406 154.16 662.844 153.801C662.289 153.434 661.801 152.883 661.379 152.148ZM666.16 147.426C666.16 146.16 665.949 145.168 665.528 144.449C665.106 143.73 664.524 143.371 663.781 143.371C663.039 143.371 662.453 143.73 662.024 144.449C661.594 145.168 661.379 146.16 661.379 147.426C661.379 148.691 661.594 149.684 662.024 150.402C662.453 151.121 663.039 151.48 663.781 151.48C664.524 151.48 665.106 151.121 665.528 150.402C665.949 149.684 666.16 148.691 666.16 147.426ZM678.383 147.836C677.102 147.836 676.208 148 675.7 148.328C675.192 148.656 674.938 149.219 674.938 150.016C674.938 150.609 675.114 151.082 675.465 151.434C675.817 151.785 676.294 151.961 676.895 151.961C677.801 151.961 678.505 151.621 679.005 150.941C679.505 150.254 679.755 149.297 679.755 148.07V147.836H678.383ZM683.165 146.512V154H679.755V152.535C679.34 153.113 678.809 153.559 678.161 153.871C677.512 154.184 676.797 154.34 676.016 154.34C674.524 154.34 673.36 153.945 672.524 153.156C671.696 152.367 671.282 151.266 671.282 149.852C671.282 148.32 671.778 147.191 672.77 146.465C673.762 145.73 675.297 145.363 677.376 145.363H679.755V144.789C679.755 144.234 679.551 143.816 679.145 143.535C678.747 143.246 678.157 143.102 677.376 143.102C676.555 143.102 675.758 143.207 674.985 143.418C674.219 143.621 673.419 143.949 672.583 144.402V141.473C673.34 141.16 674.11 140.93 674.891 140.781C675.672 140.633 676.501 140.559 677.376 140.559C679.508 140.559 681.005 140.992 681.864 141.859C682.731 142.727 683.165 144.277 683.165 146.512ZM692.247 137.148V140.875H696.735V143.512H692.247V149.723C692.247 150.309 692.388 150.73 692.669 150.988C692.958 151.238 693.435 151.363 694.099 151.363H696.735V154H693.853C691.884 154 690.552 153.688 689.857 153.062C689.161 152.43 688.814 151.262 688.814 149.559V143.512H685.462V140.875H688.814V137.148H692.247ZM710.576 153.332C709.998 153.668 709.377 153.918 708.713 154.082C708.048 154.254 707.334 154.34 706.568 154.34C704.545 154.34 702.963 153.73 701.822 152.512C700.681 151.293 700.111 149.605 700.111 147.449C700.111 145.285 700.685 143.594 701.834 142.375C702.982 141.148 704.568 140.535 706.591 140.535C707.295 140.535 707.97 140.617 708.619 140.781C709.275 140.945 709.927 141.199 710.576 141.543V144.684C710.076 144.254 709.525 143.926 708.923 143.699C708.33 143.465 707.713 143.348 707.072 143.348C705.955 143.348 705.095 143.703 704.494 144.414C703.892 145.125 703.591 146.137 703.591 147.449C703.591 148.762 703.892 149.77 704.494 150.473C705.095 151.176 705.955 151.527 707.072 151.527C707.736 151.527 708.357 151.418 708.935 151.199C709.513 150.973 710.06 150.633 710.576 150.18V153.332ZM724.674 145.48V154H721.264V146.008C721.264 145.062 721.127 144.387 720.854 143.98C720.588 143.574 720.15 143.371 719.541 143.371C718.916 143.371 718.428 143.648 718.076 144.203C717.725 144.75 717.549 145.512 717.549 146.488V154H714.139V135.766H717.549V142.844C717.791 142.117 718.205 141.555 718.791 141.156C719.377 140.758 720.084 140.559 720.912 140.559C722.154 140.559 723.092 140.973 723.725 141.801C724.357 142.621 724.674 143.848 724.674 145.48ZM731.366 149.699H735.268V154H731.366V149.699ZM750.046 153.496C750.046 155.465 749.69 156.867 748.98 157.703C748.276 158.547 747.105 158.969 745.464 158.969H741.761V156.332H744.503C745.269 156.332 745.812 156.117 746.132 155.688C746.452 155.258 746.612 154.527 746.612 153.496V143.512H743.132V140.875H750.046V153.496ZM750.046 138.496H746.612V134.488H750.046V138.496ZM765.679 141.285V144.285C765.046 143.879 764.386 143.574 763.699 143.371C763.019 143.16 762.335 143.055 761.648 143.055C760.882 143.055 760.304 143.168 759.914 143.395C759.523 143.613 759.328 143.941 759.328 144.379C759.328 145.004 760.164 145.512 761.835 145.902L761.964 145.938L762.949 146.172C764.199 146.469 765.113 146.949 765.691 147.613C766.277 148.27 766.57 149.16 766.57 150.285C766.57 151.637 766.125 152.652 765.234 153.332C764.351 154.004 763.019 154.34 761.238 154.34C760.449 154.34 759.64 154.27 758.812 154.129C757.984 153.996 757.144 153.793 756.292 153.52V150.52C757.05 150.949 757.82 151.277 758.601 151.504C759.39 151.73 760.152 151.844 760.886 151.844C761.691 151.844 762.3 151.727 762.714 151.492C763.128 151.258 763.335 150.918 763.335 150.473C763.335 150.035 763.187 149.699 762.89 149.465C762.601 149.23 761.906 148.98 760.804 148.715L759.855 148.504C758.542 148.207 757.585 147.742 756.984 147.109C756.382 146.477 756.082 145.629 756.082 144.566C756.082 143.301 756.539 142.316 757.453 141.613C758.367 140.91 759.652 140.559 761.308 140.559C762.05 140.559 762.789 140.621 763.523 140.746C764.265 140.863 764.984 141.043 765.679 141.285ZM777.047 135.766H780.715V138.93L778.418 143.418H775.898L777.047 138.93V135.766ZM770.953 135.766H774.621V138.93L772.324 143.418H769.805L770.953 138.93V135.766ZM801.27 149.699H805.173V154H801.27V149.699ZM815.251 149.699H819.154V154H815.251V149.699ZM829.232 149.699H833.135V154H829.232V149.699ZM838.983 143.148V140.219L851.37 145.094V147.859L838.983 152.723V149.805L848.299 146.488L838.983 143.148ZM865.35 143.148L856.034 146.488L865.35 149.805V152.723L852.964 147.859V145.094L865.35 140.219V143.148ZM876.449 136.504H879.038L869.828 156.227H867.238L876.449 136.504ZM891.508 141.285V144.285C890.875 143.879 890.215 143.574 889.527 143.371C888.847 143.16 888.164 143.055 887.476 143.055C886.711 143.055 886.133 143.168 885.742 143.395C885.351 143.613 885.156 143.941 885.156 144.379C885.156 145.004 885.992 145.512 887.664 145.902L887.793 145.938L888.777 146.172C890.027 146.469 890.941 146.949 891.519 147.613C892.105 148.27 892.398 149.16 892.398 150.285C892.398 151.637 891.953 152.652 891.062 153.332C890.18 154.004 888.847 154.34 887.066 154.34C886.277 154.34 885.469 154.27 884.64 154.129C883.812 153.996 882.972 153.793 882.121 153.52V150.52C882.879 150.949 883.648 151.277 884.43 151.504C885.219 151.73 885.98 151.844 886.715 151.844C887.519 151.844 888.129 151.727 888.543 151.492C888.957 151.258 889.164 150.918 889.164 150.473C889.164 150.035 889.015 149.699 888.719 149.465C888.43 149.23 887.734 148.98 886.633 148.715L885.683 148.504C884.371 148.207 883.414 147.742 882.812 147.109C882.211 146.477 881.91 145.629 881.91 144.566C881.91 143.301 882.367 142.316 883.281 141.613C884.195 140.91 885.48 140.559 887.137 140.559C887.879 140.559 888.617 140.621 889.351 140.746C890.094 140.863 890.812 141.043 891.508 141.285ZM906.309 153.332C905.731 153.668 905.11 153.918 904.446 154.082C903.782 154.254 903.067 154.34 902.301 154.34C900.278 154.34 898.696 153.73 897.555 152.512C896.414 151.293 895.844 149.605 895.844 147.449C895.844 145.285 896.418 143.594 897.567 142.375C898.715 141.148 900.301 140.535 902.325 140.535C903.028 140.535 903.703 140.617 904.352 140.781C905.008 140.945 905.66 141.199 906.309 141.543V144.684C905.809 144.254 905.258 143.926 904.657 143.699C904.063 143.465 903.446 143.348 902.805 143.348C901.688 143.348 900.828 143.703 900.227 144.414C899.625 145.125 899.325 146.137 899.325 147.449C899.325 148.762 899.625 149.77 900.227 150.473C900.828 151.176 901.688 151.527 902.805 151.527C903.469 151.527 904.09 151.418 904.668 151.199C905.246 150.973 905.793 150.633 906.309 150.18V153.332ZM921.345 144.496C920.97 144.152 920.528 143.895 920.02 143.723C919.52 143.551 918.97 143.465 918.368 143.465C917.641 143.465 917.005 143.594 916.458 143.852C915.919 144.102 915.501 144.469 915.204 144.953C915.016 145.25 914.884 145.609 914.805 146.031C914.735 146.453 914.7 147.094 914.7 147.953V154H911.266V140.875H914.7V142.914C915.036 142.164 915.552 141.586 916.247 141.18C916.942 140.766 917.755 140.559 918.684 140.559C919.153 140.559 919.61 140.617 920.055 140.734C920.509 140.844 920.938 141.008 921.345 141.227V144.496ZM924.427 140.875H931.224V151.363H935.49V154H923.513V151.363H927.79V143.512H924.427V140.875ZM927.79 134.488H931.224V138.496H927.79V134.488ZM940.998 152.148V158.992H937.576V140.875H940.998V142.844C941.357 142.086 941.83 141.516 942.416 141.133C943.002 140.75 943.689 140.559 944.478 140.559C945.978 140.559 947.142 141.16 947.97 142.363C948.799 143.566 949.213 145.262 949.213 147.449C949.213 149.668 948.791 151.371 947.947 152.559C947.111 153.746 945.916 154.34 944.361 154.34C943.658 154.34 943.025 154.16 942.463 153.801C941.908 153.434 941.42 152.883 940.998 152.148ZM945.779 147.426C945.779 146.16 945.568 145.168 945.146 144.449C944.724 143.73 944.142 143.371 943.4 143.371C942.658 143.371 942.072 143.73 941.642 144.449C941.213 145.168 940.998 146.16 940.998 147.426C940.998 148.691 941.213 149.684 941.642 150.402C942.072 151.121 942.658 151.48 943.4 151.48C944.142 151.48 944.724 151.121 945.146 150.402C945.568 149.684 945.779 148.691 945.779 147.426ZM957.885 137.148V140.875H962.373V143.512H957.885V149.723C957.885 150.309 958.026 150.73 958.307 150.988C958.596 151.238 959.073 151.363 959.737 151.363H962.373V154H959.49C957.522 154 956.19 153.688 955.494 153.062C954.799 152.43 954.451 151.262 954.451 149.559V143.512H951.1V140.875H954.451V137.148H957.885ZM964.811 143.148V140.219L977.198 145.094V147.859L964.811 152.723V149.805L974.128 146.488L964.811 143.148Z" fill="#F2F2F2"/>
</g>
<defs>
<filter id="filter0_d_176_1180" x="0" y="85" width="1058" height="130" filterUnits="userSpaceOnUse" color-interpolation-filters="sRGB">
<feFlood flood-opacity="0" result="BackgroundImageFix"/>
<feColorMatrix in="SourceAlpha" type="matrix" values="0 0 0 0 0 0 0 0 0 0 0 0 0 0 0 0 0 0 127 0" result="hardAlpha"/>
<feOffset dy="4"/>
<feGaussianBlur stdDeviation="15"/>
<feComposite in2="hardAlpha" operator="out"/>
<feColorMatrix type="matrix" values="0 0 0 0 0 0 0 0 0 0 0 0 0 0 0 0 0 0 0.25 0"/>
<feBlend mode="normal" in2="BackgroundImageFix" result="effect1_dropShadow_176_1180"/>
<feBlend mode="normal" in="SourceGraphic" in2="effect1_dropShadow_176_1180" result="shape"/>
</filter>
</defs>
</svg>
