<svg width="2048" height="2048" viewBox="0 0 2048 2048" fill="none" xmlns="http://www.w3.org/2000/svg">
<rect width="2048" height="2048" fill="url(#paint0_linear_26_36)"/>
<path d="M1184.1 1491.25L1145.9 1374.75C1145.36 1373.11 1143.83 1372 1142.1 1372H939.79C937.295 1372 935.409 1369.74 935.854 1367.29L961.404 1226.29C961.749 1224.38 963.406 1223 965.34 1223H1100.65C1103.32 1223 1105.24 1220.43 1104.48 1217.87L1018.25 925.842C1018.08 925.287 1018.04 924.703 1018.13 924.131L1037.55 791.146C1076.13 786.882 1109.99 766.942 1132.61 737.836L1418.93 1488.57C1419.93 1491.19 1418 1494 1415.19 1494H1187.9C1186.17 1494 1184.64 1492.89 1184.1 1491.25Z" fill="white"/>
<path fill-rule="evenodd" clip-rule="evenodd" d="M910.521 736.702C930.644 763.147 959.963 782.215 993.709 789.14L862.156 1489.84C861.617 1492.71 858.279 1494.06 855.9 1492.36L765.004 1427.43C763.775 1426.55 762.157 1426.44 760.819 1427.15L632.622 1494.47C629.457 1496.13 625.907 1493 626.994 1489.6C755.24 1087.5 861.812 841.305 910.521 736.702Z" fill="white"/>
<circle cx="1022" cy="652" r="98" fill="white"/>
<defs>
<linearGradient id="paint0_linear_26_36" x1="0" y1="2048" x2="2048" y2="0" gradientUnits="userSpaceOnUse">
<stop stop-color="#9B51E0"/>
<stop offset="1" stop-color="#FF00A8"/>
</linearGradient>
</defs>
</svg>
