<svg width="925" height="312" viewBox="0 0 925 312" fill="none" xmlns="http://www.w3.org/2000/svg">
<g clip-path="url(#clip0_3_55)">
<path d="M65.75 292.875H33.5L29.0625 308H0.125L34.5625 216.375H65.4375L99.875 308H70.25L65.75 292.875ZM59.8125 273.062L49.6875 240.125L39.625 273.062H59.8125ZM109.188 216.375H135.625L170.125 267.062V216.375H196.812V308H170.125L135.812 257.688V308H109.188V216.375ZM261.688 274.812V255.75H305.438V294.812C297.062 300.521 289.646 304.417 283.188 306.5C276.771 308.542 269.146 309.562 260.312 309.562C249.438 309.562 240.562 307.708 233.688 304C226.854 300.292 221.542 294.771 217.75 287.438C214 280.104 212.125 271.688 212.125 262.188C212.125 252.188 214.188 243.5 218.312 236.125C222.438 228.708 228.479 223.083 236.438 219.25C242.646 216.292 251 214.812 261.5 214.812C271.625 214.812 279.188 215.729 284.188 217.562C289.229 219.396 293.396 222.25 296.688 226.125C300.021 229.958 302.521 234.833 304.188 240.75L276.875 245.625C275.75 242.167 273.833 239.521 271.125 237.688C268.458 235.854 265.042 234.938 260.875 234.938C254.667 234.938 249.708 237.104 246 241.438C242.333 245.729 240.5 252.542 240.5 261.875C240.5 271.792 242.354 278.875 246.062 283.125C249.812 287.375 255.021 289.5 261.688 289.5C264.854 289.5 267.875 289.042 270.75 288.125C273.625 287.208 276.917 285.646 280.625 283.438V274.812H261.688ZM322.188 216.375H398.062V235.938H350.562V250.5H394.625V269.188H350.562V287.25H399.438V308H322.188V216.375ZM414.75 216.375H443.062V285.438H487.25V308H414.75V216.375ZM490.875 216.375H522.312L540.812 247.312L559.312 216.375H590.562L554.938 269.625V308H526.562V269.625L490.875 216.375ZM593.312 216.375H679.375V239H650.5V308H622.188V239H593.312V216.375ZM693.375 216.375H721.75V308H693.375V216.375ZM803.125 270.562L827.938 278.062C826.271 285.021 823.646 290.833 820.062 295.5C816.479 300.167 812.021 303.688 806.688 306.062C801.396 308.438 794.646 309.625 786.438 309.625C776.479 309.625 768.333 308.188 762 305.312C755.708 302.396 750.271 297.292 745.688 290C741.104 282.708 738.812 273.375 738.812 262C738.812 246.833 742.833 235.188 750.875 227.062C758.958 218.896 770.375 214.812 785.125 214.812C796.667 214.812 805.729 217.146 812.312 221.812C818.938 226.479 823.854 233.646 827.062 243.312L802.062 248.875C801.188 246.083 800.271 244.042 799.312 242.75C797.729 240.583 795.792 238.917 793.5 237.75C791.208 236.583 788.646 236 785.812 236C779.396 236 774.479 238.583 771.062 243.75C768.479 247.583 767.188 253.604 767.188 261.812C767.188 271.979 768.729 278.958 771.812 282.75C774.896 286.5 779.229 288.375 784.812 288.375C790.229 288.375 794.312 286.854 797.062 283.812C799.854 280.771 801.875 276.354 803.125 270.562ZM836.812 277.688L863.75 276C864.333 280.375 865.521 283.708 867.312 286C870.229 289.708 874.396 291.562 879.812 291.562C883.854 291.562 886.958 290.625 889.125 288.75C891.333 286.833 892.438 284.625 892.438 282.125C892.438 279.75 891.396 277.625 889.312 275.75C887.229 273.875 882.396 272.104 874.812 270.438C862.396 267.646 853.542 263.938 848.25 259.312C842.917 254.688 840.25 248.792 840.25 241.625C840.25 236.917 841.604 232.479 844.312 228.312C847.062 224.104 851.167 220.812 856.625 218.438C862.125 216.021 869.646 214.812 879.188 214.812C890.896 214.812 899.812 217 905.938 221.375C912.104 225.708 915.771 232.625 916.938 242.125L890.25 243.688C889.542 239.562 888.042 236.562 885.75 234.688C883.5 232.812 880.375 231.875 876.375 231.875C873.083 231.875 870.604 232.583 868.938 234C867.271 235.375 866.438 237.062 866.438 239.062C866.438 240.521 867.125 241.833 868.5 243C869.833 244.208 873 245.333 878 246.375C890.375 249.042 899.229 251.75 904.562 254.5C909.938 257.208 913.833 260.583 916.25 264.625C918.708 268.667 919.938 273.188 919.938 278.188C919.938 284.062 918.312 289.479 915.062 294.438C911.812 299.396 907.271 303.167 901.438 305.75C895.604 308.292 888.25 309.562 879.375 309.562C863.792 309.562 853 306.562 847 300.562C841 294.562 837.604 286.938 836.812 277.688Z" fill="#333333"/>
<circle cx="707.5" cy="186.5" r="14.5" fill="#333333"/>
<path d="M378 28C142 33.7946 85.5 216.5 85.5 216.5L74.5 195.5H41.5C41.5 195.5 134.5 5.50003 378 -2.563e-05C621.5 -5.50009 702.5 158 702.5 158C702.5 158 694.167 157 687.5 162C680.833 167 679.5 173 679.5 173C679.5 173 614 22.2053 378 28Z" fill="url(#paint0_linear_3_55)"/>
</g>
<defs>
<linearGradient id="paint0_linear_3_55" x1="41" y1="108" x2="702" y2="108" gradientUnits="userSpaceOnUse">
<stop stop-color="#9B51E0"/>
<stop offset="1" stop-color="#FE01A9"/>
</linearGradient>
<clipPath id="clip0_3_55">
<rect width="925" height="312" fill="white"/>
</clipPath>
</defs>
</svg>
