<svg width="920" height="310" viewBox="0 0 920 310" fill="none" xmlns="http://www.w3.org/2000/svg">
<g clip-path="url(#clip0_3_55)">
<path d="M65.75 293.245H33.5L29.0625 308.37H0.125L34.5625 216.745H65.4375L99.875 308.37H70.25L65.75 293.245ZM59.8125 273.433L49.6875 240.495L39.625 273.433H59.8125ZM109.188 216.745H135.625L170.125 267.433V216.745H196.812V308.37H170.125L135.812 258.058V308.37H109.188V216.745ZM261.688 275.183V256.12H305.438V295.183C297.062 300.891 289.646 304.787 283.188 306.87C276.771 308.912 269.146 309.933 260.312 309.933C249.438 309.933 240.562 308.078 233.688 304.37C226.854 300.662 221.542 295.141 217.75 287.808C214 280.474 212.125 272.058 212.125 262.558C212.125 252.558 214.188 243.87 218.312 236.495C222.438 229.078 228.479 223.453 236.438 219.62C242.646 216.662 251 215.183 261.5 215.183C271.625 215.183 279.188 216.099 284.188 217.933C289.229 219.766 293.396 222.62 296.688 226.495C300.021 230.328 302.521 235.203 304.188 241.12L276.875 245.995C275.75 242.537 273.833 239.891 271.125 238.058C268.458 236.224 265.042 235.308 260.875 235.308C254.667 235.308 249.708 237.474 246 241.808C242.333 246.099 240.5 252.912 240.5 262.245C240.5 272.162 242.354 279.245 246.062 283.495C249.812 287.745 255.021 289.87 261.688 289.87C264.854 289.87 267.875 289.412 270.75 288.495C273.625 287.578 276.917 286.016 280.625 283.808V275.183H261.688ZM322.188 216.745H398.062V236.308H350.562V250.87H394.625V269.558H350.562V287.62H399.438V308.37H322.188V216.745ZM414.75 216.745H443.062V285.808H487.25V308.37H414.75V216.745ZM490.875 216.745H522.312L540.812 247.683L559.312 216.745H590.562L554.938 269.995V308.37H526.562V269.995L490.875 216.745ZM593.312 216.745H679.375V239.37H650.5V308.37H622.188V239.37H593.312V216.745ZM693.375 216.745H721.75V308.37H693.375V216.745ZM803.125 270.933L827.938 278.433C826.271 285.391 823.646 291.203 820.062 295.87C816.479 300.537 812.021 304.058 806.688 306.433C801.396 308.808 794.646 309.995 786.438 309.995C776.479 309.995 768.333 308.558 762 305.683C755.708 302.766 750.271 297.662 745.688 290.37C741.104 283.078 738.812 273.745 738.812 262.37C738.812 247.203 742.833 235.558 750.875 227.433C758.958 219.266 770.375 215.183 785.125 215.183C796.667 215.183 805.729 217.516 812.312 222.183C818.938 226.849 823.854 234.016 827.062 243.683L802.062 249.245C801.188 246.453 800.271 244.412 799.312 243.12C797.729 240.953 795.792 239.287 793.5 238.12C791.208 236.953 788.646 236.37 785.812 236.37C779.396 236.37 774.479 238.953 771.062 244.12C768.479 247.953 767.188 253.974 767.188 262.183C767.188 272.349 768.729 279.328 771.812 283.12C774.896 286.87 779.229 288.745 784.812 288.745C790.229 288.745 794.312 287.224 797.062 284.183C799.854 281.141 801.875 276.724 803.125 270.933ZM836.812 278.058L863.75 276.37C864.333 280.745 865.521 284.078 867.312 286.37C870.229 290.078 874.396 291.933 879.812 291.933C883.854 291.933 886.958 290.995 889.125 289.12C891.333 287.203 892.438 284.995 892.438 282.495C892.438 280.12 891.396 277.995 889.312 276.12C887.229 274.245 882.396 272.474 874.812 270.808C862.396 268.016 853.542 264.308 848.25 259.683C842.917 255.058 840.25 249.162 840.25 241.995C840.25 237.287 841.604 232.849 844.312 228.683C847.062 224.474 851.167 221.183 856.625 218.808C862.125 216.391 869.646 215.183 879.188 215.183C890.896 215.183 899.812 217.37 905.938 221.745C912.104 226.078 915.771 232.995 916.938 242.495L890.25 244.058C889.542 239.933 888.042 236.933 885.75 235.058C883.5 233.183 880.375 232.245 876.375 232.245C873.083 232.245 870.604 232.953 868.938 234.37C867.271 235.745 866.438 237.433 866.438 239.433C866.438 240.891 867.125 242.203 868.5 243.37C869.833 244.578 873 245.703 878 246.745C890.375 249.412 899.229 252.12 904.562 254.87C909.938 257.578 913.833 260.953 916.25 264.995C918.708 269.037 919.938 273.558 919.938 278.558C919.938 284.433 918.312 289.849 915.062 294.808C911.812 299.766 907.271 303.537 901.438 306.12C895.604 308.662 888.25 309.933 879.375 309.933C863.792 309.933 853 306.933 847 300.933C841 294.933 837.604 287.308 836.812 278.058Z" fill="#333333"/>
<circle cx="707.5" cy="186.5" r="14.5" fill="#333333"/>
<path d="M378 28C142 33.7946 85.5 216.5 85.5 216.5L74.5 195.5H41.5C41.5 195.5 134.5 5.50003 378 -2.563e-05C621.5 -5.50009 702.5 158 702.5 158C702.5 158 694.167 157 687.5 162C680.833 167 679.5 173 679.5 173C679.5 173 614 22.2053 378 28Z" fill="url(#paint0_linear_3_55)"/>
</g>
<defs>
<linearGradient id="paint0_linear_3_55" x1="41" y1="108" x2="702" y2="108" gradientUnits="userSpaceOnUse">
<stop stop-color="#1B57A8"/>
<stop offset="1" stop-color="#189FB1"/>
</linearGradient>
<clipPath id="clip0_3_55">
<rect width="920" height="310" fill="white"/>
</clipPath>
</defs>
</svg>
