<svg width="399" height="476" viewBox="0 0 399 476" fill="none" xmlns="http://www.w3.org/2000/svg">
<path d="M280.048 471.623L260.951 413.377C260.682 412.556 259.915 412 259.051 412H157.895C156.648 412 155.705 410.871 155.927 409.643L168.702 339.143C168.875 338.192 169.703 337.5 170.67 337.5H238.324C239.66 337.5 240.62 336.215 240.242 334.934L197.124 188.921C197.042 188.644 197.022 188.352 197.063 188.066L206.776 121.573C226.066 119.441 242.993 109.471 254.304 94.9182L397.465 470.287C397.965 471.597 396.998 473 395.597 473H281.949C281.084 473 280.318 472.445 280.048 471.623Z" fill="white"/>
<path fill-rule="evenodd" clip-rule="evenodd" d="M143.26 94.3511C153.322 107.573 167.981 117.107 184.854 120.57L119.078 470.92C118.808 472.357 117.139 473.028 115.95 472.179L70.502 439.716C69.8875 439.277 69.0782 439.222 68.4096 439.573L4.31092 473.236C2.72834 474.067 0.953549 472.502 1.49671 470.799C65.6201 269.748 118.906 146.653 143.26 94.3511Z" fill="white"/>
<circle cx="199" cy="52" r="49" fill="white"/>
</svg>
