<svg width="399" height="476" viewBox="0 0 399 476" fill="none" xmlns="http://www.w3.org/2000/svg">
<path d="M280.548 471.623L261.451 413.377C261.182 412.556 260.415 412 259.551 412H158.395C157.148 412 156.205 410.871 156.427 409.643L169.202 339.143C169.375 338.192 170.203 337.5 171.17 337.5H238.824C240.16 337.5 241.12 336.215 240.742 334.934L197.624 188.921C197.542 188.644 197.522 188.352 197.563 188.066L207.276 121.573C226.566 119.441 243.494 109.471 254.804 94.9182L397.965 470.287C398.465 471.597 397.498 473 396.097 473H282.449C281.584 473 280.818 472.445 280.548 471.623Z" fill="#333333"/>
<path fill-rule="evenodd" clip-rule="evenodd" d="M143.76 94.3511C153.822 107.573 168.481 117.107 185.354 120.57L119.578 470.92C119.309 472.357 117.639 473.028 116.45 472.179L71.0021 439.716C70.3876 439.277 69.5782 439.222 68.9097 439.573L4.81096 473.236C3.22839 474.067 1.45359 472.502 1.99676 470.799C66.1202 269.748 119.406 146.653 143.76 94.3511Z" fill="url(#paint0_linear_294_5022)"/>
<circle cx="199.5" cy="52" r="49" fill="#333333"/>
<defs>
<linearGradient id="paint0_linear_294_5022" x1="185.5" y1="119.5" x2="1.49996" y2="473" gradientUnits="userSpaceOnUse">
<stop stop-color="#1B57A8"/>
<stop offset="1" stop-color="#189FB1"/>
</linearGradient>
</defs>
</svg>
