<svg width="544" height="298" viewBox="0 0 544 298" fill="none" xmlns="http://www.w3.org/2000/svg">
<path d="M334 149C371.679 149 428.197 123 472.605 73.5" stroke="#ECFDDF" stroke-width="6" stroke-linecap="round"/>
<path d="M334 149C371.679 149 428.197 123 472.156 74" stroke="#3FA81B" stroke-width="1.2" stroke-dasharray="2 7"/>
<path d="M334 149C372.576 149 428.197 177 471.259 225" stroke="#ECFDDF" stroke-width="6" stroke-linecap="round"/>
<path d="M334 149C372.576 149 428.197 177 471.259 225" stroke="#3FA81B" stroke-width="1.2" stroke-dasharray="2 7"/>
<path d="M467 152C468.657 152 470 150.657 470 149C470 147.343 468.657 146 467 146L467 152ZM196 152L467 152L467 146L196 146L196 152Z" fill="#ECFDDF"/>
<path d="M196 149L467 149" stroke="#3FA81B" stroke-width="1.2" stroke-dasharray="2 7"/>
<rect x="466" width="78" height="78" rx="15" fill="white"/>
<path d="M509.999 15.2001C514.277 17.67 515.742 23.1402 513.272 27.4182L494.745 59.5086C492.275 63.7866 486.805 65.2524 482.527 62.7825C478.249 60.3126 476.783 54.8423 479.253 50.5644L497.78 18.4739C500.25 14.196 505.721 12.7302 509.999 15.2001Z" fill="#FBBC04"/>
<path d="M501.055 15.1998C505.333 12.7299 510.803 14.1956 513.273 18.4736L531.8 50.5641C534.27 54.842 532.804 60.3123 528.526 62.7822C524.248 65.252 518.778 63.7863 516.308 59.5083L497.781 27.4179C495.311 23.1399 496.777 17.6697 501.055 15.1998Z" fill="#4285F4"/>
<path d="M482.529 62.7818C478.216 60.2916 476.721 54.8049 479.191 50.527C481.661 46.249 487.16 44.7997 491.473 47.2899C495.786 49.7801 497.28 55.2667 494.811 59.5447C492.341 63.8227 486.842 65.272 482.529 62.7818Z" fill="#34A853"/>
<g clip-path="url(#clip0_498_3949)">
<rect x="466" y="110" width="78" height="78" rx="15" fill="white"/>
<path d="M517.355 126.278V172.028C517.355 177.148 520.909 180 524.678 180C528.165 180 532 177.574 532 172.028V126.625C532 121.932 528.513 119 524.678 119C520.842 119 517.355 122.234 517.355 126.278Z" fill="#F9AB00"/>
<path d="M498.178 149.5V172.028C498.178 177.148 501.731 180 505.5 180C508.987 180 512.822 177.574 512.822 172.028V149.847C512.822 145.154 509.336 142.222 505.5 142.222C501.665 142.222 498.178 145.455 498.178 149.5Z" fill="#E37400"/>
<path d="M486.322 180C490.366 180 493.645 176.742 493.645 172.722C493.645 168.702 490.366 165.443 486.322 165.443C482.278 165.443 479 168.702 479 172.722C479 176.742 482.278 180 486.322 180Z" fill="#E37400"/>
</g>
<g clip-path="url(#clip1_498_3949)">
<rect x="466" y="220" width="78" height="78" rx="15" fill="url(#paint0_linear_498_3949)"/>
<rect x="466" y="220" width="78" height="78" rx="15" fill="white"/>
<path d="M507.21 298.007H518.78V268.237H529.05L530.74 256.277H518.78C518.78 243.537 518.78 243.537 530.74 243.537V232.357C507.21 229.882 507.21 239.112 507.21 256.277H496.94V268.237H507.21V298.007Z" fill="#4566A2"/>
</g>
<rect x="268" y="83" width="132" height="132" rx="12" fill="white"/>
<path d="M352.816 202.098L348.516 188.985C348.456 188.8 348.283 188.675 348.089 188.675H325.316C325.035 188.675 324.823 188.421 324.873 188.145L327.749 172.273C327.787 172.059 327.974 171.903 328.192 171.903H343.422C343.723 171.903 343.939 171.614 343.854 171.326L334.147 138.454C334.129 138.392 334.124 138.326 334.134 138.262L336.32 123.292C340.663 122.812 344.474 120.568 347.02 117.292L379.249 201.797C379.362 202.092 379.144 202.408 378.829 202.408H353.244C353.049 202.408 352.876 202.283 352.816 202.098Z" fill="#1B57A8"/>
<path fill-rule="evenodd" clip-rule="evenodd" d="M322.021 117.164C324.287 120.141 327.587 122.287 331.385 123.067L316.577 201.94C316.517 202.263 316.141 202.415 315.873 202.223L305.641 194.915C305.503 194.816 305.321 194.804 305.17 194.883L290.74 202.461C290.384 202.649 289.984 202.296 290.106 201.913C304.542 156.651 316.538 128.939 322.021 117.164Z" fill="url(#paint1_linear_498_3949)"/>
<circle cx="334.57" cy="107.629" r="11.0312" fill="#1B57A8"/>
<rect x="268" y="83" width="132" height="132" rx="12" stroke="#ECFDDF" stroke-width="6"/>
<rect x="16" y="80" width="180" height="138" rx="15" fill="white" fill-opacity="0.05"/>
<rect x="19" y="83" width="174" height="132" rx="12" stroke="white" stroke-opacity="0.5" stroke-width="6"/>
<path d="M47.9453 101.766L41.7344 103.992L47.9453 106.203V108.148L39.6875 104.906V103.062L47.9453 99.8125V101.766ZM57.0078 103.32V109H54.7344V103.672C54.7344 103.042 54.6432 102.591 54.4609 102.32C54.2839 102.049 53.9922 101.914 53.5859 101.914C53.1693 101.914 52.8438 102.099 52.6094 102.469C52.375 102.833 52.2578 103.341 52.2578 103.992V109H49.9844V96.8438H52.2578V101.562C52.4193 101.078 52.6953 100.703 53.0859 100.438C53.4766 100.172 53.9479 100.039 54.5 100.039C55.3281 100.039 55.9531 100.315 56.375 100.867C56.7969 101.414 57.0078 102.232 57.0078 103.32ZM63.6719 97.7656V100.25H66.6641V102.008H63.6719V106.148C63.6719 106.539 63.7656 106.82 63.9531 106.992C64.1458 107.159 64.4635 107.242 64.9062 107.242H66.6641V109H64.7422C63.4297 109 62.5417 108.792 62.0781 108.375C61.6146 107.953 61.3828 107.174 61.3828 106.039V102.008H59.1484V100.25H61.3828V97.7656H63.6719ZM73.3125 101.125C73.4844 100.755 73.7031 100.482 73.9688 100.305C74.2344 100.128 74.5599 100.039 74.9453 100.039C75.7005 100.039 76.2214 100.299 76.5078 100.82C76.7995 101.341 76.9453 102.424 76.9453 104.07V109H75.0703V103.383C75.0703 102.732 75.0208 102.297 74.9219 102.078C74.8229 101.859 74.6432 101.75 74.3828 101.75C74.1224 101.75 73.9401 101.862 73.8359 102.086C73.7318 102.31 73.6797 102.742 73.6797 103.383V109H71.8281V103.383C71.8281 102.742 71.776 102.31 71.6719 102.086C71.5677 101.862 71.3854 101.75 71.125 101.75C70.8646 101.75 70.6849 101.859 70.5859 102.078C70.487 102.297 70.4375 102.732 70.4375 103.383V109H68.5625V100.25H70.2266V101.156C70.3568 100.812 70.5651 100.542 70.8516 100.344C71.138 100.141 71.4583 100.039 71.8125 100.039C72.1667 100.039 72.4896 100.146 72.7812 100.359C73.0729 100.568 73.25 100.823 73.3125 101.125ZM80.5859 105.352V98.6016H78.2656V96.8438H82.875V105.352C82.875 106.039 82.9818 106.526 83.1953 106.812C83.4089 107.099 83.7708 107.242 84.2812 107.242H86.1094V109H83.6406C82.5521 109 81.7708 108.719 81.2969 108.156C80.8229 107.594 80.5859 106.659 80.5859 105.352ZM87.8906 101.766V99.8125L96.1484 103.062V104.906L87.8906 108.148V106.203L94.1016 103.992L87.8906 101.766Z" fill="white"/>
<path d="M57.5859 124.766L51.375 126.992L57.5859 129.203V131.148L49.3281 127.906V126.062L57.5859 122.812V124.766ZM66.6484 126.32V132H64.375V126.672C64.375 126.042 64.2839 125.591 64.1016 125.32C63.9245 125.049 63.6328 124.914 63.2266 124.914C62.8099 124.914 62.4844 125.099 62.25 125.469C62.0156 125.833 61.8984 126.341 61.8984 126.992V132H59.625V119.844H61.8984V124.562C62.0599 124.078 62.3359 123.703 62.7266 123.438C63.1172 123.172 63.5885 123.039 64.1406 123.039C64.9688 123.039 65.5938 123.315 66.0156 123.867C66.4375 124.414 66.6484 125.232 66.6484 126.32ZM76.5312 131.57C76 131.789 75.4583 131.953 74.9062 132.062C74.3542 132.172 73.7708 132.227 73.1562 132.227C71.6927 132.227 70.5729 131.836 69.7969 131.055C69.026 130.268 68.6406 129.138 68.6406 127.664C68.6406 126.237 69.013 125.109 69.7578 124.281C70.5026 123.453 71.5182 123.039 72.8047 123.039C74.1016 123.039 75.1068 123.424 75.8203 124.195C76.5391 124.961 76.8984 126.042 76.8984 127.438V128.367H70.9688C70.974 129.055 71.1771 129.568 71.5781 129.906C71.9792 130.245 72.5781 130.414 73.375 130.414C73.901 130.414 74.4193 130.339 74.9297 130.188C75.4401 130.036 75.974 129.797 76.5312 129.469V131.57ZM74.5938 126.648C74.5833 126.044 74.4271 125.589 74.125 125.281C73.8281 124.969 73.388 124.812 72.8047 124.812C72.2786 124.812 71.8594 124.974 71.5469 125.297C71.2344 125.615 71.0495 126.068 70.9922 126.656L74.5938 126.648ZM83.0312 127.891C82.1771 127.891 81.5807 128 81.2422 128.219C80.9036 128.438 80.7344 128.812 80.7344 129.344C80.7344 129.74 80.8516 130.055 81.0859 130.289C81.3203 130.523 81.638 130.641 82.0391 130.641C82.6432 130.641 83.112 130.414 83.4453 129.961C83.7786 129.503 83.9453 128.865 83.9453 128.047V127.891H83.0312ZM86.2188 127.008V132H83.9453V131.023C83.6693 131.409 83.3151 131.706 82.8828 131.914C82.4505 132.122 81.974 132.227 81.4531 132.227C80.4583 132.227 79.6823 131.964 79.125 131.438C78.5729 130.911 78.2969 130.177 78.2969 129.234C78.2969 128.214 78.6276 127.461 79.2891 126.977C79.9505 126.487 80.974 126.242 82.3594 126.242H83.9453V125.859C83.9453 125.49 83.8099 125.211 83.5391 125.023C83.2734 124.831 82.8802 124.734 82.3594 124.734C81.8125 124.734 81.2812 124.805 80.7656 124.945C80.2552 125.081 79.7214 125.299 79.1641 125.602V123.648C79.6693 123.44 80.1823 123.286 80.7031 123.188C81.224 123.089 81.776 123.039 82.3594 123.039C83.7812 123.039 84.7786 123.328 85.3516 123.906C85.9297 124.484 86.2188 125.518 86.2188 127.008ZM93.3828 124.492V119.844H95.6641V132H93.3828V130.703C93.138 131.208 92.8203 131.589 92.4297 131.844C92.0443 132.099 91.5885 132.227 91.0625 132.227C90.0625 132.227 89.2865 131.826 88.7344 131.023C88.1823 130.221 87.9062 129.091 87.9062 127.633C87.9062 126.154 88.1849 125.018 88.7422 124.227C89.3047 123.435 90.1042 123.039 91.1406 123.039C91.6094 123.039 92.0286 123.161 92.3984 123.406C92.7734 123.646 93.1016 124.008 93.3828 124.492ZM90.1953 127.648C90.1953 128.492 90.3359 129.154 90.6172 129.633C90.8984 130.112 91.2865 130.352 91.7812 130.352C92.276 130.352 92.6667 130.112 92.9531 129.633C93.2396 129.154 93.3828 128.492 93.3828 127.648C93.3828 126.805 93.2396 126.143 92.9531 125.664C92.6667 125.185 92.276 124.945 91.7812 124.945C91.2865 124.945 90.8984 125.185 90.6172 125.664C90.3359 126.143 90.1953 126.805 90.1953 127.648ZM97.5312 124.766V122.812L105.789 126.062V127.906L97.5312 131.148V129.203L103.742 126.992L97.5312 124.766Z" fill="white"/>
<path d="M67.2266 147.766L61.0156 149.992L67.2266 152.203V154.148L58.9688 150.906V149.062L67.2266 145.812V147.766ZM73.3906 150.891C72.5365 150.891 71.9401 151 71.6016 151.219C71.263 151.438 71.0938 151.812 71.0938 152.344C71.0938 152.74 71.2109 153.055 71.4453 153.289C71.6797 153.523 71.9974 153.641 72.3984 153.641C73.0026 153.641 73.4714 153.414 73.8047 152.961C74.138 152.503 74.3047 151.865 74.3047 151.047V150.891H73.3906ZM76.5781 150.008V155H74.3047V154.023C74.0286 154.409 73.6745 154.706 73.2422 154.914C72.8099 155.122 72.3333 155.227 71.8125 155.227C70.8177 155.227 70.0417 154.964 69.4844 154.438C68.9323 153.911 68.6562 153.177 68.6562 152.234C68.6562 151.214 68.987 150.461 69.6484 149.977C70.3099 149.487 71.3333 149.242 72.7188 149.242H74.3047V148.859C74.3047 148.49 74.1693 148.211 73.8984 148.023C73.6328 147.831 73.2396 147.734 72.7188 147.734C72.1719 147.734 71.6406 147.805 71.125 147.945C70.6146 148.081 70.0807 148.299 69.5234 148.602V146.648C70.0286 146.44 70.5417 146.286 71.0625 146.188C71.5833 146.089 72.1354 146.039 72.7188 146.039C74.1406 146.039 75.138 146.328 75.7109 146.906C76.2891 147.484 76.5781 148.518 76.5781 150.008ZM85.9297 149.32V155H83.6562V149.672C83.6562 149.036 83.5651 148.583 83.3828 148.312C83.2057 148.036 82.9141 147.898 82.5078 147.898C82.0964 147.898 81.7708 148.083 81.5312 148.453C81.2969 148.823 81.1797 149.336 81.1797 149.992V155H78.9062V146.25H81.1797V147.562C81.3411 147.078 81.6172 146.703 82.0078 146.438C82.3984 146.172 82.8698 146.039 83.4219 146.039C84.25 146.039 84.875 146.315 85.2969 146.867C85.7188 147.414 85.9297 148.232 85.9297 149.32ZM93.4766 150.484C93.4766 149.703 93.3281 149.078 93.0312 148.609C92.7344 148.135 92.3438 147.898 91.8594 147.898C91.3802 147.898 90.9922 148.133 90.6953 148.602C90.4036 149.07 90.2578 149.698 90.2578 150.484C90.2578 151.276 90.4036 151.906 90.6953 152.375C90.9922 152.844 91.3802 153.078 91.8594 153.078C92.3438 153.078 92.7344 152.844 93.0312 152.375C93.3281 151.901 93.4766 151.271 93.4766 150.484ZM95.7656 154.344C95.7656 155.745 95.4479 156.755 94.8125 157.375C94.1823 158 93.1562 158.312 91.7344 158.312C91.2552 158.312 90.7812 158.276 90.3125 158.203C89.8438 158.135 89.3672 158.029 88.8828 157.883V155.781C89.3151 156.021 89.7552 156.198 90.2031 156.312C90.651 156.427 91.112 156.484 91.5859 156.484C92.2318 156.484 92.7083 156.331 93.0156 156.023C93.3229 155.721 93.4766 155.247 93.4766 154.602V153.656C93.2526 154.073 92.9557 154.383 92.5859 154.586C92.2161 154.789 91.7656 154.891 91.2344 154.891C90.2344 154.891 89.4401 154.5 88.8516 153.719C88.263 152.938 87.9688 151.878 87.9688 150.539C87.9688 149.154 88.263 148.055 88.8516 147.242C89.4401 146.43 90.2292 146.023 91.2188 146.023C91.7188 146.023 92.1641 146.141 92.5547 146.375C92.9453 146.609 93.2526 146.94 93.4766 147.367V146.25H95.7656V154.344ZM105.453 154.57C104.922 154.789 104.38 154.953 103.828 155.062C103.276 155.172 102.693 155.227 102.078 155.227C100.615 155.227 99.4948 154.836 98.7188 154.055C97.9479 153.268 97.5625 152.138 97.5625 150.664C97.5625 149.237 97.9349 148.109 98.6797 147.281C99.4245 146.453 100.44 146.039 101.727 146.039C103.023 146.039 104.029 146.424 104.742 147.195C105.461 147.961 105.82 149.042 105.82 150.438V151.367H99.8906C99.8958 152.055 100.099 152.568 100.5 152.906C100.901 153.245 101.5 153.414 102.297 153.414C102.823 153.414 103.341 153.339 103.852 153.188C104.362 153.036 104.896 152.797 105.453 152.469V154.57ZM103.516 149.648C103.505 149.044 103.349 148.589 103.047 148.281C102.75 147.969 102.31 147.812 101.727 147.812C101.201 147.812 100.781 147.974 100.469 148.297C100.156 148.615 99.9714 149.068 99.9141 149.656L103.516 149.648ZM109.508 151.352V144.602H107.188V142.844H111.797V151.352C111.797 152.039 111.904 152.526 112.117 152.812C112.331 153.099 112.693 153.242 113.203 153.242H115.031V155H112.562C111.474 155 110.693 154.719 110.219 154.156C109.745 153.594 109.508 152.659 109.508 151.352ZM121.68 155.945C121.372 156.768 121.003 157.367 120.57 157.742C120.143 158.122 119.622 158.312 119.008 158.312H117.117V156.57H118.047C118.516 156.57 118.859 156.49 119.078 156.328C119.297 156.172 119.518 155.805 119.742 155.227L119.914 154.758L116.586 146.25H118.992L120.992 151.93L122.906 146.25H125.312L121.68 155.945ZM131.156 143.766V146.25H134.148V148.008H131.156V152.148C131.156 152.539 131.25 152.82 131.438 152.992C131.63 153.159 131.948 153.242 132.391 153.242H134.148V155H132.227C130.914 155 130.026 154.792 129.562 154.375C129.099 153.953 128.867 153.174 128.867 152.039V148.008H126.633V146.25H128.867V143.766H131.156ZM137.133 146.25H141.664V153.242H144.508V155H136.523V153.242H139.375V148.008H137.133V146.25ZM139.375 141.992H141.664V144.664H139.375V141.992ZM153.336 154.555C152.951 154.779 152.536 154.945 152.094 155.055C151.651 155.169 151.174 155.227 150.664 155.227C149.315 155.227 148.26 154.82 147.5 154.008C146.74 153.195 146.359 152.07 146.359 150.633C146.359 149.19 146.742 148.062 147.508 147.25C148.273 146.432 149.331 146.023 150.68 146.023C151.148 146.023 151.599 146.078 152.031 146.188C152.469 146.297 152.904 146.466 153.336 146.695V148.789C153.003 148.503 152.635 148.284 152.234 148.133C151.839 147.977 151.427 147.898 151 147.898C150.255 147.898 149.682 148.135 149.281 148.609C148.88 149.083 148.68 149.758 148.68 150.633C148.68 151.508 148.88 152.18 149.281 152.648C149.682 153.117 150.255 153.352 151 153.352C151.443 153.352 151.857 153.279 152.242 153.133C152.628 152.982 152.992 152.755 153.336 152.453V154.555ZM162.43 146.523V148.523C162.008 148.253 161.568 148.049 161.109 147.914C160.656 147.773 160.201 147.703 159.742 147.703C159.232 147.703 158.846 147.779 158.586 147.93C158.326 148.076 158.195 148.294 158.195 148.586C158.195 149.003 158.753 149.341 159.867 149.602L159.953 149.625L160.609 149.781C161.443 149.979 162.052 150.299 162.438 150.742C162.828 151.18 163.023 151.773 163.023 152.523C163.023 153.424 162.727 154.102 162.133 154.555C161.544 155.003 160.656 155.227 159.469 155.227C158.943 155.227 158.404 155.18 157.852 155.086C157.299 154.997 156.74 154.862 156.172 154.68V152.68C156.677 152.966 157.19 153.185 157.711 153.336C158.237 153.487 158.745 153.562 159.234 153.562C159.771 153.562 160.177 153.484 160.453 153.328C160.729 153.172 160.867 152.945 160.867 152.648C160.867 152.357 160.768 152.133 160.57 151.977C160.378 151.82 159.914 151.654 159.18 151.477L158.547 151.336C157.672 151.138 157.034 150.828 156.633 150.406C156.232 149.984 156.031 149.419 156.031 148.711C156.031 147.867 156.336 147.211 156.945 146.742C157.555 146.273 158.411 146.039 159.516 146.039C160.01 146.039 160.503 146.081 160.992 146.164C161.487 146.242 161.966 146.362 162.43 146.523ZM165.016 147.766V145.812L173.273 149.062V150.906L165.016 154.148V152.203L171.227 149.992L165.016 147.766Z" fill="white"/>
<path d="M67.2266 170.766L61.0156 172.992L67.2266 175.203V177.148L58.9688 173.906V172.062L67.2266 168.812V170.766ZM71.375 176.766V181.328H69.0938V169.25H71.375V170.562C71.6146 170.057 71.9297 169.677 72.3203 169.422C72.7109 169.167 73.1693 169.039 73.6953 169.039C74.6953 169.039 75.4714 169.44 76.0234 170.242C76.5755 171.044 76.8516 172.174 76.8516 173.633C76.8516 175.112 76.5703 176.247 76.0078 177.039C75.4505 177.831 74.6536 178.227 73.6172 178.227C73.1484 178.227 72.7266 178.107 72.3516 177.867C71.9818 177.622 71.6562 177.255 71.375 176.766ZM74.5625 173.617C74.5625 172.773 74.4219 172.112 74.1406 171.633C73.8594 171.154 73.4714 170.914 72.9766 170.914C72.4818 170.914 72.0911 171.154 71.8047 171.633C71.5182 172.112 71.375 172.773 71.375 173.617C71.375 174.461 71.5182 175.122 71.8047 175.602C72.0911 176.081 72.4818 176.32 72.9766 176.32C73.4714 176.32 73.8594 176.081 74.1406 175.602C74.4219 175.122 74.5625 174.461 74.5625 173.617ZM79.2891 169.25H83.8203V176.242H86.6641V178H78.6797V176.242H81.5312V171.008H79.2891V169.25ZM81.5312 164.992H83.8203V167.664H81.5312V164.992ZM96.1484 169.25L93.2031 173.438L96.4062 178H93.7344L92.0156 175.055L90.3047 178H87.6328L90.8672 173.438L87.8906 169.25H90.5625L92.0156 171.859L93.4766 169.25H96.1484ZM105.453 177.57C104.922 177.789 104.38 177.953 103.828 178.062C103.276 178.172 102.693 178.227 102.078 178.227C100.615 178.227 99.4948 177.836 98.7188 177.055C97.9479 176.268 97.5625 175.138 97.5625 173.664C97.5625 172.237 97.9349 171.109 98.6797 170.281C99.4245 169.453 100.44 169.039 101.727 169.039C103.023 169.039 104.029 169.424 104.742 170.195C105.461 170.961 105.82 172.042 105.82 173.438V174.367H99.8906C99.8958 175.055 100.099 175.568 100.5 175.906C100.901 176.245 101.5 176.414 102.297 176.414C102.823 176.414 103.341 176.339 103.852 176.188C104.362 176.036 104.896 175.797 105.453 175.469V177.57ZM103.516 172.648C103.505 172.044 103.349 171.589 103.047 171.281C102.75 170.969 102.31 170.812 101.727 170.812C101.201 170.812 100.781 170.974 100.469 171.297C100.156 171.615 99.9714 172.068 99.9141 172.656L103.516 172.648ZM109.508 174.352V167.602H107.188V165.844H111.797V174.352C111.797 175.039 111.904 175.526 112.117 175.812C112.331 176.099 112.693 176.242 113.203 176.242H115.031V178H112.562C111.474 178 110.693 177.719 110.219 177.156C109.745 176.594 109.508 175.659 109.508 174.352ZM116.812 170.766V168.812L125.07 172.062V173.906L116.812 177.148V175.203L123.023 172.992L116.812 170.766Z" fill="white"/>
<path d="M61.7891 198.133H64.3906V201H61.7891V198.133ZM71.4297 198.133H74.0312V201H71.4297V198.133ZM81.0703 198.133H83.6719V201H81.0703V198.133Z" fill="white"/>
<circle cx="106" cy="83.25" r="0.75" fill="#E0E0E0"/>
<rect x="16.5" y="80.5" width="179" height="137" rx="14.5" stroke="white"/>
<path d="M3.08461 219.5H208.915C209.4 219.5 209.601 220.121 209.209 220.405L200.927 226.405C200.842 226.467 200.74 226.5 200.634 226.5H11.3659C11.2605 226.5 11.1578 226.467 11.0725 226.405L2.79125 220.405C2.39874 220.121 2.59991 219.5 3.08461 219.5Z" fill="white" fill-opacity="0.1" stroke="white" stroke-linejoin="round"/>
<path d="M102 223H110" stroke="white" stroke-linecap="round"/>
<defs>
<linearGradient id="paint0_linear_498_3949" x1="505" y1="220" x2="505" y2="298" gradientUnits="userSpaceOnUse">
<stop stop-color="#4E78BA"/>
<stop offset="1" stop-color="#395185"/>
</linearGradient>
<linearGradient id="paint1_linear_498_3949" x1="331.418" y1="122.826" x2="289.995" y2="202.408" gradientUnits="userSpaceOnUse">
<stop stop-color="#1B57A8"/>
<stop offset="1" stop-color="#189FB1"/>
</linearGradient>
<clipPath id="clip0_498_3949">
<rect x="466" y="110" width="78" height="78" rx="15" fill="white"/>
</clipPath>
<clipPath id="clip1_498_3949">
<rect x="466" y="220" width="78" height="78" rx="15" fill="white"/>
</clipPath>
</defs>
</svg>
